<?xml version="1.0" encoding="utf-8"?>
<!-- Generator: Adobe Illustrator 23.0.1, SVG Export Plug-In . SVG Version: 6.00 Build 0)  -->
<svg version="1.1" id="Layer_1" xmlns="http://www.w3.org/2000/svg" xmlns:xlink="http://www.w3.org/1999/xlink" x="0px" y="0px"
	 viewBox="0 0 900 900" enable-background="new 0 0 900 900" xml:space="preserve">
<g id="XMLID_4078_">
	<g id="XMLID_4588_">
		
			<path id="XMLID_5045_" opacity="0.3" fill="#640917" stroke="#640917" stroke-width="1.8651" stroke-linecap="round" stroke-miterlimit="10" d="
			M701.71,468.04c-0.73,43.49-12.48,87.36-36.38,127.37c-9.1,15.24-19.56,29.21-31.11,41.83c-30.09,32.88-67.67,56.7-108.41,70.46
			c-13.69,4.62-27.74,8.11-41.98,10.43c-5.65,0.92-11.33,1.66-17.05,2.21c-15.36,1.47-30.88,1.59-46.33,0.3
			c-4.22-0.35-8.44-0.81-12.64-1.37c-14.23-1.89-28.37-4.99-42.25-9.33c-18.69-5.85-36.94-13.94-54.35-24.37
			c-24.64-14.76-45.97-32.94-63.72-53.59c-38.14-44.34-59.8-100.01-62.41-157.31c-2.2-48.06,9.02-97.27,35.16-141.86
			c0.26-0.46,0.54-0.93,0.81-1.39c35.03-58.95,89.83-98.88,150.92-116.39c45.73-13.11,94.97-13.65,142.09-0.18
			c20.96,5.98,41.5,14.74,61.12,26.4c34.72,20.62,62.87,48.13,83.72,79.73C687.68,364.62,702.58,416.05,701.71,468.04z"/>
		<path id="XMLID_5039_" fill="#FF9F36" stroke="#640917" stroke-width="2.6955" stroke-linecap="round" stroke-miterlimit="10" d="
			M702.2,434.76c-0.73,43.49-12.48,87.36-36.38,127.37c-9.1,15.24-19.56,29.21-31.11,41.83c-30.09,32.88-67.67,56.7-108.41,70.46
			c-13.69,4.62-27.74,8.11-41.98,10.43c-5.65,0.92-11.33,1.66-17.05,2.21c-15.36,1.47-30.88,1.59-46.33,0.3
			c-4.22-0.35-8.44-0.81-12.64-1.37c-14.23-1.89-28.37-4.99-42.25-9.33c-18.69-5.85-36.94-13.94-54.35-24.37
			c-24.64-14.76-45.97-32.94-63.72-53.59c-38.14-44.34-59.8-100.01-62.41-157.31c-2.2-48.06,9.02-97.27,35.16-141.86
			c0.26-0.46,0.54-0.93,0.81-1.39c35.03-58.95,89.83-98.88,150.92-116.39c45.73-13.11,94.97-13.65,142.09-0.18
			c20.96,5.98,41.5,14.74,61.12,26.4c34.72,20.62,62.87,48.13,83.72,79.73C688.17,331.35,703.08,382.78,702.2,434.76z"/>
		<g id="XMLID_6623_">
			<path id="XMLID_6628_" fill="#ABC9C7" stroke="#640917" stroke-width="2.6955" stroke-miterlimit="10" d="M463.96,610.56
				l-8.73,14.69c-2.13,3.58-6.76,4.76-10.34,2.63l-3.43-2.04c-3.58-2.13-4.76-6.76-2.63-10.34l8.73-14.69
				c2.69-4.53,8.55-6.02,13.07-3.33c2.27,1.35,3.77,3.48,4.37,5.85C465.61,605.7,465.31,608.3,463.96,610.56z"/>
			<path id="XMLID_6626_" fill="#CDE0DF" d="M463.96,610.56l-8.73,14.69c-2.13,3.58-6.76,4.76-10.34,2.63l-1.72-1.02l17.45-29.37
				c2.27,1.35,3.77,3.48,4.37,5.85C465.61,605.7,465.31,608.3,463.96,610.56z"/>
			<path id="XMLID_6625_" fill="none" stroke="#640917" stroke-width="2.6955" stroke-miterlimit="10" d="M463.96,610.56
				l-8.73,14.69c-2.13,3.58-6.76,4.76-10.34,2.63l-3.43-2.04c-3.58-2.13-4.76-6.76-2.63-10.34l8.73-14.69
				c2.69-4.53,8.55-6.02,13.07-3.33c2.27,1.35,3.77,3.48,4.37,5.85C465.61,605.7,465.31,608.3,463.96,610.56z"/>
			<path id="XMLID_6624_" fill="#CDE0DF" d="M453.41,610.23l-0.52-0.31c-0.62-0.37-0.82-1.17-0.46-1.79l3.69-6.21
				c0.37-0.62,1.17-0.82,1.79-0.46l0.52,0.31c0.62,0.37,0.82,1.17,0.46,1.79l-3.69,6.21C454.83,610.39,454.03,610.6,453.41,610.23z"
				/>
		</g>
		
			<rect id="XMLID_6622_" x="408.84" y="542.72" transform="matrix(0.8597 0.5108 -0.5108 0.8597 362.8813 -134.7771)" fill="#EF8A25" width="35.91" height="100.98"/>
		<path id="XMLID_6621_" fill="#EF8A25" d="M494.26,577.81l-52.6-31.25l3.95-6.64l52.6,31.25c1.49,0.89,1.98,2.81,1.09,4.3
			l-0.74,1.25C497.68,578.2,495.75,578.69,494.26,577.81z"/>
		<g id="XMLID_6615_">
			<path id="XMLID_6620_" fill="#CDE0DF" stroke="#640917" stroke-width="2.6955" stroke-miterlimit="10" d="M397.25,634.39
				l-105.83-62.88c-5.22-3.1-6.93-9.84-3.83-15.06l45.97-77.37l124.73,74.11l-45.97,77.37
				C409.21,635.77,402.46,637.49,397.25,634.39z"/>
			<path id="XMLID_6619_" fill="#ABC9C7" stroke="#640917" stroke-width="2.6955" stroke-miterlimit="10" d="M412.4,602.16
				l-98.88-58.75c-2.15-1.28-2.86-4.05-1.58-6.2l21.27-35.8c1.28-2.15,4.05-2.86,6.2-1.58l98.88,58.75c2.15,1.28,2.86,4.05,1.58,6.2
				l-21.27,35.8C417.33,602.73,414.55,603.44,412.4,602.16z"/>
			<path id="XMLID_6618_" fill="#FFFFFF" d="M360.66,609.34l-34.18-20.31c-2.3-1.37-3.06-4.34-1.69-6.64l10.49-17.65
				c1.37-2.3,4.34-3.06,6.64-1.69l34.18,20.31c2.3,1.37,3.06,4.34,1.69,6.64l-10.49,17.65C365.94,609.95,362.97,610.7,360.66,609.34
				z"/>
			<path id="XMLID_6617_" fill="#E6F4F3" stroke="#640917" stroke-width="2.6955" stroke-miterlimit="10" d="M458.14,556.34
				L330.66,480.6c-1.49-0.89-1.98-2.81-1.09-4.3l0.74-1.25c0.89-1.49,2.81-1.98,4.3-1.09l127.48,75.74c1.49,0.89,1.98,2.81,1.09,4.3
				l-0.74,1.25C461.56,556.74,459.63,557.23,458.14,556.34z"/>
			<path id="XMLID_6616_" fill="#F7F0ED" stroke="#630B18" stroke-width="2.6955" stroke-miterlimit="10" d="M349.11,598.94
				l-7.02-4.17c-0.35-0.21-0.47-0.67-0.26-1.02l0.18-0.3c0.21-0.35,0.67-0.47,1.02-0.26l7.02,4.17c0.35,0.21,0.47,0.67,0.26,1.02
				l-0.18,0.3C349.92,599.03,349.46,599.15,349.11,598.94z"/>
		</g>
		<g id="XMLID_6545_">
			<path id="XMLID_6612_" fill="#FFFFFF" d="M346.28,512.02l-5.5-3.27c-0.52-0.31-0.69-0.97-0.38-1.49l0.76-1.27
				c0.31-0.52,0.97-0.69,1.49-0.38l5.5,3.27c0.52,0.31,0.69,0.97,0.38,1.49l-0.76,1.27C347.46,512.16,346.79,512.33,346.28,512.02z"
				/>
			<path id="XMLID_6609_" fill="#FFFFFF" d="M355.44,517.47l-5.5-3.27c-0.52-0.31-0.69-0.97-0.38-1.49l0.76-1.27
				c0.31-0.52,0.97-0.69,1.49-0.38l5.5,3.27c0.52,0.31,0.69,0.97,0.38,1.49l-0.76,1.27C356.62,517.6,355.96,517.77,355.44,517.47z"
				/>
			<path id="XMLID_6606_" fill="#FFFFFF" d="M364.61,522.91l-5.5-3.27c-0.52-0.31-0.69-0.97-0.38-1.49l0.76-1.27
				c0.31-0.52,0.97-0.69,1.49-0.38l5.5,3.27c0.52,0.31,0.69,0.97,0.38,1.49l-0.76,1.27C365.79,523.05,365.12,523.22,364.61,522.91z"
				/>
			<path id="XMLID_6603_" fill="#FFFFFF" d="M373.77,528.35l-5.5-3.27c-0.52-0.31-0.69-0.97-0.38-1.49l0.76-1.27
				c0.31-0.52,0.97-0.69,1.49-0.38l5.5,3.27c0.52,0.31,0.69,0.97,0.38,1.49l-0.76,1.27C374.95,528.49,374.29,528.66,373.77,528.35z"
				/>
			<path id="XMLID_6600_" fill="#FFFFFF" d="M382.83,533.74l-5.3-3.15c-0.57-0.34-0.76-1.08-0.42-1.65l0.64-1.07
				c0.34-0.57,1.08-0.76,1.65-0.42l5.3,3.15c0.57,0.34,0.76,1.08,0.42,1.65l-0.64,1.07C384.14,533.89,383.4,534.08,382.83,533.74z"
				/>
			<path id="XMLID_6596_" fill="#FFFFFF" d="M392,539.18l-5.3-3.15c-0.57-0.34-0.76-1.08-0.42-1.65l0.64-1.07
				c0.34-0.57,1.08-0.76,1.65-0.42l5.3,3.15c0.57,0.34,0.76,1.08,0.42,1.65l-0.64,1.07C393.31,539.34,392.57,539.52,392,539.18z"/>
			<path id="XMLID_6593_" fill="#FFFFFF" d="M401.16,544.63l-5.3-3.15c-0.57-0.34-0.76-1.08-0.42-1.65l0.64-1.07
				c0.34-0.57,1.08-0.76,1.65-0.42l5.3,3.15c0.57,0.34,0.76,1.08,0.42,1.65l-0.64,1.07C402.47,544.78,401.73,544.97,401.16,544.63z"
				/>
			<path id="XMLID_6590_" fill="#FFFFFF" d="M410.32,550.07l-5.3-3.15c-0.57-0.34-0.76-1.08-0.42-1.65l0.64-1.07
				c0.34-0.57,1.08-0.76,1.65-0.42l5.3,3.15c0.57,0.34,0.76,1.08,0.42,1.65l-0.64,1.07C411.63,550.22,410.9,550.41,410.32,550.07z"
				/>
			<path id="XMLID_6587_" fill="#FFFFFF" d="M419.49,555.52l-5.3-3.15c-0.57-0.34-0.76-1.08-0.42-1.65l0.64-1.07
				c0.34-0.57,1.08-0.76,1.65-0.42l5.3,3.15c0.57,0.34,0.76,1.08,0.42,1.65l-0.64,1.07C420.8,555.67,420.06,555.86,419.49,555.52z"
				/>
			<path id="XMLID_6584_" fill="#FFFFFF" d="M428.65,560.96l-5.3-3.15c-0.57-0.34-0.76-1.08-0.42-1.65l0.64-1.07
				c0.34-0.57,1.08-0.76,1.65-0.42l5.3,3.15c0.57,0.34,0.76,1.08,0.42,1.65l-0.64,1.07C429.96,561.11,429.22,561.3,428.65,560.96z"
				/>
			<path id="XMLID_6583_" fill="#FFFFFF" d="M338.86,519.1l-4.89-2.91c-0.57-0.34-0.76-1.08-0.42-1.65l2.91-4.89
				c0.34-0.57,1.08-0.76,1.65-0.42l4.89,2.91c0.57,0.34,0.76,1.08,0.42,1.65l-2.91,4.89C340.17,519.26,339.43,519.44,338.86,519.1z"
				/>
			<path id="XMLID_6582_" fill="#FFFFFF" d="M347.52,524.25l-4.89-2.91c-0.57-0.34-0.76-1.08-0.42-1.65l2.91-4.89
				c0.34-0.57,1.08-0.76,1.65-0.42l4.89,2.91c0.57,0.34,0.76,1.08,0.42,1.65l-2.91,4.89C348.83,524.4,348.1,524.59,347.52,524.25z"
				/>
			<path id="XMLID_6581_" fill="#FFFFFF" d="M356.18,529.4l-4.89-2.91c-0.57-0.34-0.76-1.08-0.42-1.65l2.91-4.89
				c0.34-0.57,1.08-0.76,1.65-0.42l4.89,2.91c0.57,0.34,0.76,1.08,0.42,1.65l-2.91,4.89C357.5,529.55,356.76,529.74,356.18,529.4z"
				/>
			<path id="XMLID_6580_" fill="#FFFFFF" d="M364.85,534.54l-4.89-2.91c-0.57-0.34-0.76-1.08-0.42-1.65l2.91-4.89
				c0.34-0.57,1.08-0.76,1.65-0.42l4.89,2.91c0.57,0.34,0.76,1.08,0.42,1.65l-2.91,4.89C366.16,534.69,365.42,534.88,364.85,534.54z
				"/>
			<path id="XMLID_6579_" fill="#FFFFFF" d="M373.51,539.69l-4.89-2.91c-0.57-0.34-0.76-1.08-0.42-1.65l2.91-4.89
				c0.34-0.57,1.08-0.76,1.65-0.42l4.89,2.91c0.57,0.34,0.76,1.08,0.42,1.65l-2.91,4.89C374.82,539.84,374.08,540.03,373.51,539.69z
				"/>
			<path id="XMLID_6578_" fill="#FFFFFF" d="M382.17,544.83l-4.89-2.91c-0.57-0.34-0.76-1.08-0.42-1.65l2.91-4.89
				c0.34-0.57,1.08-0.76,1.65-0.42l4.89,2.91c0.57,0.34,0.76,1.08,0.42,1.65l-2.91,4.89C383.48,544.98,382.74,545.17,382.17,544.83z
				"/>
			<path id="XMLID_6577_" fill="#FFFFFF" d="M390.83,549.98l-4.89-2.91c-0.57-0.34-0.76-1.08-0.42-1.65l2.91-4.89
				c0.34-0.57,1.08-0.76,1.65-0.42l4.89,2.91c0.57,0.34,0.76,1.08,0.42,1.65l-2.91,4.89C392.14,550.13,391.4,550.32,390.83,549.98z"
				/>
			<path id="XMLID_6576_" fill="#FFFFFF" d="M399.49,555.12l-4.89-2.91c-0.57-0.34-0.76-1.08-0.42-1.65l2.91-4.89
				c0.34-0.57,1.08-0.76,1.65-0.42l4.89,2.91c0.57,0.34,0.76,1.08,0.42,1.65l-2.91,4.89C400.8,555.28,400.06,555.46,399.49,555.12z"
				/>
			<path id="XMLID_6575_" fill="#FFFFFF" d="M408.15,560.27l-4.89-2.91c-0.57-0.34-0.76-1.08-0.42-1.65l2.91-4.89
				c0.34-0.57,1.08-0.76,1.65-0.42l4.89,2.91c0.57,0.34,0.76,1.08,0.42,1.65l-2.91,4.89C409.46,560.42,408.72,560.61,408.15,560.27z
				"/>
			<path id="XMLID_6574_" fill="#FFFFFF" d="M416.59,565.33l-4.41-2.62c-0.7-0.42-0.94-1.33-0.52-2.03l2.62-4.41
				c0.42-0.7,1.33-0.94,2.03-0.52l4.41,2.62c0.7,0.42,0.94,1.33,0.52,2.03l-2.62,4.41C418.2,565.52,417.29,565.75,416.59,565.33z"/>
			<path id="XMLID_6573_" fill="#FFFFFF" d="M425.25,570.48l-4.41-2.62c-0.7-0.42-0.94-1.33-0.52-2.03l2.62-4.41
				c0.42-0.7,1.33-0.94,2.03-0.52l4.41,2.62c0.7,0.42,0.94,1.33,0.52,2.03l-2.62,4.41C426.86,570.67,425.95,570.9,425.25,570.48z"/>
			<path id="XMLID_6572_" fill="#FFFFFF" d="M345.77,535.04l-4.89-2.91c-0.57-0.34-0.76-1.08-0.42-1.65l2.91-4.89
				c0.34-0.57,1.08-0.76,1.65-0.42l4.89,2.91c0.57,0.34,0.76,1.08,0.42,1.65l-2.91,4.89C347.08,535.19,346.34,535.38,345.77,535.04z
				"/>
			<path id="XMLID_6571_" fill="#FFFFFF" d="M354.43,540.18l-4.89-2.91c-0.57-0.34-0.76-1.08-0.42-1.65l2.91-4.89
				c0.34-0.57,1.08-0.76,1.65-0.42l4.89,2.91c0.57,0.34,0.76,1.08,0.42,1.65l-2.91,4.89C355.74,540.34,355,540.52,354.43,540.18z"/>
			<path id="XMLID_6570_" fill="#FFFFFF" d="M363.09,545.33l-4.89-2.91c-0.57-0.34-0.76-1.08-0.42-1.65l2.91-4.89
				c0.34-0.57,1.08-0.76,1.65-0.42l4.89,2.91c0.57,0.34,0.76,1.08,0.42,1.65l-2.91,4.89C364.4,545.48,363.66,545.67,363.09,545.33z"
				/>
			<path id="XMLID_6569_" fill="#FFFFFF" d="M371.75,550.48l-4.89-2.91c-0.57-0.34-0.76-1.08-0.42-1.65l2.91-4.89
				c0.34-0.57,1.08-0.76,1.65-0.42l4.89,2.91c0.57,0.34,0.76,1.08,0.42,1.65l-2.91,4.89C373.06,550.63,372.32,550.82,371.75,550.48z
				"/>
			<path id="XMLID_6568_" fill="#FFFFFF" d="M380.19,555.54l-4.41-2.62c-0.7-0.42-0.94-1.33-0.52-2.03l2.62-4.41
				c0.42-0.7,1.33-0.94,2.03-0.52l4.41,2.62c0.7,0.42,0.94,1.33,0.52,2.03l-2.62,4.41C381.8,555.73,380.89,555.96,380.19,555.54z"/>
			<path id="XMLID_6567_" fill="#FFFFFF" d="M388.85,560.68l-4.41-2.62c-0.7-0.42-0.94-1.33-0.52-2.03l2.62-4.41
				c0.42-0.7,1.33-0.94,2.03-0.52l4.41,2.62c0.7,0.42,0.94,1.33,0.52,2.03l-2.62,4.41C390.46,560.87,389.55,561.1,388.85,560.68z"/>
			<path id="XMLID_6566_" fill="#FFFFFF" d="M397.51,565.83l-4.41-2.62c-0.7-0.42-0.94-1.33-0.52-2.03l2.62-4.41
				c0.42-0.7,1.33-0.94,2.03-0.52l4.41,2.62c0.7,0.42,0.94,1.33,0.52,2.03l-2.62,4.41C399.12,566.02,398.21,566.25,397.51,565.83z"
				/>
			<path id="XMLID_6565_" fill="#FFFFFF" d="M406.17,570.98l-4.41-2.62c-0.7-0.42-0.94-1.33-0.52-2.03l2.62-4.41
				c0.42-0.7,1.33-0.94,2.03-0.52l4.41,2.62c0.7,0.42,0.94,1.33,0.52,2.03l-2.62,4.41C407.78,571.16,406.87,571.39,406.17,570.98z"
				/>
			<path id="XMLID_6564_" fill="#FFFFFF" d="M420.05,579.22l-9.64-5.72c-0.7-0.42-0.94-1.33-0.52-2.03l2.62-4.41
				c0.42-0.7,1.33-0.94,2.03-0.52l9.64,5.72c0.7,0.42,0.94,1.33,0.52,2.03l-2.62,4.41C421.66,579.41,420.76,579.64,420.05,579.22z"
				/>
			<path id="XMLID_6563_" fill="#FFFFFF" d="M345.53,546.78l-4.41-2.62c-0.7-0.42-0.94-1.33-0.52-2.03l2.62-4.41
				c0.42-0.7,1.33-0.94,2.03-0.52l4.41,2.62c0.7,0.42,0.94,1.33,0.52,2.03l-2.62,4.41C347.14,546.97,346.23,547.2,345.53,546.78z"/>
			<path id="XMLID_6562_" fill="#FFFFFF" d="M354.19,551.92l-4.41-2.62c-0.7-0.42-0.94-1.33-0.52-2.03l2.62-4.41
				c0.42-0.7,1.33-0.94,2.03-0.52l4.41,2.62c0.7,0.42,0.94,1.33,0.52,2.03l-2.62,4.41C355.8,552.11,354.89,552.34,354.19,551.92z"/>
			<path id="XMLID_6561_" fill="#FFFFFF" d="M362.85,557.07l-4.41-2.62c-0.7-0.42-0.94-1.33-0.52-2.03l2.62-4.41
				c0.42-0.7,1.33-0.94,2.03-0.52l4.41,2.62c0.7,0.42,0.94,1.33,0.52,2.03l-2.62,4.41C364.46,557.26,363.55,557.49,362.85,557.07z"
				/>
			<path id="XMLID_6560_" fill="#FFFFFF" d="M371.49,562.16l-4.41-2.62c-0.7-0.42-0.94-1.33-0.52-2.03l2.62-4.41
				c0.42-0.7,1.33-0.94,2.03-0.52l4.41,2.62c0.7,0.42,0.94,1.33,0.52,2.03l-2.62,4.41C373.11,562.34,372.2,562.58,371.49,562.16z"/>
			<path id="XMLID_6559_" fill="#FFFFFF" d="M380.15,567.3l-4.41-2.62c-0.7-0.42-0.94-1.33-0.52-2.03l2.62-4.41
				c0.42-0.7,1.33-0.94,2.03-0.52l4.41,2.62c0.7,0.42,0.94,1.33,0.52,2.03l-2.62,4.41C381.77,567.49,380.86,567.72,380.15,567.3z"/>
			<path id="XMLID_6558_" fill="#FFFFFF" d="M388.81,572.45l-4.41-2.62c-0.7-0.42-0.94-1.33-0.52-2.03l2.62-4.41
				c0.42-0.7,1.33-0.94,2.03-0.52l4.41,2.62c0.7,0.42,0.94,1.33,0.52,2.03l-2.62,4.41C390.43,572.64,389.52,572.87,388.81,572.45z"
				/>
			<path id="XMLID_6557_" fill="#FFFFFF" d="M397.48,577.59l-4.41-2.62c-0.7-0.42-0.94-1.33-0.52-2.03l2.62-4.41
				c0.42-0.7,1.33-0.94,2.03-0.52l4.41,2.62c0.7,0.42,0.94,1.33,0.52,2.03l-2.62,4.41C399.09,577.78,398.18,578.01,397.48,577.59z"
				/>
			<path id="XMLID_6556_" fill="#FFFFFF" d="M406.14,582.74l-4.41-2.62c-0.7-0.42-0.94-1.33-0.52-2.03l2.62-4.41
				c0.42-0.7,1.33-0.94,2.03-0.52l4.41,2.62c0.7,0.42,0.94,1.33,0.52,2.03l-2.62,4.41C407.75,582.93,406.84,583.16,406.14,582.74z"
				/>
			<path id="XMLID_6555_" fill="#FFFFFF" d="M414.8,587.89l-4.41-2.62c-0.7-0.42-0.94-1.33-0.52-2.03l2.62-4.41
				c0.42-0.7,1.33-0.94,2.03-0.52l4.41,2.62c0.7,0.42,0.94,1.33,0.52,2.03l-2.62,4.41C416.41,588.07,415.5,588.3,414.8,587.89z"/>
			<path id="XMLID_6554_" fill="#FFFFFF" d="M331.7,550.34l-4.41-2.62c-0.7-0.42-0.94-1.33-0.52-2.03l2.62-4.41
				c0.42-0.7,1.33-0.94,2.03-0.52l4.41,2.62c0.7,0.42,0.94,1.33,0.52,2.03l-2.62,4.41C333.31,550.53,332.4,550.76,331.7,550.34z"/>
			<path id="XMLID_6553_" fill="#FFFFFF" d="M340.36,555.49l-4.41-2.62c-0.7-0.42-0.94-1.33-0.52-2.03l2.62-4.41
				c0.42-0.7,1.33-0.94,2.03-0.52l4.41,2.62c0.7,0.42,0.94,1.33,0.52,2.03l-2.62,4.41C341.97,555.68,341.06,555.91,340.36,555.49z"
				/>
			<path id="XMLID_6552_" fill="#FFFFFF" d="M375.34,576.28l-31.08-18.46c-0.52-0.31-0.69-0.97-0.38-1.49l3.03-5.09
				c0.31-0.52,0.97-0.69,1.49-0.38l31.08,18.46c0.52,0.31,0.69,0.97,0.38,1.49l-3.03,5.09
				C376.52,576.41,375.86,576.58,375.34,576.28z"/>
			<path id="XMLID_6551_" fill="#FFFFFF" d="M384,581.42l-5.09-3.03c-0.52-0.31-0.69-0.97-0.38-1.49l3.03-5.09
				c0.31-0.52,0.97-0.69,1.49-0.38l5.09,3.03c0.52,0.31,0.69,0.97,0.38,1.49l-3.03,5.09C385.18,581.56,384.52,581.73,384,581.42z"/>
			<path id="XMLID_6550_" fill="#FFFFFF" d="M392.66,586.57l-5.09-3.03c-0.52-0.31-0.69-0.97-0.38-1.49l3.03-5.09
				c0.31-0.52,0.97-0.69,1.49-0.38l5.09,3.03c0.52,0.31,0.69,0.97,0.38,1.49l-3.03,5.09C393.85,586.7,393.18,586.87,392.66,586.57z"
				/>
			<path id="XMLID_6549_" fill="#FFFFFF" d="M409.94,596.83l-13.71-8.15c-0.52-0.31-0.69-0.97-0.38-1.49l3.03-5.09
				c0.31-0.52,0.97-0.69,1.49-0.38l13.71,8.15c0.52,0.31,0.69,0.97,0.38,1.49l-3.03,5.09C411.12,596.97,410.46,597.14,409.94,596.83
				z"/>
			<path id="XMLID_6548_" fill="#FFFFFF" d="M336.6,529.59l-7.82-4.65c-0.57-0.34-0.76-1.08-0.42-1.65l2.91-4.89
				c0.34-0.57,1.08-0.76,1.65-0.42l7.82,4.65c0.57,0.34,0.76,1.08,0.42,1.65l-2.91,4.89C337.91,529.74,337.17,529.93,336.6,529.59z"
				/>
			<path id="XMLID_6547_" fill="#FFFFFF" d="M336.86,541.63l-13.03-7.74c-0.7-0.42-0.94-1.33-0.52-2.03l2.62-4.41
				c0.42-0.7,1.33-0.94,2.03-0.52l13.03,7.74c0.7,0.42,0.94,1.33,0.52,2.03l-2.62,4.41C338.48,541.82,337.57,542.05,336.86,541.63z"
				/>
			<path id="XMLID_6546_" fill="#FFFFFF" d="M323.03,545.2l-4.41-2.62c-0.7-0.42-0.94-1.33-0.52-2.03l2.62-4.41
				c0.42-0.7,1.33-0.94,2.03-0.52l4.41,2.62c0.7,0.42,0.94,1.33,0.52,2.03l-2.62,4.41C324.65,545.39,323.74,545.62,323.03,545.2z"/>
		</g>
		<g id="XMLID_6542_">
			
				<path id="XMLID_6544_" fill="#FFFFFF" stroke="#640917" stroke-width="2.6955" stroke-linecap="round" stroke-miterlimit="10" d="
				M325.74,414.78l-39.38-23.4c-4.1-2.43-5.45-7.73-3.01-11.83l39.23-66.03c2.43-4.1,7.73-5.45,11.83-3.01l39.38,23.4
				c4.1,2.43,5.45,7.73,3.01,11.83l-39.23,66.03C335.14,415.87,329.84,417.21,325.74,414.78z"/>
		</g>
		<path id="XMLID_6540_" fill="#DFF4F2" d="M326.48,401.5l-28.8-17.11c-3.69-2.19-4.91-6.97-2.71-10.66l30.84-51.9
			c2.19-3.69,6.97-4.91,10.66-2.71l28.8,17.11c3.69,2.19,4.91,6.97,2.71,10.66l-30.84,51.9
			C334.94,402.48,330.17,403.69,326.48,401.5z"/>
		
			<rect id="XMLID_6539_" x="315.14" y="314.48" transform="matrix(0.8597 0.5108 -0.5108 0.8597 223.208 -112.2853)" fill="#C0DDDA" width="1.72" height="71.35"/>
		<path id="XMLID_6538_" fill="#E25959" stroke="#640917" stroke-width="2.6955" stroke-linecap="round" stroke-miterlimit="10" d="
			M335.24,326.43l13.42,21.77c0.35,0.56-0.17,1.26-0.81,1.09l-14.51-3.96c-0.62-0.17-1.14,0.48-0.84,1.04l7.31,13.94
			c0.15,0.29,0.09,0.65-0.15,0.87l-6.75,6.28c-0.13,0.12-0.31,0.19-0.49,0.2l-14.87,0.14c-0.17,0-0.34,0.07-0.47,0.18l-15.13,13.18"
			/>
		<path id="XMLID_6537_" fill="#C0DDDA" d="M332.25,395.61l-0.37-0.22c-0.44-0.26-0.59-0.83-0.33-1.28l11.23-18.9
			c0.26-0.44,0.83-0.59,1.28-0.33l0.37,0.22c0.44,0.26,0.59,0.84,0.33,1.28l-11.23,18.9C333.27,395.73,332.7,395.87,332.25,395.61z"
			/>
		<path id="XMLID_6536_" fill="#C0DDDA" d="M328.31,393.27l-0.37-0.22c-0.44-0.26-0.59-0.83-0.33-1.28l11.23-18.9
			c0.26-0.44,0.84-0.59,1.28-0.33l0.37,0.22c0.44,0.26,0.59,0.84,0.33,1.28l-11.23,18.9C329.32,393.38,328.75,393.53,328.31,393.27z
			"/>
		<path id="XMLID_6535_" fill="#C0DDDA" d="M324.16,390.8l-0.37-0.22c-0.44-0.26-0.59-0.83-0.33-1.28l11.23-18.9
			c0.26-0.44,0.84-0.59,1.28-0.33l0.37,0.22c0.44,0.26,0.59,0.84,0.33,1.28l-11.23,18.9C325.17,390.92,324.6,391.06,324.16,390.8z"
			/>
		<g id="XMLID_6533_">
			
				<path id="XMLID_6534_" fill="#FFFFFF" stroke="#640917" stroke-width="2.6955" stroke-linecap="round" stroke-miterlimit="10" d="
				M596.25,502.93l-23.4,39.38c-2.43,4.1-7.73,5.45-11.83,3.01L495,506.1c-4.1-2.43-5.45-7.73-3.01-11.83l23.4-39.38
				c2.43-4.1,7.73-5.45,11.83-3.01l66.03,39.23C597.34,493.54,598.69,498.84,596.25,502.93z"/>
		</g>
		<path id="XMLID_6532_" fill="#64121A" d="M580.79,516.67c1.52,0.9,2.02,2.86,1.12,4.38c-0.9,1.52-2.86,2.02-4.38,1.12
			c-1.52-0.9-2.02-2.86-1.12-4.38C577.31,516.27,579.28,515.77,580.79,516.67z"/>
		<path id="XMLID_6531_" fill="#CDE0DF" d="M582.97,502.2L565.86,531c-2.19,3.69-6.97,4.91-10.66,2.71l-51.9-30.84
			c-3.69-2.19-4.91-6.97-2.71-10.66l17.11-28.8c2.19-3.69,6.97-4.91,10.66-2.71l51.9,30.84C583.95,493.73,585.17,498.5,582.97,502.2
			z"/>
		<path id="XMLID_6530_" fill="#E25959" d="M518.52,495.09l-0.37-0.22c-0.44-0.26-0.59-0.84-0.33-1.28l11.23-18.9
			c0.26-0.44,0.83-0.59,1.28-0.33l0.37,0.22c0.44,0.26,0.59,0.83,0.33,1.28l-11.23,18.9C519.53,495.2,518.96,495.35,518.52,495.09z"
			/>
		<path id="XMLID_6529_" fill="#E25959" d="M514.57,492.74l-0.37-0.22c-0.44-0.26-0.59-0.83-0.33-1.28l11.23-18.9
			c0.26-0.44,0.84-0.59,1.28-0.33l0.37,0.22c0.44,0.26,0.59,0.84,0.33,1.28l-11.23,18.9C515.58,492.86,515.01,493,514.57,492.74z"/>
		<path id="XMLID_6528_" fill="#E25959" d="M510.42,490.28l-0.37-0.22c-0.44-0.26-0.59-0.83-0.33-1.28l11.23-18.9
			c0.26-0.44,0.83-0.59,1.28-0.33l0.37,0.22c0.44,0.26,0.59,0.84,0.33,1.28l-11.23,18.9C511.44,490.4,510.87,490.54,510.42,490.28z"
			/>
		<path id="XMLID_6525_" fill="#FFFFFF" d="M527.42,513.39l-0.37-0.22c-0.44-0.26-0.59-0.84-0.33-1.28l20.75-34.93
			c0.26-0.44,0.84-0.59,1.28-0.33l0.37,0.22c0.44,0.26,0.59,0.83,0.33,1.28l-20.75,34.93C528.44,513.51,527.87,513.65,527.42,513.39
			z"/>
		<path id="XMLID_6522_" fill="#FFFFFF" d="M523.47,511.04l-0.37-0.22c-0.44-0.26-0.59-0.84-0.33-1.28l20.75-34.93
			c0.26-0.44,0.83-0.59,1.28-0.33l0.37,0.22c0.44,0.26,0.59,0.84,0.33,1.28l-20.75,34.93C524.49,511.16,523.92,511.31,523.47,511.04
			z"/>
		<path id="XMLID_6519_" fill="#FFFFFF" d="M519.33,508.58l-0.37-0.22c-0.44-0.26-0.59-0.84-0.33-1.28l20.75-34.93
			c0.26-0.44,0.84-0.59,1.28-0.33l0.37,0.22c0.44,0.26,0.59,0.84,0.33,1.28l-20.75,34.93C520.34,508.7,519.77,508.84,519.33,508.58z
			"/>
		<path id="XMLID_6499_" fill="#FFFFFF" d="M539.31,520.45l-0.37-0.22c-0.44-0.26-0.59-0.84-0.33-1.28l20.75-34.93
			c0.26-0.44,0.83-0.59,1.28-0.33l0.37,0.22c0.44,0.26,0.59,0.83,0.33,1.28l-20.75,34.93C540.32,520.57,539.75,520.71,539.31,520.45
			z"/>
		<path id="XMLID_6470_" fill="#FFFFFF" d="M535.36,518.1l-0.37-0.22c-0.44-0.26-0.59-0.83-0.33-1.28l20.75-34.93
			c0.26-0.44,0.84-0.59,1.28-0.33l0.37,0.22c0.44,0.26,0.59,0.84,0.33,1.28l-20.75,34.93C536.37,518.22,535.8,518.37,535.36,518.1z"
			/>
		<path id="XMLID_6434_" fill="#FFFFFF" d="M531.21,515.64l-0.37-0.22c-0.44-0.26-0.59-0.84-0.33-1.28l20.75-34.93
			c0.26-0.44,0.84-0.59,1.28-0.33l0.37,0.22c0.44,0.26,0.59,0.83,0.33,1.28l-20.75,34.93C532.23,515.76,531.65,515.9,531.21,515.64z
			"/>
		<path id="XMLID_6431_" fill="#FFFFFF" d="M551.36,527.61l-0.37-0.22c-0.44-0.26-0.59-0.83-0.33-1.28l20.75-34.93
			c0.26-0.44,0.84-0.59,1.28-0.33l0.37,0.22c0.44,0.26,0.59,0.84,0.33,1.28l-20.75,34.93C552.37,527.73,551.8,527.87,551.36,527.61z
			"/>
		<path id="XMLID_6428_" fill="#FFFFFF" d="M547.41,525.26l-0.37-0.22c-0.44-0.26-0.59-0.84-0.33-1.28l20.75-34.93
			c0.26-0.44,0.83-0.59,1.28-0.33l0.37,0.22c0.44,0.26,0.59,0.83,0.33,1.28l-20.75,34.93C548.42,525.38,547.85,525.53,547.41,525.26
			z"/>
		<path id="XMLID_6424_" fill="#FFFFFF" d="M559.5,532.45l-0.37-0.22c-0.44-0.26-0.59-0.83-0.33-1.28l20.75-34.93
			c0.26-0.44,0.83-0.59,1.28-0.33l0.37,0.22c0.44,0.26,0.59,0.83,0.33,1.28l-20.75,34.93C560.52,532.57,559.95,532.71,559.5,532.45z
			"/>
		<path id="XMLID_6421_" fill="#FFFFFF" d="M555.56,530.1l-0.37-0.22c-0.44-0.26-0.59-0.83-0.33-1.28l20.75-34.93
			c0.26-0.44,0.84-0.59,1.28-0.33l0.37,0.22c0.44,0.26,0.59,0.84,0.33,1.28l-20.75,34.93C556.57,530.22,556,530.37,555.56,530.1z"/>
		<path id="XMLID_6417_" fill="#FFFFFF" d="M543.26,522.8l-0.37-0.22c-0.44-0.26-0.59-0.84-0.33-1.28l20.75-34.93
			c0.26-0.44,0.84-0.59,1.28-0.33l0.37,0.22c0.44,0.26,0.59,0.83,0.33,1.28l-20.75,34.93C544.28,522.92,543.7,523.06,543.26,522.8z"
			/>
		<g id="XMLID_6412_">
			<g id="XMLID_6415_">
				
					<path id="XMLID_6416_" fill="#FFFFFF" stroke="#640917" stroke-width="2.6955" stroke-linecap="round" stroke-miterlimit="10" d="
					M358.76,299.67l9.07-15.27c1.13-1.9,3.59-2.53,5.5-1.4l35.83,21.29c1.9,1.13,2.53,3.59,1.4,5.5l-9.07,15.27
					c-1.13,1.9-3.59,2.53-5.5,1.4l-35.83-21.29C358.26,304.03,357.63,301.57,358.76,299.67z"/>
			</g>
			<path id="XMLID_6414_" fill="#CDE0DF" d="M367.48,302.1l6.65-11.2c0.99-1.67,3.15-2.22,4.82-1.23l26.55,15.77
				c1.67,0.99,2.22,3.15,1.23,4.82l-6.65,11.2c-0.99,1.67-3.15,2.22-4.82,1.23l-26.55-15.77
				C367.04,305.92,366.49,303.76,367.48,302.1z"/>
			<path id="XMLID_6413_" fill="#CDE0DF" d="M367.29,295.82c-0.64-0.38-0.85-1.21-0.47-1.85c0.38-0.64,1.21-0.85,1.85-0.47
				c0.64,0.38,0.85,1.21,0.47,1.85C368.76,295.99,367.93,296.2,367.29,295.82z"/>
		</g>
		<g id="XMLID_6400_">
			
				<path id="XMLID_6410_" fill="#E25959" stroke="#640917" stroke-width="2.6955" stroke-linecap="round" stroke-miterlimit="10" d="
				M473.86,264.63l39.38,23.4c4.1,2.43,5.45,7.73,3.01,11.83l-39.23,66.03c-2.43,4.1-7.73,5.45-11.83,3.01l-39.38-23.4
				c-4.1-2.43-5.45-7.73-3.01-11.83l39.23-66.03C464.46,263.54,469.76,262.2,473.86,264.63z"/>
			
				<path id="XMLID_6409_" fill="#E25959" stroke="#640917" stroke-width="2.6955" stroke-linecap="round" stroke-miterlimit="10" d="
				M528.08,296.85l39.38,23.4c4.1,2.43,5.45,7.73,3.01,11.83l-39.23,66.03c-2.43,4.1-7.73,5.45-11.83,3.01l-39.38-23.4
				c-4.1-2.43-5.45-7.73-3.01-11.83l39.23-66.03C518.68,295.76,523.98,294.41,528.08,296.85z"/>
			
				<rect id="XMLID_6406_" x="445.13" y="275.35" transform="matrix(-0.8597 -0.5108 0.5108 -0.8597 712.9704 826.2995)" fill="#FFFFFF" width="49.66" height="79.78"/>
			
				<rect id="XMLID_6403_" x="482.27" y="303.26" transform="matrix(-0.8597 -0.5108 0.5108 -0.8597 786.0957 902.2214)" fill="#FFFFFF" width="69.37" height="79.78"/>
			<path id="XMLID_6402_" fill="#63121B" d="M460.9,256.94l0.93,0.55c1.11,0.66,1.48,2.1,0.82,3.21l-26.06,43.87
				c-0.66,1.11-2.1,1.48-3.21,0.82l-0.93-0.55c-1.11-0.66-1.48-2.1-0.82-3.21l26.06-43.87C458.35,256.64,459.79,256.27,460.9,256.94
				z"/>
			<path id="XMLID_6401_" fill="#63121B" d="M430.71,305.92l0.86-4.13l4.91,2.92l-3.12,2.75
				C432.19,308.48,430.4,307.43,430.71,305.92z"/>
		</g>
		<path id="XMLID_6399_" fill="#CDE0DF" d="M523.94,387.33l-38-22.58c-0.67-0.4-0.9-1.27-0.5-1.95l0.34-0.57
			c0.4-0.67,1.27-0.9,1.95-0.5l38,22.58c0.67,0.4,0.9,1.27,0.5,1.95l-0.34,0.57C525.49,387.51,524.62,387.73,523.94,387.33z"/>
		<path id="XMLID_6398_" fill="#CDE0DF" d="M528.03,380.44l-38-22.58c-0.67-0.4-0.9-1.27-0.5-1.95l0.34-0.57
			c0.4-0.67,1.27-0.9,1.95-0.5l38,22.58c0.67,0.4,0.9,1.27,0.5,1.95l-0.34,0.57C529.58,380.62,528.71,380.84,528.03,380.44z"/>
		<path id="XMLID_6397_" fill="#CDE0DF" d="M531.87,373.98l-38-22.58c-0.67-0.4-0.9-1.27-0.5-1.95l0.34-0.57
			c0.4-0.67,1.27-0.9,1.95-0.5l38,22.58c0.67,0.4,0.9,1.27,0.5,1.95l-0.34,0.57C533.42,374.16,532.55,374.38,531.87,373.98z"/>
		<path id="XMLID_6396_" fill="#CDE0DF" d="M534.67,366.33l-38-22.58c-0.67-0.4-0.9-1.27-0.5-1.95l0.34-0.57
			c0.4-0.67,1.27-0.9,1.95-0.5l38,22.58c0.67,0.4,0.9,1.27,0.5,1.95l-0.34,0.57C536.22,366.51,535.35,366.73,534.67,366.33z"/>
		<path id="XMLID_6395_" fill="#CDE0DF" d="M535.96,367.09l-38-22.58c-0.67-0.4-0.9-1.27-0.5-1.95l0.34-0.57
			c0.4-0.67,1.27-0.9,1.95-0.5l38,22.58c0.67,0.4,0.9,1.27,0.5,1.95l-0.34,0.57C537.51,367.27,536.64,367.5,535.96,367.09z"/>
		<path id="XMLID_6394_" fill="#CDE0DF" d="M540.05,360.21l-38-22.58c-0.67-0.4-0.9-1.27-0.5-1.95l0.34-0.57
			c0.4-0.67,1.27-0.9,1.95-0.5l38,22.58c0.67,0.4,0.9,1.27,0.5,1.95l-0.34,0.57C541.6,360.39,540.73,360.61,540.05,360.21z"/>
		<path id="XMLID_6393_" fill="#CDE0DF" d="M543.89,353.75l-38-22.58c-0.67-0.4-0.9-1.27-0.5-1.95l0.34-0.57
			c0.4-0.67,1.27-0.9,1.95-0.5l38,22.58c0.67,0.4,0.9,1.27,0.5,1.95l-0.34,0.57C545.44,353.92,544.57,354.15,543.89,353.75z"/>
		<path id="XMLID_6392_" fill="#CDE0DF" d="M547.98,346.86l-38-22.58c-0.67-0.4-0.9-1.27-0.5-1.95l0.34-0.57
			c0.4-0.67,1.27-0.9,1.95-0.5l38,22.58c0.67,0.4,0.9,1.27,0.5,1.95l-0.34,0.57C549.53,347.04,548.66,347.26,547.98,346.86z"/>
		<path id="XMLID_6391_" fill="#CDE0DF" d="M472.51,356.77l-38-22.58c-0.67-0.4-0.9-1.27-0.5-1.95l0.34-0.57
			c0.4-0.67,1.27-0.9,1.95-0.5l38,22.58c0.67,0.4,0.9,1.27,0.5,1.95l-0.34,0.57C474.06,356.95,473.19,357.17,472.51,356.77z"/>
		<path id="XMLID_6390_" fill="#CDE0DF" d="M476.6,349.89l-38-22.58c-0.67-0.4-0.9-1.27-0.5-1.95l0.34-0.57
			c0.4-0.67,1.27-0.9,1.95-0.5l38,22.58c0.67,0.4,0.9,1.27,0.5,1.95l-0.34,0.57C478.15,350.07,477.28,350.29,476.6,349.89z"/>
		<path id="XMLID_6388_" fill="#CDE0DF" d="M480.44,343.42l-38-22.58c-0.67-0.4-0.9-1.27-0.5-1.95l0.34-0.57
			c0.4-0.67,1.27-0.9,1.95-0.5l38,22.58c0.67,0.4,0.9,1.27,0.5,1.95l-0.34,0.57C481.99,343.6,481.12,343.82,480.44,343.42z"/>
		<path id="XMLID_6387_" fill="#CDE0DF" d="M484.53,336.54l-38-22.58c-0.67-0.4-0.9-1.27-0.5-1.95l0.34-0.57
			c0.4-0.67,1.27-0.9,1.95-0.5l38,22.58c0.67,0.4,0.9,1.27,0.5,1.95l-0.34,0.57C486.08,336.72,485.21,336.94,484.53,336.54z"/>
		<path id="XMLID_6386_" fill="#CDE0DF" d="M488.62,329.65l-38-22.58c-0.67-0.4-0.9-1.27-0.5-1.95l0.34-0.57
			c0.4-0.67,1.27-0.9,1.95-0.5l38,22.58c0.67,0.4,0.9,1.27,0.5,1.95l-0.34,0.57C490.17,329.83,489.3,330.06,488.62,329.65z"/>
		<path id="XMLID_6385_" fill="#CDE0DF" d="M492.46,323.19l-38-22.58c-0.67-0.4-0.9-1.27-0.5-1.95l0.34-0.57
			c0.4-0.67,1.27-0.9,1.95-0.5l38,22.58c0.67,0.4,0.9,1.27,0.5,1.95l-0.34,0.57C494.01,323.37,493.14,323.59,492.46,323.19z"/>
		<path id="XMLID_6279_" fill="#CDE0DF" d="M496.55,316.31l-38-22.58c-0.67-0.4-0.9-1.27-0.5-1.95l0.34-0.56
			c0.4-0.67,1.27-0.9,1.95-0.5l38,22.58c0.67,0.4,0.9,1.27,0.5,1.95l-0.34,0.57C498.1,316.48,497.23,316.71,496.55,316.31z"/>
		<g id="XMLID_4720_">
			<path id="XMLID_4740_" fill="#EF8A25" d="M270.92,492.98l-7.21-4.29c-1.55-0.92-2.06-2.93-1.14-4.48l0.77-1.3
				c0.92-1.55,2.93-2.06,4.48-1.14l7.21,4.29L270.92,492.98z"/>
			
				<ellipse id="XMLID_4739_" transform="matrix(0.8494 -0.5278 0.5278 0.8494 -219.2615 227.2485)" fill="#EF8A25" cx="288.52" cy="497.78" rx="19.09" ry="19.09"/>
			
				<ellipse id="XMLID_4721_" transform="matrix(0.9691 -0.2467 0.2467 0.9691 -113.8944 86.5724)" fill="#EF8A25" cx="288.52" cy="497.78" rx="13.67" ry="13.67"/>
		</g>
		<g id="XMLID_4652_">
			<path id="XMLID_4658_" fill="#EF8A25" d="M396.95,253.32l-7.21-4.29c-1.55-0.92-2.06-2.93-1.14-4.48l0.77-1.3
				c0.92-1.55,2.93-2.06,4.48-1.14l7.21,4.29L396.95,253.32z"/>
			
				<ellipse id="XMLID_4657_" transform="matrix(0.5877 -0.8091 0.8091 0.5877 -37.9135 441.8374)" fill="#EF8A25" cx="414.55" cy="258.12" rx="19.09" ry="19.09"/>
			<path id="XMLID_4654_" fill="#EF8A25" d="M426.3,265.1c-3.86,6.49-12.24,8.62-18.73,4.77c-6.49-3.86-8.62-12.24-4.77-18.73
				c3.86-6.49,12.24-8.62,18.73-4.77C428.02,250.22,430.16,258.61,426.3,265.1z"/>
		</g>
		<g id="XMLID_4615_">
			<path id="XMLID_4651_" fill="#E6F4F3" stroke="#640917" stroke-width="2.6955" stroke-miterlimit="10" d="M264.2,488.99
				l-7.21-4.29c-1.55-0.92-2.06-2.93-1.14-4.48l0.77-1.3c0.92-1.55,2.93-2.06,4.48-1.14l7.21,4.29L264.2,488.99z"/>
			
				<ellipse id="XMLID_4630_" transform="matrix(0.38 -0.925 0.925 0.38 -282.0342 566.7898)" fill="#E6F4F3" stroke="#640917" stroke-width="2.6955" stroke-miterlimit="10" cx="281.8" cy="493.79" rx="19.09" ry="19.09"/>
			<path id="XMLID_4629_" fill="#63121B" d="M293.55,500.77c-3.86,6.49-12.24,8.62-18.73,4.77c-6.49-3.86-8.62-12.24-4.77-18.73
				c3.86-6.49,12.24-8.62,18.73-4.77C295.27,485.89,297.4,494.28,293.55,500.77z"/>
		</g>
		<g id="XMLID_4600_">
			<path id="XMLID_4612_" fill="#E6F4F3" stroke="#640917" stroke-width="2.6955" stroke-miterlimit="10" d="M593.28,421.16
				l4.29-7.21c0.92-1.55,2.93-2.06,4.48-1.14l1.3,0.77c1.55,0.92,2.06,2.93,1.14,4.48l-4.29,7.21L593.28,421.16z"/>
			
				<ellipse id="XMLID_4606_" transform="matrix(0.4401 -0.898 0.898 0.4401 -64.4879 774.1096)" fill="#E6F4F3" stroke="#640917" stroke-width="2.6955" stroke-miterlimit="10" cx="588.48" cy="438.76" rx="19.09" ry="19.09"/>
			
				<ellipse id="XMLID_4603_" transform="matrix(0.9256 -0.3785 0.3785 0.9256 -122.2868 255.3707)" fill="#63121B" cx="588.48" cy="438.76" rx="13.67" ry="13.67"/>
		</g>
		<g id="XMLID_4591_">
			<path id="XMLID_4597_" fill="#CDE0DF" stroke="#640917" stroke-width="2.6955" stroke-miterlimit="10" d="M396.07,269.34
				c-9.06-5.38-12.04-17.1-6.66-26.16c5.38-9.06,17.1-12.04,26.16-6.66c9.06,5.38,12.04,17.1,6.66,26.16
				C416.85,271.74,405.14,274.72,396.07,269.34z"/>
			
				<ellipse id="XMLID_4594_" transform="matrix(0.1864 -0.9825 0.9825 0.1864 81.6787 604.4933)" fill="#FFFFFF" cx="405.82" cy="252.93" rx="13.67" ry="13.67"/>
		</g>
	</g>
	<path id="XMLID_4518_" opacity="0.32" fill="#63121B" d="M456.04,685.79h-3.88c-0.44-3.13-3.11-5.55-6.36-5.55
		c-3.25,0-5.92,2.43-6.36,5.55h-6.04c-4.3,0-8.46,0.55-12.45,1.58c15.46,1.29,30.97,1.17,46.33-0.3
		C463.67,686.22,459.91,685.79,456.04,685.79z M456.04,685.79h-3.88c-0.44-3.13-3.11-5.55-6.36-5.55c-3.25,0-5.92,2.43-6.36,5.55
		h-6.04c-4.3,0-8.46,0.55-12.45,1.58c15.46,1.29,30.97,1.17,46.33-0.3C463.67,686.22,459.91,685.79,456.04,685.79z M690.2,438.75
		l-186.63-5.94c-0.36-0.31-0.73-0.58-1.09-0.85c0.28-1.17,0.51-2.4,0.7-3.68l1-0.98l0.98-0.9l-0.03-0.04l1.43-1.4l2.7,2.75
		l4.49-4.39l3.68,3.75l141.97-139.33c-20.85-31.6-49-59.11-83.72-79.73c-19.62-11.66-40.16-20.42-61.12-26.4l-69.38,201.36l4.96,1.7
		l-2.05,5.94l3.65,1.25l-1.55,4.49c-0.74,0.49-1.46,1-2.13,1.52c-1.78-4.18-3.54-6.48-6.75-8.57l-1.67-4.84l3.48-1.05l-60.92-175.1
		c-0.2-7.95-2.56-15.71-6.83-22.48c-0.89-1.42-1.86-2.76-2.9-4.06c-61.09,17.51-115.89,57.44-150.92,116.39
		c-0.27,0.46-0.55,0.93-0.81,1.39c2.74,2.29,5.77,4.26,9.02,5.84l152.4,125.82l2.71-3.58l2.25,1.82c0.13,0.62,0.31,1.23,0.5,1.79
		c-0.89,0.67-1.78,1.42-2.65,2.21l-4.73,0.4l-0.32-3.84l-6.25,0.54l-0.44-5.23l-187.63,16.09c2.61,57.29,24.27,112.97,62.41,157.31
		l152.83-93.38l-2.74-4.47l5.35-3.27l-2.01-3.29l4.04-2.48c1.36,0.15,2.68,0.23,3.95,0.23c1.82,0,3.54-0.15,5.22-0.4
		c-0.22,4.92,0.57,9.88,2.9,15.26l-1.13,4.6l-3.75-0.93l-1.51,6.11l-5.09-1.27l-39.99,161.27c13.88,4.34,28.02,7.44,42.25,9.33
		l38.8-159l0.32-1.31l-1.56-0.39l0.18-0.7l0.01,0.01l1.06-4.26l0.13-0.66l0.12-0.49h-0.01l0.7-3.17l0.74-0.58l0.47,2.47l-0.01,0.01
		l0.12,0.51l0.13,0.67l0.94,4.23h0.03l0.15,0.7l-1.56,0.36l35.26,160.45c14.25-2.32,28.29-5.81,41.98-10.43l-35.62-159.36
		l-5.12,1.15l-1.37-6.13l-3.76,0.85l-1.04-4.62c1.39-3.02,2.29-5.92,2.79-8.76c0.78,0.05,1.59,0.05,2.45-0.01l1.9,1.27l9.38,6.28
		l134.54,89.99c1.01,3.14,2.44,6.13,4.26,8.89c11.55-12.63,22.01-26.59,31.11-41.83c23.9-40.01,35.65-83.88,36.38-127.37
		C697.98,435.38,693.91,436.73,690.2,438.75z M384.75,467.05l-0.42,0.24l-0.63,0.38l-3.71,2.26l0.01,0.01l-0.62,0.38l-0.84-1.37
		l-150.55,91.24c3.64-10.51,3.69-21.86,0.05-32.56l-1.6-4.7c1.24-0.62,2.26-1.6,2.88-2.88c0.77-1.55,0.88-3.3,0.32-4.93
		c-0.57-1.63-1.73-2.94-3.26-3.71c-1.28-0.62-2.68-0.78-4.06-0.51l-1.6-4.7c-3.19-9.38-8.92-17.2-16.15-22.98l172.23-15.4l-0.13-1.6
		l0.71-0.05v0.01l4.37-0.38l0.67-0.07l0.5-0.04v-0.01l3.22-0.36l0.78,0.51L384.75,467.05z M410.91,404.81c0,0,0,0,0,0.01l-0.47,1.33
		l-5.22-0.04l-2.52-2.04l1.98-2.61l-121.13-99.19c2.45,0.38,4.95,0.58,7.44,0.58c9.18,0,18.46-2.51,26.78-7.76l4.18-2.64
		c1.24,1.48,3.07,2.28,4.92,2.28c1.19,0,2.37-0.31,3.44-1c1.46-0.92,2.47-2.35,2.86-4.03c0.31-1.39,0.13-2.79-0.44-4.06l4.19-2.65
		c11.5-7.26,19.03-18.45,21.98-30.73l48.52,141.93l3.95-1.2l1.85,5.36L410.91,404.81z M488.68,397.75l-0.51,0.5l-0.01-0.01
		l-3.13,3.06l-0.5,0.51l-0.32,0.34l-2.22,2.3l-0.94,0.11l0.88-2.33l0.01,0.01l0.16-0.49l0.24-0.66l1.42-4.11h-0.01l0.23-0.69
		l1.52,0.53l57.97-166.23c3.9,10.42,11.08,19.21,20.7,25.14l4.23,2.6c-1.27,2.9-0.27,6.36,2.51,8.07c1.02,0.63,2.18,0.96,3.37,0.96
		c0.5,0,1-0.07,1.5-0.18c1.39-0.34,2.57-1.11,3.46-2.18l4.22,2.6c8.03,4.95,17.06,7.48,26.27,7.48c0.26,0,0.53-0.01,0.8-0.03
		L487.56,396.59L488.68,397.75z M635.88,496.74l-1.21,3.22c-0.39,0.13-0.78,0.27-1.17,0.44c-2.32,1.05-4.08,2.94-4.97,5.32
		c-0.89,2.37-0.8,4.96,0.26,7.28c0.18,0.38,0.38,0.74,0.61,1.09l-2.01,5.35c-4.8,12.82-4.35,26.35,0.24,38.21l-126.08-84.33
		l-1.56-4.91c-0.04-0.18-0.09-0.36-0.18-0.57l-0.04-0.12l-0.3-0.93l-0.43-1.36c0.01-0.01,0.03-0.03,0.05-0.04l4.12-3.09l159.29,5.08
		C650.64,473.24,640.87,483.41,635.88,496.74z M452.16,685.79c-0.44-3.13-3.11-5.55-6.36-5.55c-3.25,0-5.92,2.43-6.36,5.55h-6.04
		c-4.3,0-8.46,0.55-12.45,1.58c15.46,1.29,30.97,1.17,46.33-0.3c-3.61-0.85-7.37-1.28-11.24-1.28H452.16z M456.04,685.79h-3.88
		c-0.44-3.13-3.11-5.55-6.36-5.55c-3.25,0-5.92,2.43-6.36,5.55h-6.04c-4.3,0-8.46,0.55-12.45,1.58c15.46,1.29,30.97,1.17,46.33-0.3
		C463.67,686.22,459.91,685.79,456.04,685.79z"/>
	<g id="XMLID_4419_">
		<g id="XMLID_4441_">
			<g id="XMLID_4513_">
				
					<path id="XMLID_4515_" fill="#FCD3B6" stroke="#640917" stroke-width="2.6955" stroke-linecap="round" stroke-miterlimit="10" d="
					M491.89,455.22c1.22-0.54,4.32-2.63,4.6-4.04l0.48-3.83c0.57-2.83,6.17-3.02,5-5.66l-1.21-3.78
					c-1.79-5.62-5.44-10.46-10.34-13.73c-0.19-0.12-0.36-0.24-0.51-0.34l-11.11-7.38c-1.95-1.29-4.63-0.88-5.96,1.04
					c-1.36,1.96-0.83,4.64,1.14,5.95l12.55,8.34l3.77,8.5l-2.04,10.16c-0.46,2.29,0.97,4.55,3.25,5.09
					C492.34,455.73,491.1,455.57,491.89,455.22z"/>
			</g>
			
				<path id="XMLID_4512_" fill="#FCD3B6" stroke="#640917" stroke-width="2.6955" stroke-linecap="round" stroke-miterlimit="10" d="
				M501.61,440.56l2.22,6.98l185.12,123.82l-14.98,22.25L488.43,469.51l0,0c-5.13,0.48-8.19-0.97-15.02-5.57l-20.22-13.61
				l19.01-28.24l14.36,9.66"/>
			
				<path id="XMLID_4511_" fill="#FCD3B6" stroke="#640917" stroke-width="2.6955" stroke-linecap="round" stroke-miterlimit="10" d="
				M476.66,425.09l-29.97-20.17c-1.95-1.31-4.59-0.8-5.91,1.15l0,0c-1.31,1.95-0.8,4.59,1.15,5.91l28.89,19.45"/>
			
				<path id="XMLID_4508_" fill="#FCD3B6" stroke="#640917" stroke-width="2.6955" stroke-linecap="round" stroke-miterlimit="10" d="
				M468.88,430.14l-29.97-20.17c-1.95-1.31-4.59-0.8-5.91,1.15l0,0c-1.31,1.95-0.8,4.59,1.15,5.91l29.97,20.17"/>
			
				<path id="XMLID_4502_" fill="#FCD3B6" stroke="#640917" stroke-width="2.6955" stroke-linecap="round" stroke-miterlimit="10" d="
				M466.06,438.53l-29.97-20.17c-1.95-1.31-4.59-0.8-5.91,1.15l0,0c-1.31,1.95-0.8,4.59,1.15,5.91l29.97,20.17"/>
			
				<path id="XMLID_4490_" fill="#FCD3B6" stroke="#640917" stroke-width="2.6955" stroke-linecap="round" stroke-miterlimit="10" d="
				M461.33,445.56l-24.51-16.5c-1.95-1.31-4.59-0.8-5.91,1.15l0,0c-1.31,1.95-0.8,4.59,1.15,5.91l29.97,20.17"/>
			<path id="XMLID_4447_" opacity="0.13" fill="#640917" d="M472.18,418.47l0,3.6l16.99,11.44l0,0c0.92-1.38,0.56-3.24-0.82-4.17
				L472.18,418.47z"/>
			<path id="XMLID_4446_" fill="#E25959" d="M446.52,410.44l0.55-0.82c0.66-0.97,0.4-2.29-0.58-2.95l-2.57-1.73
				c-0.97-0.66-2.29-0.4-2.95,0.58l-0.55,0.82c-0.66,0.97-0.4,2.29,0.58,2.95l2.57,1.73C444.54,411.67,445.86,411.41,446.52,410.44z
				"/>
			<path id="XMLID_4445_" fill="#E25959" d="M438.79,415.63l0.55-0.82c0.66-0.97,0.4-2.29-0.58-2.95l-2.57-1.73
				c-0.97-0.66-2.29-0.4-2.95,0.58l-0.55,0.82c-0.66,0.97-0.4,2.29,0.58,2.95l2.57,1.73C436.82,416.86,438.14,416.6,438.79,415.63z"
				/>
			<path id="XMLID_4444_" fill="#E25959" d="M436.01,424.03l0.55-0.82c0.66-0.97,0.4-2.29-0.58-2.95l-2.57-1.73
				c-0.97-0.66-2.29-0.4-2.95,0.58l-0.55,0.82c-0.66,0.97-0.4,2.29,0.58,2.95l2.57,1.73C434.03,425.27,435.35,425.01,436.01,424.03z
				"/>
			<path id="XMLID_4443_" fill="#E25959" d="M436.73,434.74l0.55-0.82c0.66-0.97,0.4-2.29-0.58-2.95l-2.57-1.73
				c-0.97-0.66-2.29-0.4-2.95,0.58l-0.55,0.82c-0.66,0.97-0.4,2.29,0.58,2.95l2.57,1.73C434.76,435.98,436.08,435.72,436.73,434.74z
				"/>
			<path id="XMLID_4442_" fill="#E25959" d="M481.37,420.59l1.15-1.72l-5.97-4.01l-0.22,0.32c-0.52,0.77-0.31,1.81,0.46,2.33
				L481.37,420.59z"/>
		</g>
		<g id="XMLID_4427_">
			<g id="XMLID_4439_">
				
					<path id="XMLID_4440_" fill="#FCD3B6" stroke="#640917" stroke-width="2.6955" stroke-linecap="round" stroke-miterlimit="10" d="
					M500.97,421.12c0.68,1.15,1.98,4.66,1.39,5.96l-1.84,3.39c-1.19,2.63,3.26,6.05,0.77,7.51l-3.18,2.37
					c-4.73,3.52-10.51,5.34-16.41,5.14c-0.22-0.01-0.43-0.01-0.61-0.02l-13.33-0.46c-2.34-0.08-4.28-1.98-4.24-4.32
					c0.04-2.38,2.02-4.26,4.39-4.18l15.06,0.52l8.02-4.72l4.26-9.45c0.96-2.13,3.44-3.14,5.6-2.24
					C501.64,420.96,500.53,420.37,500.97,421.12z"/>
			</g>
			
				<path id="XMLID_4438_" fill="#FCD3B6" stroke="#640917" stroke-width="2.6955" stroke-linecap="round" stroke-miterlimit="10" d="
				M500.35,438.69l5.87-4.38l222.6,7.1l0.78-26.81l-223.11-7.11l0,0c-3.89-3.37-7.22-3.98-15.46-4.22l-24.36-0.71l-0.99,34.03
				l17.3,0.5"/>
			
				<path id="XMLID_4437_" fill="#FCD3B6" stroke="#640917" stroke-width="2.6955" stroke-linecap="round" stroke-miterlimit="10" d="
				M471.04,436.74l-36.11-1.05c-2.35-0.07-4.2-2.03-4.13-4.38l0,0c0.07-2.35,2.03-4.2,4.38-4.13L470,428.2"/>
			
				<path id="XMLID_4436_" fill="#FCD3B6" stroke="#640917" stroke-width="2.6955" stroke-linecap="round" stroke-miterlimit="10" d="
				M467.67,428.11l-36.11-1.05c-2.35-0.07-4.2-2.03-4.13-4.38l0,0c0.07-2.35,2.03-4.2,4.38-4.13l36.11,1.05"/>
			
				<path id="XMLID_4435_" fill="#FCD3B6" stroke="#640917" stroke-width="2.6955" stroke-linecap="round" stroke-miterlimit="10" d="
				M470.25,419.65l-36.11-1.05c-2.35-0.07-4.2-2.03-4.13-4.38l0,0c0.07-2.35,2.03-4.2,4.38-4.13l36.11,1.05"/>
			
				<path id="XMLID_4434_" fill="#FCD3B6" stroke="#640917" stroke-width="2.6955" stroke-linecap="round" stroke-miterlimit="10" d="
				M470.5,411.17l-29.53-0.85c-2.35-0.07-4.2-2.03-4.13-4.38l0,0c0.07-2.35,2.03-4.2,4.38-4.13l36.11,1.05"/>
			<path id="XMLID_4433_" opacity="0.13" fill="#640917" d="M463.55,439.51l2.1-2.93l20.47,0.59l0,0c-0.05,1.66-1.43,2.96-3.09,2.91
				L463.55,439.51z"/>
			<path id="XMLID_4432_" fill="#E25959" d="M438.01,431.11l-0.03,0.98c-0.03,1.17-1.01,2.1-2.19,2.06l-3.1-0.09
				c-1.17-0.03-2.1-1.01-2.06-2.19l0.03-0.98c0.03-1.17,1.01-2.1,2.19-2.06l3.1,0.09C437.12,428.96,438.04,429.94,438.01,431.11z"/>
			<path id="XMLID_4431_" fill="#E25959" d="M434.75,422.39l-0.03,0.98c-0.03,1.17-1.01,2.1-2.19,2.06l-3.1-0.09
				c-1.17-0.03-2.1-1.01-2.06-2.19l0.03-0.98c0.03-1.17,1.01-2.1,2.19-2.06l3.1,0.09C433.86,420.24,434.78,421.22,434.75,422.39z"/>
			<path id="XMLID_4430_" fill="#E25959" d="M437.38,413.94l-0.03,0.98c-0.03,1.17-1.01,2.1-2.19,2.06l-3.1-0.09
				c-1.17-0.03-2.1-1.01-2.06-2.19l0.03-0.98c0.03-1.17,1.01-2.1,2.19-2.06l3.1,0.09C436.49,411.78,437.42,412.76,437.38,413.94z"/>
			<path id="XMLID_4429_" fill="#E25959" d="M444.2,405.65l-0.03,0.98c-0.03,1.17-1.01,2.1-2.19,2.06l-3.1-0.09
				c-1.17-0.03-2.1-1.01-2.06-2.19l0.03-0.98c0.03-1.17,1.01-2.1,2.19-2.06l3.1,0.09C443.31,403.5,444.24,404.48,444.2,405.65z"/>
			<path id="XMLID_4428_" fill="#E25959" d="M472.26,443.15l-0.06,2.07l-7.19-0.21l0.01-0.39c0.03-0.93,0.8-1.66,1.73-1.63
				L472.26,443.15z"/>
		</g>
		<polygon id="XMLID_4426_" fill="#FFD671" stroke="#640917" stroke-width="2.6955" stroke-miterlimit="10" points="491.87,471.8 
			507.33,449.88 514.16,454.45 498.99,476.57 		"/>
		<path id="XMLID_4425_" fill="#FFFFFF" stroke="#640917" stroke-width="2.6955" stroke-linecap="round" stroke-miterlimit="10" d="
			M508.61,465.19c-1.07,2.85-4.24,4.29-7.09,3.23c-2.85-1.07-4.29-4.24-3.23-7.09c1.07-2.85,4.24-4.29,7.09-3.23
			C508.23,459.17,509.68,462.34,508.61,465.19z"/>
		<path id="XMLID_4424_" fill="#FFFFFF" stroke="#640917" stroke-width="2.6955" stroke-linecap="round" stroke-miterlimit="10" d="
			M663.68,592.86L663.68,592.86c-22.19-8.31-33.44-33.03-25.14-55.22l36.84-98.4c8.31-22.19,33.03-33.44,55.22-25.14h0
			c22.19,8.31,33.44,33.03,25.14,55.22l-36.84,98.4C710.59,589.91,685.87,601.17,663.68,592.86z"/>
		<path id="XMLID_4423_" fill="#FCD3B6" stroke="#640917" stroke-width="2.6393" stroke-linecap="round" stroke-miterlimit="10" d="
			M742.75,518.83L742.75,518.83c11.97-31.99-4.25-67.62-36.23-79.6l-5-1.87c-31.99-11.97-67.62,4.25-79.6,36.23v0
			c-11.98,31.99,4.25,67.62,36.23,79.6l5,1.87C695.14,567.04,730.78,550.82,742.75,518.83z"/>
		<path id="XMLID_4422_" fill="#63121B" d="M725.77,443.59l-18.38-6.88c-23.53-8.81-49.75,3.12-58.56,26.66l-14.06,37.54
			c-8.41,22.47,2.98,47.5,25.45,55.91l20.31,7.6c33.37,12.49,70.54-4.43,83.03-37.8v0C776.06,493.26,759.13,456.08,725.77,443.59z"
			/>
		<path fill="#531019" d="M767.68,504.01c0,7.51-1.33,15.16-4.12,22.61c-12.49,33.37-49.66,50.29-83.03,37.8l-20.31-7.6
			c-18.84-7.05-29.9-25.81-28.01-44.93c3.45,13.18,13.04,24.54,26.78,29.68l20.28,7.6c33.34,12.48,70.48-4.43,82.96-37.76
			c2.54-6.79,3.87-13.74,4.07-20.6C767.21,495.12,767.68,499.54,767.68,504.01z"/>
		<path id="XMLID_4421_" fill="#FCD3B6" stroke="#640917" stroke-width="2.6955" stroke-linecap="round" stroke-miterlimit="10" d="
			M626.36,482.77l-2.76-1.03c-4.22-1.58-6.36-6.29-4.78-10.51v0c1.58-4.22,6.29-6.36,10.51-4.78l2.63,0.99"/>
		<path id="XMLID_4420_" fill="#63121B" d="M716.01,439.94l-33.72-12.62c-18.52-6.93-38.71,5.03-41.51,24.61l-8.48,59.13l24.19,9.06
			l40.73-41.13L716.01,439.94"/>
	</g>
	<g id="XMLID_4373_">
		<g id="XMLID_4402_">
			<g id="XMLID_4417_">
				
					<path id="XMLID_4418_" fill="#FCD3B6" stroke="#640917" stroke-width="2.6955" stroke-linecap="round" stroke-miterlimit="10" d="
					M432.21,372.82c-1.3-0.31-5.03-0.51-6.11,0.44l-2.7,2.76c-2.16,1.91-6.74-1.32-7.4,1.49l-1.32,3.74
					c-1.96,5.56-1.99,11.62-0.06,17.19c0.07,0.21,0.14,0.41,0.2,0.58l4.39,12.59c0.77,2.21,3.16,3.5,5.38,2.77
					c2.26-0.74,3.47-3.19,2.69-5.43l-4.95-14.23l2.13-9.05l7.76-6.87c1.75-1.55,1.98-4.21,0.49-6.01
					C432.17,372.14,433.06,373.02,432.21,372.82z"/>
			</g>
			
				<path id="XMLID_4416_" fill="#FCD3B6" stroke="#640917" stroke-width="2.6955" stroke-linecap="round" stroke-miterlimit="10" d="
				M415.62,378.62l2.44-6.9L345.4,161.19l25.38-8.68l72.83,211.01l0,0c4.37,2.72,5.94,5.72,8.61,13.51l7.89,23.06l-32.21,11.02
				l-5.6-16.38"/>
			
				<path id="XMLID_4415_" fill="#FCD3B6" stroke="#640917" stroke-width="2.6955" stroke-linecap="round" stroke-miterlimit="10" d="
				M426.15,406.03l11.69,34.18c0.76,2.22,3.18,3.41,5.4,2.65l0,0c2.22-0.76,3.41-3.18,2.65-5.4l-11.27-32.96"/>
			
				<path id="XMLID_4414_" fill="#FCD3B6" stroke="#640917" stroke-width="2.6955" stroke-linecap="round" stroke-miterlimit="10" d="
				M435.4,406.7l11.69,34.18c0.76,2.22,3.18,3.41,5.4,2.65l0,0c2.22-0.76,3.41-3.18,2.65-5.4l-11.69-34.18"/>
			
				<path id="XMLID_4413_" fill="#FCD3B6" stroke="#640917" stroke-width="2.6955" stroke-linecap="round" stroke-miterlimit="10" d="
				M442.71,401.73l11.69,34.18c0.76,2.22,3.18,3.41,5.4,2.65l0,0c2.22-0.76,3.41-3.18,2.65-5.4l-11.69-34.18"/>
			
				<path id="XMLID_4412_" fill="#FCD3B6" stroke="#640917" stroke-width="2.6955" stroke-linecap="round" stroke-miterlimit="10" d="
				M450.74,398.98l9.56,27.95c0.76,2.22,3.18,3.41,5.4,2.65l0,0c2.22-0.76,3.41-3.18,2.65-5.4L456.66,390"/>
			<path id="XMLID_4411_" opacity="0.13" fill="#640917" d="M425.72,414l2.18-2.87l-6.63-19.38l0,0c-1.57,0.54-2.4,2.24-1.87,3.81
				L425.72,414z"/>
			<path id="XMLID_4410_" fill="#E25959" d="M441.31,435.92l-0.93,0.32c-1.11,0.38-1.7,1.59-1.32,2.7l1,2.93
				c0.38,1.11,1.59,1.7,2.7,1.32l0.93-0.32c1.11-0.38,1.7-1.59,1.32-2.7l-1-2.93C443.62,436.13,442.42,435.54,441.31,435.92z"/>
			<path id="XMLID_4409_" fill="#E25959" d="M450.6,436.45l-0.93,0.32c-1.11,0.38-1.7,1.59-1.32,2.7l1,2.93
				c0.38,1.11,1.59,1.7,2.7,1.32l0.93-0.32c1.11-0.38,1.7-1.59,1.32-2.7l-1-2.93C452.92,436.66,451.71,436.07,450.6,436.45z"/>
			<path id="XMLID_4408_" fill="#E25959" d="M457.9,431.43l-0.93,0.32c-1.11,0.38-1.7,1.59-1.32,2.7l1,2.93
				c0.38,1.11,1.59,1.7,2.7,1.32l0.93-0.32c1.11-0.38,1.7-1.59,1.32-2.7l-1-2.93C460.21,431.65,459.01,431.05,457.9,431.43z"/>
			<path id="XMLID_4404_" fill="#E25959" d="M463.79,422.46l-0.93,0.32c-1.11,0.38-1.7,1.59-1.32,2.7l1,2.93
				c0.38,1.11,1.59,1.7,2.7,1.32l0.93-0.32c1.11-0.38,1.7-1.59,1.32-2.7l-1-2.93C466.11,422.68,464.9,422.08,463.79,422.46z"/>
			<path id="XMLID_4403_" fill="#E25959" d="M419.67,406.77l-1.96,0.67l2.33,6.81l0.37-0.13c0.88-0.3,1.35-1.26,1.04-2.13
				L419.67,406.77z"/>
		</g>
		<g id="XMLID_4383_">
			<g id="XMLID_4395_">
				
					<path id="XMLID_4396_" fill="#FCD3B6" stroke="#640917" stroke-width="2.6955" stroke-linecap="round" stroke-miterlimit="10" d="
					M404.38,394.5c0.16-1.32,1.24-4.91,2.5-5.59l3.52-1.59c2.53-1.38,1.06-6.78,3.92-6.45l3.97,0.03c5.9,0.05,11.6,2.1,16.18,5.82
					c0.17,0.14,0.33,0.27,0.48,0.39l10.34,8.42c1.81,1.48,2.21,4.16,0.77,6c-1.47,1.87-4.19,2.17-6.02,0.67l-11.68-9.52l-9.24-1.08
					l-9.11,4.95c-2.05,1.12-4.64,0.42-5.82-1.6C403.75,394.23,404.27,395.36,404.38,394.5z"/>
			</g>
			
				<path id="XMLID_4394_" fill="#FCD3B6" stroke="#640917" stroke-width="2.6955" stroke-linecap="round" stroke-miterlimit="10" d="
				M415.49,380.88l-7.32-0.06L235.11,240.64l-16.82,20.89l173.46,140.5v0c1.06,5.04,3.35,7.54,9.76,12.7l18.98,15.29l21.35-26.51
				l-13.48-10.85"/>
			
				<path id="XMLID_4393_" fill="#FCD3B6" stroke="#640917" stroke-width="2.6955" stroke-linecap="round" stroke-miterlimit="10" d="
				M437.66,400.14l28.13,22.66c1.83,1.47,2.12,4.15,0.65,5.98l0,0c-1.47,1.83-4.15,2.12-5.98,0.65l-27.13-21.84"/>
			
				<path id="XMLID_4392_" fill="#FCD3B6" stroke="#640917" stroke-width="2.6955" stroke-linecap="round" stroke-miterlimit="10" d="
				M435.14,409.06l28.13,22.66c1.83,1.47,2.12,4.15,0.65,5.98l0,0c-1.47,1.83-4.15,2.12-5.98,0.65l-28.13-22.66"/>
			
				<path id="XMLID_4391_" fill="#FCD3B6" stroke="#640917" stroke-width="2.6955" stroke-linecap="round" stroke-miterlimit="10" d="
				M427.96,414.23l28.13,22.66c1.83,1.47,2.12,4.15,0.65,5.98l0,0c-1.47,1.83-4.15,2.12-5.98,0.65l-28.13-22.66"/>
			
				<path id="XMLID_4390_" fill="#FCD3B6" stroke="#640917" stroke-width="2.6955" stroke-linecap="round" stroke-miterlimit="10" d="
				M422.64,420.84l23.01,18.53c1.83,1.47,2.12,4.15,0.65,5.98l0,0c-1.47,1.83-4.15,2.12-5.98,0.65l-28.13-22.66"/>
			<path id="XMLID_4389_" opacity="0.13" fill="#640917" d="M445.3,402.45l-3.44,1.07l-15.95-12.85l0,0
				c1.04-1.29,2.93-1.49,4.22-0.45L445.3,402.45z"/>
			<path id="XMLID_4388_" fill="#E25959" d="M460.58,424.59l0.62-0.77c0.74-0.91,2.07-1.06,2.99-0.32l2.42,1.95
				c0.91,0.74,1.06,2.07,0.32,2.99l-0.62,0.77c-0.74,0.91-2.07,1.06-2.99,0.32l-2.42-1.95C459.99,426.84,459.84,425.5,460.58,424.59
				z"/>
			<path id="XMLID_4387_" fill="#E25959" d="M457.91,433.5l0.62-0.77c0.74-0.91,2.07-1.06,2.99-0.32l2.42,1.95
				c0.91,0.74,1.06,2.07,0.32,2.99l-0.62,0.77c-0.74,0.91-2.07,1.06-2.99,0.32l-2.42-1.95C457.31,435.75,457.17,434.42,457.91,433.5
				z"/>
			<path id="XMLID_4386_" fill="#E25959" d="M450.7,438.65l0.62-0.77c0.74-0.91,2.07-1.06,2.99-0.32l2.42,1.95
				c0.91,0.74,1.06,2.07,0.32,2.99l-0.62,0.77c-0.74,0.91-2.07,1.06-2.99,0.32l-2.42-1.95C450.11,440.9,449.96,439.56,450.7,438.65z
				"/>
			<path id="XMLID_4385_" fill="#E25959" d="M440.26,441.13l0.62-0.77c0.74-0.91,2.07-1.06,2.99-0.32l2.42,1.95
				c0.91,0.74,1.06,2.07,0.32,2.99l-0.62,0.77c-0.74,0.91-2.07,1.06-2.99,0.32l-2.42-1.95
				C439.66,443.38,439.52,442.04,440.26,441.13z"/>
			<path id="XMLID_4384_" fill="#E25959" d="M440.57,394.3l1.3-1.61l5.6,4.52l-0.24,0.3c-0.58,0.72-1.64,0.84-2.36,0.25
				L440.57,394.3z"/>
		</g>
		<path id="XMLID_4382_" fill="#FFD671" stroke="#640917" stroke-width="2.6955" stroke-miterlimit="10" d="M368.6,149.06
			l-158.2,99.99l0,0c-19.76-31.26-10.43-72.62,20.83-92.37l45-28.44C307.49,108.47,348.84,117.8,368.6,149.06L368.6,149.06z"/>
		
			<polyline id="XMLID_4381_" fill="#FFFFFF" stroke="#640917" stroke-width="2.6955" stroke-linecap="round" stroke-miterlimit="10" points="
			233.9,277.58 385.35,402.61 406.26,375.04 245.5,243.42 233.9,277.58 		"/>
		
			<polyline id="XMLID_4380_" fill="#FFFFFF" stroke="#640917" stroke-width="2.6955" stroke-linecap="round" stroke-miterlimit="10" points="
			380.27,170.37 444.81,355.86 411.69,365.87 353.18,194.69 380.27,170.37 		"/>
		<path id="XMLID_4379_" fill="#FFFFFF" stroke="#640917" stroke-width="2.6955" stroke-linecap="round" stroke-miterlimit="10" d="
			M233.9,277.59c-6.99-3.37-13.15-8.67-17.6-15.71v0c-12.66-20.03-6.68-46.53,13.35-59.19l88.82-56.14
			c20.03-12.66,46.53-6.68,59.19,13.35l0,0c4.33,6.85,6.48,14.46,6.63,22.02"/>
		<polyline id="XMLID_4378_" fill="#FFD671" stroke="#640917" stroke-width="2.6955" stroke-miterlimit="10" points="327.06,141.12 
			338.84,152.31 350.65,156.55 		"/>
		<path id="XMLID_4377_" fill="#FCD3B6" stroke="#640917" stroke-width="2.5848" stroke-linecap="round" stroke-miterlimit="10" d="
			M265.67,159.4L265.67,159.4c-25.83,16.32-33.53,50.49-17.21,76.32l5.26,8.33c16.32,25.83,50.49,33.53,76.32,17.21l0,0
			c25.83-16.32,33.53-50.49,17.21-76.32l-5.27-8.33C325.67,150.78,291.5,143.07,265.67,159.4z"/>
		<path id="XMLID_4376_" fill="#FFD671" stroke="#640917" stroke-width="2.606" stroke-miterlimit="10" d="M220.57,206.45
			c1.36,8.46,4.46,16.86,9.39,24.66l2.26,3.58c18.63,29.48,57.75,38.2,87.37,19.48l8.55-5.4c29.62-18.72,38.53-57.79,19.9-87.27
			l-2.26-3.58c-5.29-8.36-12.11-15.12-19.79-20.09"/>
		<path id="XMLID_4375_" fill="#FCD3B6" stroke="#640917" stroke-width="2.6955" stroke-linecap="round" stroke-miterlimit="10" d="
			M332.98,256.34l1.63,2.57c1.51,2.38,0.8,5.54-1.59,7.04l0,0c-2.38,1.51-5.54,0.8-7.04-1.59l-1.56-2.46"/>
		<path id="XMLID_4374_" fill="#FFD671" d="M220.95,197.27l31.06,8.42l44.45-29.41l18.87-18.19l2.85-15.33c0,0-2.44-8.04-4.33-6.84
			c-1.89,1.19-22.17,2-23.82,3.04c-1.65,1.04-26.87,9.19-27.93,9.86c-1.06,0.67-24.29,12.22-25.12,15.87
			c-0.82,3.66-14.77,21.54-14.77,21.54L220.95,197.27z"/>
	</g>
	<g id="XMLID_4269_">
		<g id="XMLID_4315_">
			
				<path id="XMLID_4372_" fill="#DBA179" stroke="#640917" stroke-width="2.6955" stroke-linecap="round" stroke-miterlimit="10" d="
				M455.14,402.85c-0.18-0.76,21.63-16.88,21.63-16.88l2.84-6.13l9.11-1.07l10.48,13.07l7.46,7.83l-6.81,6.25L455.14,402.85z"/>
			
				<path id="XMLID_4371_" fill="#F7F7F7" stroke="#009EE6" stroke-width="4.0432" stroke-linecap="round" stroke-miterlimit="10" d="
				M467.67,433.39"/>
			
				<path id="XMLID_4370_" fill="#F7F7F7" stroke="#009EE6" stroke-width="4.0432" stroke-linecap="round" stroke-miterlimit="10" d="
				M470.99,414.68"/>
			
				<path id="XMLID_4369_" fill="#F7F7F7" stroke="#009EE6" stroke-width="4.0432" stroke-linecap="round" stroke-miterlimit="10" d="
				M500.49,417.25"/>
			
				<path id="XMLID_4368_" fill="#F7F7F7" stroke="#009EE6" stroke-width="4.0432" stroke-linecap="round" stroke-miterlimit="10" d="
				M470.28,422.83"/>
			<g id="XMLID_4366_">
				
					<path id="XMLID_4367_" fill="#FCD3B6" stroke="#640917" stroke-width="2.6955" stroke-linecap="round" stroke-miterlimit="10" d="
					M477.54,400.47c-6.85,2.81-15.29-2.91-19.32-6.17c-1.98-1.61-4.84-1.69-6.83-0.09c-0.01,0.01-0.03,0.02-0.04,0.03l-9.92,8.02
					c-2.13,1.72-5.27,1.34-6.92-0.86c-1.58-2.1-1.12-5.1,0.92-6.75l9.83-7.95c2.64-2.13,5.81-3.53,9.17-4.04l31.6-3.56"/>
			</g>
			<g id="XMLID_4364_" opacity="0.13">
				<path id="XMLID_4365_" fill="#640917" d="M434.51,401.41c1.66,2.21,4.8,2.58,6.92,0.86l9.92-8.02c0.01-0.01,0.03-0.02,0.04-0.03
					c1.99-1.6,4.84-1.52,6.83,0.09c4.02,3.26,12.47,8.98,19.32,6.17l-0.28-2.6c-6.85,2.81-15.29-2.91-19.32-6.16
					c-1.98-1.61-4.83-1.69-6.83-0.09c-0.01,0.01-0.03,0.02-0.04,0.03l-9.92,8.02c-2.13,1.72-5.27,1.35-6.92-0.86
					c-0.25-0.34-0.45-0.69-0.6-1.06C433.42,399,433.69,400.32,434.51,401.41z"/>
			</g>
			
				<path id="XMLID_4363_" fill="#F7F7F7" stroke="#009EE6" stroke-width="4.0432" stroke-linecap="round" stroke-miterlimit="10" d="
				M480.54,418.7"/>
			
				<path id="XMLID_4362_" fill="#DBA179" stroke="#640917" stroke-width="2.6955" stroke-linecap="round" stroke-miterlimit="10" d="
				M505.34,400.97c-1.32,10.05-5.79,16.6-14.3,24.11l-22.33,20.17l-41.44-14.14l29.27-28.16"/>
			<path id="XMLID_4361_" fill="#FCD3B6" d="M458.7,397.49c0.15-0.15,7.59-7.22,7.59-7.22s14.25,8.16,14.53,8.04
				c0.29-0.12,2.47,4.23-0.07,5.74c-2.54,1.51-14.81,7.62-15.67,7.64C464.23,411.7,458.7,397.49,458.7,397.49z"/>
			
				<polyline id="XMLID_4360_" fill="#DBA179" stroke="#640917" stroke-width="2.6955" stroke-linecap="round" stroke-miterlimit="10" points="
				505.34,400.97 513.89,392.58 491.65,373.42 489.43,375.59 486.03,379.12 			"/>
			<path id="XMLID_4359_" opacity="0.13" fill="#640917" d="M454.21,437.65l-1.02-1.01c-2.37-1.7-4.68,0.34-2.98-2.03l4.56-6.35
				c1.7-2.37,5-2.91,7.37-1.2l0,0c2.37,1.7,2.91,5,1.2,7.37l-4.56,6.35C457.08,443.15,456.58,439.36,454.21,437.65z"/>
			<path id="XMLID_4358_" opacity="0.13" fill="#640917" d="M496.92,407.35c0.11,0.01,0.22,0.02,0.33,0.03l-1.65-0.11L496.92,407.35
				z"/>
			
				<path id="XMLID_4356_" fill="#FCD3B6" stroke="#640917" stroke-width="2.6955" stroke-linecap="round" stroke-miterlimit="10" d="
				M445.94,423.88l-16.99,16c-2.08,2.05-5.42,2.02-7.47-0.06l0,0c-2.05-2.08-2.02-5.42,0.06-7.47l40.36-37.88"/>
			
				<path id="XMLID_4355_" fill="#FCD3B6" stroke="#640917" stroke-width="2.6955" stroke-linecap="round" stroke-miterlimit="10" d="
				M470.11,429.65l-25.25,23.79c-2.08,2.05-5.42,2.02-7.47-0.06l0,0c-2.05-2.08-2.02-5.42,0.06-7.47l23.47-21.48"/>
			
				<path id="XMLID_4351_" fill="#DBA179" stroke="#640917" stroke-width="2.6955" stroke-linecap="round" stroke-miterlimit="10" d="
				M484.9,430.63l-25.75,23.85c-2.08,2.05-5.42,2.02-7.47-0.06l0,0c-2.05-2.08-2.02-5.42,0.06-7.47l18.36-17.3"/>
			
				<path id="XMLID_4350_" fill="#FCD3B6" stroke="#640917" stroke-width="2.6955" stroke-linecap="round" stroke-miterlimit="10" d="
				M460.92,424.43l-26.32,24.44c-2.08,2.05-5.42,2.02-7.47-0.06l0,0c-2.05-2.08-2.02-5.42,0.06-7.47l25.41-23.61"/>
			
				<rect id="XMLID_4349_" x="499.94" y="367.9" transform="matrix(0.7142 -0.7 0.7 0.7142 -125.0255 462.7083)" fill="#FFFFFF" stroke="#640917" stroke-width="2.6955" stroke-linecap="round" stroke-miterlimit="10" width="8.24" height="33.1"/>
			
				<rect id="XMLID_4344_" x="502.44" y="365.45" transform="matrix(0.7142 -0.7 0.7 0.7142 -122.5966 463.7575)" opacity="0.13" fill="#640917" width="8.24" height="33.1"/>
			<path id="XMLID_4343_" fill="#CDE0DF" stroke="#640917" stroke-width="2.6955" stroke-miterlimit="10" d="M659.7,262.24
				L520.86,398.5l-27.97-28.54l168.98-167.04l0,0C677.02,220.13,676.07,246.18,659.7,262.24z"/>
			
				<path id="XMLID_4342_" opacity="0.22" fill="#640917" stroke="#640917" stroke-width="2.6955" stroke-linecap="round" stroke-miterlimit="10" d="
				M522.91,383.26c1.12,1.14,1.1,2.98-0.04,4.1c-1.14,1.12-2.98,1.1-4.1-0.04c-1.12-1.14-1.1-2.98,0.04-4.1
				C519.95,382.09,521.79,382.11,522.91,383.26z"/>
			<g id="XMLID_4338_">
				<path id="XMLID_4341_" fill="#FFEEE3" d="M457.05,453.23c0.33-0.13,0.64-0.32,0.92-0.56l1.91-1.64c1.4-1.21,1.56-3.33,0.35-4.73
					c-1.21-1.4-3.33-1.56-4.73-0.35l-1.91,1.64c-1.4,1.21-1.56,3.33-0.35,4.73C454.2,453.44,455.75,453.76,457.05,453.23z"/>
			</g>
			<path id="XMLID_4335_" opacity="0.13" fill="#640917" d="M450.18,451.16c0,0,2.09,2.76,5.94,0.64
				c3.05-1.68,27.97-26.21,38.15-36.28c2.77-2.75,4.45-6.41,4.7-10.31l0,0c0.22-3.42-0.66-6.83-2.53-9.71l-10.41-16.1l3.41-3.53
				l20.54,20.95l-4.63,4.43c0,0-0.67,4.17-2.77,9.87c-0.54,1.46-2.71,5.45-7.03,9.95c-12.46,11.52-36.39,33.69-36.39,33.69
				S452.22,459.2,450.18,451.16z"/>
			<g id="XMLID_4325_">
				<path id="XMLID_4326_" fill="#FFEEE3" d="M427.19,438.56c0.33-0.13,0.64-0.32,0.92-0.56l1.91-1.64c1.4-1.21,1.56-3.33,0.35-4.73
					c-1.21-1.4-3.33-1.56-4.73-0.35l-1.91,1.64c-1.4,1.21-1.56,3.33-0.35,4.73C424.34,438.76,425.89,439.09,427.19,438.56z"/>
			</g>
			<g id="XMLID_4323_">
				<path id="XMLID_4324_" fill="#FFEEE3" d="M434.01,396.93c0.95,0.73,2.21,0.88,3.3,0.44c0.32-0.13,0.63-0.32,0.92-0.56l1.84-1.58
					c1.31-1.13,1.63-3.08,0.65-4.5c-0.05-0.07-0.11-0.14-0.16-0.21l-4.89,3.95C434.85,395.13,434.29,395.99,434.01,396.93z"/>
			</g>
			<g id="XMLID_4321_">
				<path id="XMLID_4322_" fill="#FFEEE3" d="M432.33,447.94c0.33-0.13,0.64-0.32,0.92-0.56l1.91-1.64c1.4-1.21,1.56-3.33,0.35-4.73
					c-1.21-1.4-3.33-1.56-4.73-0.35l-1.91,1.64c-1.4,1.21-1.56,3.33-0.35,4.73C429.49,448.15,431.03,448.48,432.33,447.94z"/>
			</g>
			<g id="XMLID_4319_">
				<path id="XMLID_4320_" fill="#FFEEE3" d="M442.76,452.48c0.33-0.13,0.64-0.32,0.92-0.56l1.91-1.64c1.4-1.21,1.56-3.33,0.35-4.73
					s-3.33-1.56-4.73-0.35l-1.91,1.64c-1.4,1.21-1.56,3.33-0.35,4.73C439.91,452.69,441.46,453.01,442.76,452.48z"/>
			</g>
			<g id="XMLID_4316_">
				
					<line id="XMLID_4318_" fill="none" stroke="#640917" stroke-width="2.6955" stroke-linecap="round" stroke-miterlimit="10" x1="454.43" y1="382.67" x2="486.03" y2="379.12"/>
				<path id="XMLID_4317_" fill="none" stroke="#640917" stroke-width="2.6955" stroke-linecap="round" stroke-miterlimit="10" d="
					M451.39,394.22c-0.01,0.01-0.03,0.02-0.04,0.03l-9.92,8.02c-2.13,1.72-5.27,1.34-6.92-0.86c-1.58-2.1-1.12-5.1,0.92-6.75
					l9.83-7.95c2.64-2.13,5.81-3.53,9.17-4.04"/>
			</g>
		</g>
		<g id="XMLID_4274_">
			<path id="XMLID_4314_" fill="#DBA179" d="M474.61,416.68c0.76-0.17,5.95-26.78,5.95-26.78l4.32-5.2l-2.95-8.69l-16.31-3.85
				l-10.28-3.37l-2.72,8.83L474.61,416.68z"/>
			
				<path id="XMLID_4313_" fill="#F7F7F7" stroke="#009EE6" stroke-width="4.0432" stroke-linecap="round" stroke-miterlimit="10" d="
				M441.66,418.49"/>
			
				<path id="XMLID_4312_" fill="#F7F7F7" stroke="#009EE6" stroke-width="4.0432" stroke-linecap="round" stroke-miterlimit="10" d="
				M457.13,407.45"/>
			
				<path id="XMLID_4311_" fill="#F7F7F7" stroke="#009EE6" stroke-width="4.0432" stroke-linecap="round" stroke-miterlimit="10" d="
				M442.13,381.92"/>
			
				<path id="XMLID_4283_" fill="#F7F7F7" stroke="#009EE6" stroke-width="4.0432" stroke-linecap="round" stroke-miterlimit="10" d="
				M450.07,411.6"/>
			<g id="XMLID_4305_">
				
					<path id="XMLID_4306_" fill="#DBA179" stroke="#640917" stroke-width="2.6955" stroke-linecap="round" stroke-miterlimit="10" d="
					M467.14,395.43c0.41,7.39,9.2,12.56,13.87,14.79c2.3,1.1,3.6,3.64,3.02,6.13c0,0.02-0.01,0.03-0.01,0.05l-2.98,12.4
					c-0.64,2.66,1.05,5.33,3.75,5.88c2.58,0.52,5.09-1.18,5.7-3.73l2.95-12.29c0.79-3.3,0.69-6.76-0.29-10.01l-10.37-30.06"/>
			</g>
			<g id="XMLID_4303_" opacity="0.13">
				<path id="XMLID_4304_" fill="#640917" d="M484.78,434.69c-2.7-0.55-4.39-3.22-3.75-5.88l2.98-12.4c0-0.02,0.01-0.03,0.01-0.05
					c0.59-2.49-0.71-5.03-3.02-6.13c-4.67-2.23-13.46-7.4-13.87-14.79l2.47-0.87c0.41,7.39,9.2,12.56,13.87,14.8
					c2.3,1.1,3.6,3.64,3.02,6.13c0,0.02-0.01,0.03-0.01,0.05l-2.98,12.4c-0.64,2.66,1.05,5.33,3.75,5.88
					c0.41,0.08,0.82,0.11,1.21,0.09C487.42,434.64,486.11,434.96,484.78,434.69z"/>
			</g>
			
				<path id="XMLID_4282_" fill="#F7F7F7" stroke="#009EE6" stroke-width="4.0432" stroke-linecap="round" stroke-miterlimit="10" d="
				M449.39,400.56"/>
			
				<path id="XMLID_4276_" fill="#DBA179" stroke="#640917" stroke-width="2.6955" stroke-linecap="round" stroke-miterlimit="10" d="
				M454.74,370.54c-8.5,5.51-12.5,12.36-15.63,23.27l-8.62,28.82l30.58,31.34l11.98-34.91"/>
			<path id="XMLID_4300_" fill="#DBA179" d="M477.93,411.16c0.06-0.2,3.26-9.96,3.26-9.96s-13.49-9.36-13.51-9.67
				c-0.02-0.31-4.88-0.42-5.15,2.52c-0.27,2.94-0.52,16.64-0.16,17.43C462.72,412.28,477.93,411.16,477.93,411.16z"/>
			
				<polyline id="XMLID_4247_" fill="#DBA179" stroke="#640917" stroke-width="2.6955" stroke-linecap="round" stroke-miterlimit="10" points="
				454.74,370.54 458.64,359.22 485.51,371.07 484.5,374 482.78,378.6 			"/>
			<path id="XMLID_4208_" opacity="0.13" fill="#640917" d="M443.59,432.47l1.35,0.49c2.56,1.41,1.71,4.37,3.12,1.82l3.77-6.85
				c1.41-2.56,0.47-5.77-2.08-7.17l0,0c-2.56-1.41-5.77-0.47-7.17,2.08l-3.77,6.85C437.39,432.24,441.03,431.07,443.59,432.47z"/>
			<path id="XMLID_4297_" opacity="0.13" fill="#640917" d="M452.6,380.89c-0.06-0.1-0.11-0.19-0.17-0.28l0.81,1.44L452.6,380.89z"
				/>
			
				<path id="XMLID_4207_" fill="#DBA179" stroke="#640917" stroke-width="2.6955" stroke-linecap="round" stroke-miterlimit="10" d="
				M459.58,434.02l-7.15,22.22c-0.95,2.76,0.51,5.76,3.27,6.72l0,0c2.76,0.95,5.76-0.51,6.72-3.27l16.86-52.72"/>
			
				<path id="XMLID_4203_" fill="#DBA179" stroke="#640917" stroke-width="2.6955" stroke-linecap="round" stroke-miterlimit="10" d="
				M443.99,414.68l-10.63,33.02c-0.95,2.76,0.51,5.76,3.27,6.72h0c2.76,0.95,5.76-0.51,6.72-3.27l9.31-30.42"/>
			
				<path id="XMLID_4202_" fill="#DBA179" stroke="#640917" stroke-width="2.6955" stroke-linecap="round" stroke-miterlimit="10" d="
				M436.74,401.74l-10.47,33.5c-0.95,2.76,0.51,5.76,3.27,6.72l0,0c2.76,0.95,5.76-0.51,6.72-3.27l7.73-24.01"/>
			
				<path id="XMLID_4201_" fill="#DBA179" stroke="#640917" stroke-width="2.6955" stroke-linecap="round" stroke-miterlimit="10" d="
				M452.65,420.73L441.89,455c-0.95,2.76,0.51,5.76,3.27,6.72h0c2.76,0.95,5.76-0.51,6.72-3.27l10.41-33.09"/>
			
				<rect id="XMLID_4200_" x="466.09" y="348.05" transform="matrix(0.3252 -0.9457 0.9457 0.3252 -27.4705 690.6953)" fill="#FFFFFF" stroke="#640917" stroke-width="2.6955" stroke-linecap="round" stroke-miterlimit="10" width="8.24" height="33.1"/>
			
				<rect id="XMLID_4199_" x="467.23" y="344.74" transform="matrix(0.3252 -0.9457 0.9457 0.3252 -23.5721 689.5399)" opacity="0.13" fill="#640917" width="8.24" height="33.1"/>
			<path id="XMLID_4198_" fill="#CDE0DF" stroke="#640917" stroke-width="2.6955" stroke-miterlimit="10" d="M513.69,171.55
				l-63.38,183.92l37.79,12.99l78.23-224.36v0C544.27,137.82,521.16,149.87,513.69,171.55z"/>
			
				<path id="XMLID_4197_" opacity="0.22" fill="#640917" stroke="#640917" stroke-width="2.6955" stroke-linecap="round" stroke-miterlimit="10" d="
				M463.15,347.88c-1.52-0.52-3.17,0.28-3.69,1.8c-0.52,1.52,0.29,3.17,1.8,3.69c1.52,0.52,3.17-0.28,3.69-1.8
				C465.47,350.06,464.66,348.4,463.15,347.88z"/>
			<g id="XMLID_4287_">
				<path id="XMLID_4288_" fill="#FFEEE3" d="M428.31,436.61c-0.02-0.35,0.02-0.71,0.11-1.07l0.66-2.43
					c0.49-1.79,2.33-2.84,4.12-2.35c1.79,0.49,2.84,2.33,2.35,4.12l-0.66,2.43c-0.49,1.79-2.33,2.84-4.12,2.35
					C429.34,439.27,428.38,438.01,428.31,436.61z"/>
			</g>
			<path id="XMLID_4286_" opacity="0.13" fill="#640917" d="M433.41,441.42c0,0-3.39-0.7-3.13-5.08
				c0.2-3.48,11.64-36.52,16.37-50.04c1.29-3.69,3.88-6.77,7.29-8.67l0,0c3-1.67,6.45-2.34,9.85-1.89l19.01,2.48l1.72-4.59
				l-27.75-9.54l-2.01,6.08c0,0-3.48,2.4-7.72,6.74c-1.09,1.11-3.76,4.78-5.97,10.62c-5.05,16.2-14.78,47.33-14.78,47.33
				S425.28,443.03,433.41,441.42z"/>
			<g id="XMLID_4284_">
				<path id="XMLID_4285_" fill="#FFEEE3" d="M454.38,457.26c-0.02-0.35,0.02-0.71,0.11-1.07l0.66-2.43
					c0.49-1.79,2.33-2.84,4.12-2.35c1.79,0.49,2.84,2.33,2.35,4.12l-0.66,2.43c-0.49,1.79-2.33,2.84-4.12,2.35
					C455.42,459.92,454.46,458.66,454.38,457.26z"/>
			</g>
			<g id="XMLID_4280_">
				<path id="XMLID_4281_" fill="#FFEEE3" d="M443.7,456.65c-0.02-0.35,0.02-0.71,0.11-1.07l0.66-2.43
					c0.49-1.79,2.33-2.84,4.12-2.35c1.79,0.49,2.84,2.33,2.35,4.12l-0.66,2.43c-0.49,1.79-2.33,2.84-4.12,2.35
					C444.73,459.31,443.77,458.05,443.7,456.65z"/>
			</g>
			<g id="XMLID_4278_">
				<path id="XMLID_4279_" fill="#FFEEE3" d="M435.12,449.19c-0.02-0.35,0.02-0.71,0.11-1.07l0.66-2.43
					c0.49-1.79,2.33-2.84,4.12-2.35c1.79,0.49,2.84,2.33,2.35,4.12l-0.66,2.43c-0.49,1.79-2.33,2.84-4.12,2.35
					C436.16,451.85,435.2,450.59,435.12,449.19z"/>
			</g>
			<g id="XMLID_4275_">
				
					<line id="XMLID_4277_" fill="none" stroke="#640917" stroke-width="2.6955" stroke-linecap="round" stroke-miterlimit="10" x1="493.14" y1="408.66" x2="482.78" y2="378.6"/>
			</g>
		</g>
		<path id="XMLID_4273_" fill="#CDE0DF" stroke="#640917" stroke-width="2.6955" stroke-linecap="round" stroke-miterlimit="10" d="
			M507.37,189.89l2.91-9.49c15.4-50.27,74.55-71.93,118.77-43.48l14.98,9.64c41.53,26.72,47.35,85.15,11.91,119.55l-14.34,13.92"/>
		<path id="XMLID_4196_" fill="#DBA179" stroke="#640917" stroke-width="2.6955" stroke-linecap="round" stroke-miterlimit="10" d="
			M617.6,168.45L617.6,168.45c-28.34-17.44-65.45-8.61-82.89,19.72l0,0c-17.44,28.34-8.61,65.45,19.72,82.89h0
			c28.34,17.44,65.45,8.61,82.89-19.72l0,0C654.77,223.01,645.94,185.9,617.6,168.45z"/>
		<path id="XMLID_4195_" fill="#DBA179" stroke="#640917" stroke-width="2.6955" stroke-linecap="round" stroke-miterlimit="10" d="
			M560.14,271.54l-1.6,2.59c-1.48,2.4-4.62,3.15-7.02,1.67l0,0c-2.4-1.48-3.15-4.62-1.67-7.02l1.53-2.48"/>
		<path id="XMLID_4270_" fill="#63121B" d="M538.7,172.31L538.7,172.31c19.27-31.3,60.27-41.06,91.57-21.79l0,0
			c31.3,19.27,41.06,60.27,21.79,91.57l0,0c-19.27,31.3-60.27,41.06-91.57,21.79l0,0C529.19,244.61,519.43,203.61,538.7,172.31z"/>
	</g>
	<g id="XMLID_4163_">
		<g id="XMLID_4228_">
			<path id="XMLID_4268_" fill="#FCD3B6" d="M459.74,464.47c0.55,0.55-9.48,25.74-9.48,25.74l0.82,6.71l-7.18,5.71l-15.8-5.58
				l-10.47-2.72l2.49-8.9L459.74,464.47z"/>
			
				<path id="XMLID_4194_" fill="#F7F7F7" stroke="#009EE6" stroke-width="4.0432" stroke-linecap="round" stroke-miterlimit="10" d="
				M433,445.12"/>
			
				<path id="XMLID_4193_" fill="#F7F7F7" stroke="#009EE6" stroke-width="4.0432" stroke-linecap="round" stroke-miterlimit="10" d="
				M440.04,462.77"/>
			
				<path id="XMLID_4188_" fill="#F7F7F7" stroke="#009EE6" stroke-width="4.0432" stroke-linecap="round" stroke-miterlimit="10" d="
				M413.62,476.14"/>
			
				<path id="XMLID_4180_" fill="#F7F7F7" stroke="#009EE6" stroke-width="4.0432" stroke-linecap="round" stroke-miterlimit="10" d="
				M436.35,455.47"/>
			<g id="XMLID_4262_">
				
					<path id="XMLID_4263_" fill="#FCD3B6" stroke="#640917" stroke-width="2.6955" stroke-linecap="round" stroke-miterlimit="10" d="
					M441.96,478.3c4.34-6,14.53-5.59,19.67-4.94c2.53,0.32,5-1.12,5.85-3.52c0.01-0.02,0.01-0.03,0.02-0.05l4.2-12.04
					c0.9-2.58,3.77-3.92,6.34-2.92c2.45,0.95,3.64,3.74,2.78,6.22l-4.16,11.93c-1.12,3.21-3.08,6.06-5.66,8.26l-24.98,19.68"/>
			</g>
			<g id="XMLID_4260_" opacity="0.13">
				<path id="XMLID_4261_" fill="#640917" d="M478.04,454.82c-2.57-1-5.44,0.34-6.34,2.92l-4.2,12.04c0,0.01-0.01,0.03-0.02,0.05
					c-0.85,2.41-3.32,3.84-5.85,3.52c-5.14-0.65-15.33-1.06-19.67,4.94l1.61,2.07c4.34-6,14.53-5.59,19.67-4.94
					c2.53,0.32,5-1.11,5.85-3.52c0.01-0.02,0.01-0.03,0.02-0.05l4.2-12.04c0.9-2.58,3.77-3.92,6.34-2.92
					c0.39,0.15,0.75,0.35,1.07,0.58C480.23,456.3,479.3,455.31,478.04,454.82z"/>
			</g>
			
				<path id="XMLID_4179_" fill="#F7F7F7" stroke="#009EE6" stroke-width="4.0432" stroke-linecap="round" stroke-miterlimit="10" d="
				M429.81,464.38"/>
			
				<path id="XMLID_4178_" fill="#FCD3B6" stroke="#640917" stroke-width="2.6955" stroke-linecap="round" stroke-miterlimit="10" d="
				M418.07,492.53c-4.17-9.23-3.83-17.16-0.56-28.02l8.34-28.9l42.67-9.83l-10.04,39.36"/>
			<path id="XMLID_4257_" fill="#FCD3B6" d="M459.54,470.91c-0.05,0.2-2.65,10.14-2.65,10.14s-16.41,0.58-16.59,0.83
				c-0.18,0.25-4.33-2.29-2.97-4.91c1.36-2.62,8.57-14.28,9.29-14.75C447.36,461.74,459.54,470.91,459.54,470.91z"/>
			
				<polyline id="XMLID_4177_" fill="#FCD3B6" stroke="#640917" stroke-width="2.6955" stroke-linecap="round" stroke-miterlimit="10" points="
				418.07,492.53 415.23,504.16 444.24,508.73 444.97,505.71 446.01,500.92 			"/>
			<path id="XMLID_4176_" opacity="0.13" fill="#640917" d="M442.19,434.41l1.4,0.32c2.91,0.2,3.8-2.75,3.6,0.16l-0.53,7.8
				c-0.2,2.91-2.72,5.11-5.63,4.91l0,0c-2.91-0.2-5.11-2.72-4.91-5.63l0.53-7.8C436.85,431.25,439.28,434.21,442.19,434.41z"/>
			<path id="XMLID_4254_" opacity="0.13" fill="#640917" d="M421.87,482.66c-0.1,0.05-0.2,0.1-0.3,0.14l1.46-0.77L421.87,482.66z"/>
			
				<path id="XMLID_4174_" fill="#FCD3B6" stroke="#640917" stroke-width="2.6955" stroke-linecap="round" stroke-miterlimit="10" d="
				M456.48,441.75l6-22.55c0.69-2.83,3.55-4.57,6.38-3.88l0,0c2.83,0.69,4.57,3.55,3.88,6.38l-14.33,53.47"/>
			
				<path id="XMLID_4172_" fill="#FCD3B6" stroke="#640917" stroke-width="2.6955" stroke-linecap="round" stroke-miterlimit="10" d="
				M432.9,449.59l8.92-33.53c0.69-2.83,3.55-4.57,6.38-3.88l0,0c2.83,0.69,4.57,3.55,3.88,6.38l-8.63,30.63"/>
			
				<path id="XMLID_4169_" fill="#FCD3B6" stroke="#640917" stroke-width="2.6955" stroke-linecap="round" stroke-miterlimit="10" d="
				M419.81,456.55l9.31-33.84c0.69-2.83,3.55-4.57,6.38-3.88l0,0c2.83,0.69,4.57,3.55,3.88,6.38l-6.48,24.38"/>
			
				<path id="XMLID_4168_" fill="#FCD3B6" stroke="#640917" stroke-width="2.6955" stroke-linecap="round" stroke-miterlimit="10" d="
				M443.46,449.18l9.48-34.64c0.69-2.83,3.55-4.57,6.38-3.88l0,0c2.83,0.69,4.57,3.55,3.88,6.38l-9.14,33.46"/>
			
				<rect id="XMLID_4167_" x="423.75" y="489.35" transform="matrix(-0.238 0.9713 -0.9713 -0.238 1021.0591 210.7174)" fill="#FFFFFF" stroke="#640917" stroke-width="2.6955" stroke-linecap="round" stroke-miterlimit="10" width="8.24" height="33.1"/>
			
				<rect id="XMLID_4095_" x="422.92" y="492.75" transform="matrix(-0.238 0.9713 -0.9713 -0.238 1023.3294 215.7341)" opacity="0.13" fill="#640917" width="8.24" height="33.1"/>
			<path id="XMLID_4094_" fill="#FFD671" stroke="#640917" stroke-width="2.6955" stroke-miterlimit="10" d="M360.02,691.79
				l46.17-188.98l38.81,9.51l-55.55,231.02l0,0C367.5,736.7,354.58,714.06,360.02,691.79z"/>
			
				<path id="XMLID_4086_" opacity="0.22" fill="#640917" stroke="#640917" stroke-width="2.6955" stroke-linecap="round" stroke-miterlimit="10" d="
				M412.52,517.97c-1.56-0.38-2.51-1.95-2.13-3.51c0.38-1.56,1.95-2.51,3.51-2.13c1.56,0.38,2.51,1.95,2.13,3.51
				C415.65,517.4,414.08,518.35,412.52,517.97z"/>
			<g id="XMLID_4241_">
				<path id="XMLID_4242_" fill="#FFEEE3" d="M431.57,422.66c-0.21,0.29-0.37,0.61-0.48,0.96l-0.76,2.4
					c-0.56,1.77,0.43,3.65,2.19,4.21c1.77,0.56,3.65-0.43,4.21-2.19l0.76-2.4c0.56-1.77-0.43-3.65-2.19-4.21
					C433.88,420.99,432.39,421.53,431.57,422.66z"/>
			</g>
			<path id="XMLID_4240_" opacity="0.13" fill="#640917" d="M437.97,420.54c0,0-3.23-1.24-5.38,2.58
				c-1.71,3.04-9.96,37.01-13.3,50.94c-0.91,3.8-0.4,7.79,1.44,11.24l0,0c1.62,3.03,4.16,5.45,7.26,6.92l17.33,8.19l-1.04,4.8
				l-28.5-6.98l1.6-6.2c0,0-1.63-3.9-2.85-9.85c-0.31-1.52-0.57-6.06,0.73-12.16c4.51-16.35,13.17-47.81,13.17-47.81
				S432,414.78,437.97,420.54z"/>
			<g id="XMLID_4238_">
				<path id="XMLID_4239_" fill="#FFEEE3" d="M464.68,419.4c-0.21,0.28-0.37,0.61-0.48,0.96l-0.76,2.4
					c-0.56,1.77,0.43,3.65,2.19,4.21c1.77,0.56,3.65-0.43,4.21-2.19l0.76-2.4c0.56-1.77-0.43-3.65-2.19-4.21
					C466.99,417.72,465.5,418.26,464.68,419.4z"/>
			</g>
			<g id="XMLID_4236_">
				<path id="XMLID_4237_" fill="#FFEEE3" d="M480.82,458.36c-1.19-0.12-2.35,0.41-3.04,1.37c-0.21,0.28-0.37,0.61-0.48,0.96
					l-0.73,2.31c-0.52,1.65,0.23,3.47,1.82,4.17c0.08,0.03,0.17,0.07,0.25,0.1l2.07-5.94C481.06,460.34,481.08,459.31,480.82,458.36
					z"/>
			</g>
			<g id="XMLID_4234_">
				<path id="XMLID_4235_" fill="#FFEEE3" d="M455.36,414.13c-0.21,0.28-0.37,0.61-0.48,0.96l-0.76,2.4
					c-0.56,1.77,0.43,3.65,2.19,4.21c1.77,0.56,3.65-0.43,4.21-2.19l0.76-2.4c0.56-1.77-0.43-3.65-2.19-4.21
					C457.67,412.45,456.18,412.99,455.36,414.13z"/>
			</g>
			<g id="XMLID_4232_">
				<path id="XMLID_4233_" fill="#FFEEE3" d="M444.11,415.77c-0.21,0.29-0.37,0.61-0.48,0.96l-0.76,2.4
					c-0.56,1.77,0.43,3.65,2.19,4.21c1.77,0.56,3.65-0.43,4.21-2.19l0.76-2.4c0.56-1.77-0.43-3.65-2.19-4.21
					C446.42,414.09,444.93,414.63,444.11,415.77z"/>
			</g>
			<g id="XMLID_4229_">
				
					<line id="XMLID_4231_" fill="none" stroke="#640917" stroke-width="2.6955" stroke-linecap="round" stroke-miterlimit="10" x1="470.99" y1="481.24" x2="446.01" y2="500.92"/>
				<path id="XMLID_4230_" fill="none" stroke="#640917" stroke-width="2.6955" stroke-linecap="round" stroke-miterlimit="10" d="
					M467.48,469.83c0.01-0.02,0.01-0.03,0.02-0.05l4.2-12.04c0.9-2.58,3.77-3.92,6.34-2.92c2.45,0.95,3.64,3.74,2.78,6.22
					l-4.16,11.93c-1.12,3.21-3.08,6.06-5.66,8.26"/>
			</g>
		</g>
		<g id="XMLID_4170_">
			
				<path id="XMLID_4227_" fill="#FCD3B6" stroke="#640917" stroke-width="2.6955" stroke-linecap="round" stroke-miterlimit="10" d="
				M435.91,462.98c-0.56,0.54,9.06,25.9,9.06,25.9l-0.93,6.69l7.09,5.83l15.89-5.32l10.51-2.55l-2.35-8.94L435.91,462.98z"/>
			
				<path id="XMLID_4079_" fill="#F7F7F7" stroke="#009EE6" stroke-width="4.0432" stroke-linecap="round" stroke-miterlimit="10" d="
				M462.96,444.07"/>
			
				<path id="XMLID_4076_" fill="#F7F7F7" stroke="#009EE6" stroke-width="4.0432" stroke-linecap="round" stroke-miterlimit="10" d="
				M455.63,461.61"/>
			
				<path id="XMLID_4075_" fill="#F7F7F7" stroke="#009EE6" stroke-width="4.0432" stroke-linecap="round" stroke-miterlimit="10" d="
				M481.83,475.4"/>
			
				<path id="XMLID_4074_" fill="#F7F7F7" stroke="#009EE6" stroke-width="4.0432" stroke-linecap="round" stroke-miterlimit="10" d="
				M459.44,454.37"/>
			<g id="XMLID_4221_">
				
					<path id="XMLID_4222_" fill="#FCD3B6" stroke="#640917" stroke-width="2.6955" stroke-linecap="round" stroke-miterlimit="10" d="
					M453.46,477.1c-4.24-6.07-14.44-5.83-19.58-5.26c-2.54,0.28-4.98-1.2-5.79-3.62c-0.01-0.02-0.01-0.03-0.02-0.05l-4-12.11
					c-0.86-2.6-3.7-3.98-6.29-3.02c-2.46,0.91-3.7,3.68-2.88,6.18l3.97,12c1.07,3.22,2.98,6.11,5.53,8.35l24.65,20.08"/>
			</g>
			
				<path id="XMLID_4073_" fill="#F7F7F7" stroke="#009EE6" stroke-width="4.0432" stroke-linecap="round" stroke-miterlimit="10" d="
				M465.84,463.38"/>
			
				<path id="XMLID_4071_" fill="#FCD3B6" stroke="#640917" stroke-width="2.6955" stroke-linecap="round" stroke-miterlimit="10" d="
				M477.11,491.72c4.32-9.17,4.11-17.09,1.01-28.01l-7.87-29.04l-42.5-10.52l8.22,35.99"/>
			<path id="XMLID_4218_" fill="#FCD3B6" d="M436,469.42c0.05,0.21,2.48,10.18,2.48,10.18s16.4,0.84,16.57,1.1
				c0.18,0.25,4.36-2.22,3.05-4.86c-1.32-2.64-18.8-20.69-19.52-21.17C437.87,454.18,436,469.42,436,469.42z"/>
			
				<polyline id="XMLID_4070_" fill="#FCD3B6" stroke="#640917" stroke-width="2.6955" stroke-linecap="round" stroke-miterlimit="10" points="
				477.11,491.72 479.76,503.39 450.69,507.49 450,504.46 449.04,499.65 			"/>
			<path id="XMLID_4069_" opacity="0.13" fill="#640917" d="M453.95,433.21l-1.4,0.3c-2.91,0.15-3.76-2.82-3.61,0.1l0.41,7.81
				c0.15,2.91,2.64,5.15,5.55,5l0,0c2.91-0.15,5.15-2.64,5-5.55l-0.41-7.81C459.34,430.14,456.86,433.06,453.95,433.21z"/>
			<path id="XMLID_4215_" opacity="0.13" fill="#640917" d="M473.48,481.79c0.1,0.05,0.2,0.1,0.3,0.15l-1.45-0.79L473.48,481.79z"/>
			
				<path id="XMLID_4068_" fill="#FCD3B6" stroke="#640917" stroke-width="2.6955" stroke-linecap="round" stroke-miterlimit="10" d="
				M439.54,440.32l-5.63-22.65c-0.64-2.85-3.47-4.63-6.32-3.99h0c-2.85,0.64-4.63,3.47-3.99,6.32l13.46,53.69"/>
			
				<path id="XMLID_4067_" fill="#FCD3B6" stroke="#640917" stroke-width="2.6955" stroke-linecap="round" stroke-miterlimit="10" d="
				M462.99,448.54l-8.37-33.67c-0.64-2.85-3.47-4.63-6.32-3.99l0,0c-2.85,0.64-4.63,3.47-3.99,6.32l8.12,30.76"/>
			
				<path id="XMLID_4066_" fill="#FCD3B6" stroke="#640917" stroke-width="2.6955" stroke-linecap="round" stroke-miterlimit="10" d="
				M475.96,455.71l-8.76-33.99c-0.64-2.85-3.47-4.63-6.32-3.99l0,0c-2.85,0.64-4.63,3.47-3.99,6.32l6.09,24.48"/>
			
				<path id="XMLID_4065_" fill="#FCD3B6" stroke="#640917" stroke-width="2.6955" stroke-linecap="round" stroke-miterlimit="10" d="
				M452.44,447.96l-8.92-34.79c-0.64-2.85-3.47-4.63-6.32-3.99l0,0c-2.85,0.64-4.63,3.47-3.99,6.32l8.6,33.61"/>
			
				<rect id="XMLID_4064_" x="462.98" y="488.38" transform="matrix(0.2221 0.975 -0.975 0.2221 855.6691 -62.654)" fill="#FFFFFF" stroke="#640917" stroke-width="2.6955" stroke-linecap="round" stroke-miterlimit="10" width="8.24" height="33.1"/>
			
				<rect id="XMLID_4063_" x="463.76" y="491.79" transform="matrix(0.2221 0.975 -0.975 0.2221 859.6005 -60.7575)" opacity="0.13" fill="#640917" width="8.24" height="33.1"/>
			<path id="XMLID_4062_" fill="#FFD671" stroke="#640917" stroke-width="2.6955" stroke-miterlimit="10" d="M531.91,691.89
				l-43.08-189.7l-38.96,8.88l51.77,231.9h0C523.7,736.68,536.99,714.25,531.91,691.89z"/>
			
				<path id="XMLID_4061_" opacity="0.22" fill="#640917" stroke="#640917" stroke-width="2.6955" stroke-linecap="round" stroke-miterlimit="10" d="
				M483.14,516.33c1.56-0.36,2.54-1.91,2.18-3.47c-0.36-1.56-1.91-2.54-3.47-2.18c-1.56,0.36-2.54,1.91-2.18,3.47
				C480.03,515.71,481.58,516.69,483.14,516.33z"/>
			<g id="XMLID_4191_">
				<path id="XMLID_4192_" fill="#FFEEE3" d="M464.76,421.64c0.2,0.29,0.36,0.61,0.47,0.97l0.72,2.41c0.53,1.78-0.49,3.64-2.26,4.17
					c-1.78,0.53-3.64-0.49-4.17-2.26l-0.72-2.42c-0.53-1.78,0.49-3.64,2.26-4.17C462.47,419.93,463.95,420.49,464.76,421.64z"/>
			</g>
			<path id="XMLID_4190_" opacity="0.13" fill="#640917" d="M457.8,420.21c0,0,3.25-1.19,5.34,2.67
				c1.66,3.06,9.35,37.17,12.46,51.15c0.85,3.81,0.27,7.8-1.62,11.21v0c-1.66,3-4.25,5.39-7.38,6.8l-17.46,7.91l0.96,4.81
				l28.61-6.52l-1.49-6.23c0,0,1.69-3.87,3.01-9.8c0.34-1.52,0.67-6.05-0.53-12.17c-4.25-16.43-12.39-48.02-12.39-48.02
				S463.86,414.55,457.8,420.21z"/>
			<g id="XMLID_4187_">
				<path id="XMLID_4189_" fill="#FFEEE3" d="M431.71,417.83c0.2,0.29,0.36,0.61,0.47,0.97l0.72,2.41c0.53,1.78-0.49,3.64-2.26,4.17
					c-1.78,0.53-3.64-0.49-4.17-2.26l-0.72-2.41c-0.53-1.78,0.49-3.64,2.26-4.17C429.43,416.12,430.9,416.68,431.71,417.83z"/>
			</g>
			<g id="XMLID_4185_">
				<path id="XMLID_4186_" fill="#FFEEE3" d="M414.93,456.53c1.19-0.1,2.34,0.45,3.01,1.42c0.2,0.29,0.36,0.61,0.47,0.97l0.69,2.32
					c0.49,1.66-0.29,3.47-1.88,4.14c-0.08,0.03-0.17,0.07-0.25,0.09l-1.98-5.97C414.66,458.51,414.66,457.47,414.93,456.53z"/>
			</g>
			<g id="XMLID_4183_">
				<path id="XMLID_4184_" fill="#FFEEE3" d="M441.11,412.72c0.2,0.29,0.36,0.61,0.47,0.97l0.72,2.42c0.53,1.78-0.49,3.64-2.26,4.17
					c-1.78,0.53-3.64-0.49-4.17-2.26l-0.72-2.42c-0.53-1.78,0.49-3.64,2.26-4.17C438.83,411,440.31,411.57,441.11,412.72z"/>
			</g>
			<g id="XMLID_4181_">
				<path id="XMLID_4182_" fill="#FFEEE3" d="M452.34,414.54c0.2,0.29,0.36,0.61,0.47,0.97l0.72,2.42c0.53,1.78-0.49,3.64-2.26,4.17
					c-1.78,0.53-3.64-0.49-4.17-2.26l-0.72-2.42c-0.53-1.78,0.49-3.64,2.26-4.17C450.05,412.83,451.53,413.39,452.34,414.54z"/>
			</g>
			<g id="XMLID_4171_">
				
					<line id="XMLID_4175_" fill="none" stroke="#640917" stroke-width="2.6955" stroke-linecap="round" stroke-miterlimit="10" x1="424.39" y1="479.57" x2="449.04" y2="499.65"/>
				<path id="XMLID_4173_" fill="none" stroke="#640917" stroke-width="2.6955" stroke-linecap="round" stroke-miterlimit="10" d="
					M428.08,468.22c-0.01-0.02-0.01-0.03-0.02-0.05l-4-12.11c-0.86-2.6-3.7-3.98-6.29-3.02c-2.46,0.91-3.7,3.68-2.88,6.18l3.97,12
					c1.07,3.22,2.98,6.11,5.53,8.35"/>
			</g>
		</g>
		<path id="XMLID_4166_" fill="#FFD671" stroke="#640917" stroke-width="2.6955" stroke-miterlimit="10" d="M527.61,672.98l2.53,9.6
			c13.42,50.84-25.44,100.42-78.02,99.55l-17.81-0.3c-49.38-0.82-85.12-47.41-73.13-95.31l4.85-19.38"/>
		<path id="XMLID_4060_" fill="#FCD3B6" stroke="#640917" stroke-width="2.61" stroke-linecap="round" stroke-miterlimit="10" d="
			M446.23,761.65L446.23,761.65c31.2-0.11,56.4-25.48,56.3-56.68l-0.03-7.52c-0.11-31.2-25.48-56.4-56.68-56.3h0
			c-31.2,0.11-56.4,25.48-56.3,56.68l0.03,7.52C389.66,736.55,415.04,761.75,446.23,761.65z"/>
		<path id="XMLID_4059_" fill="#FCD3B6" stroke="#640917" stroke-width="2.6955" stroke-linecap="round" stroke-miterlimit="10" d="
			M440.73,643.76l-0.01-3.04c-0.01-2.82,2.27-5.11,5.09-5.12h0c2.82-0.01,5.11,2.27,5.12,5.09l0.01,2.91"/>
	</g>
	<path id="XMLID_5674_" fill="#63121B" d="M485.38,678.09l-10.79,0c-2.53,0-4.59-2.05-4.59-4.59l0,0c0-11.8-9.56-21.37-21.36-21.37
		l0,0c-11.8,0-21.37,9.57-21.36,21.37l0,0.73c0,2.53-2.05,4.59-4.59,4.59H406.3c-12.37,0-22.4,10.03-22.4,22.4v10.96
		c0,34.21,27.73,61.94,61.94,61.94h0c34.21,0,61.94-27.73,61.94-61.94v-11.69C507.78,688.12,497.75,678.09,485.38,678.09z"/>
	<g id="XMLID_4081_">
		<g id="XMLID_4124_">
			<path id="XMLID_4161_" fill="#FCD3B6" d="M426.51,445.17c-0.36,0.69-27.41-1.11-27.41-1.11l-6.13,2.84l-7.64-5.08l0.45-16.75
				l-0.63-10.8l9.24-0.36L426.51,445.17z"/>
			
				<path id="XMLID_4058_" fill="#F7F7F7" stroke="#009EE6" stroke-width="4.0432" stroke-linecap="round" stroke-miterlimit="10" d="
				M436.71,413.78"/>
			
				<path id="XMLID_4057_" fill="#F7F7F7" stroke="#009EE6" stroke-width="4.0432" stroke-linecap="round" stroke-miterlimit="10" d="
				M422.08,425.9"/>
			
				<path id="XMLID_4056_" fill="#F7F7F7" stroke="#009EE6" stroke-width="4.0432" stroke-linecap="round" stroke-miterlimit="10" d="
				M401.23,404.87"/>
			
				<path id="XMLID_4055_" fill="#F7F7F7" stroke="#009EE6" stroke-width="4.0432" stroke-linecap="round" stroke-miterlimit="10" d="
				M427.89,420.15"/>
			<g id="XMLID_4155_">
				
					<path id="XMLID_4156_" fill="#FCD3B6" stroke="#640917" stroke-width="2.6955" stroke-linecap="round" stroke-miterlimit="10" d="
					M407.89,432.5c7.04,2.29,9.79,12.11,10.75,17.2c0.47,2.51,2.6,4.41,5.15,4.49c0.02,0,0.03,0,0.05,0l12.75,0.3
					c2.74,0.06,4.89,2.38,4.73,5.13c-0.15,2.62-2.44,4.61-5.07,4.55l-12.64-0.29c-3.39-0.08-6.71-1.06-9.6-2.85l-26.4-17.72"/>
			</g>
			<g id="XMLID_4153_" opacity="0.13">
				<path id="XMLID_4154_" fill="#640917" d="M441.32,459.62c0.16-2.75-1.99-5.07-4.73-5.13l-12.75-0.3c-0.02,0-0.03,0-0.05,0
					c-2.55-0.07-4.68-1.98-5.15-4.49c-0.96-5.09-3.7-14.91-10.75-17.2l-1.47,2.17c7.04,2.29,9.79,12.11,10.75,17.2
					c0.47,2.51,2.6,4.41,5.15,4.48c0.02,0,0.03,0,0.05,0l12.75,0.3c2.74,0.06,4.89,2.38,4.73,5.13c-0.03,0.42-0.1,0.82-0.23,1.2
					C440.59,462.15,441.24,460.97,441.32,459.62z"/>
			</g>
			
				<path id="XMLID_4054_" fill="#F7F7F7" stroke="#009EE6" stroke-width="4.0432" stroke-linecap="round" stroke-miterlimit="10" d="
				M417.39,416.66"/>
			
				<path id="XMLID_4053_" fill="#FCD3B6" stroke="#640917" stroke-width="2.6955" stroke-linecap="round" stroke-miterlimit="10" d="
				M387,414.14c7.51-6.81,15.15-8.92,26.5-9.14l30.07-0.94l22.46,37.59l-40.54,2.55"/>
			<path id="XMLID_4150_" fill="#FCD3B6" d="M420.33,446.96c-0.21,0.01-10.46,0.6-10.46,0.6s-5.59-15.44-5.89-15.53
				c-0.3-0.1,0.85-4.82,3.76-4.33c2.91,0.49,16.22,3.77,16.89,4.31C425.31,432.55,420.33,446.96,420.33,446.96z"/>
			
				<polyline id="XMLID_4052_" fill="#FCD3B6" stroke="#640917" stroke-width="2.6955" stroke-linecap="round" stroke-miterlimit="10" points="
				387,414.14 375.06,415.01 379.63,444.02 382.73,443.79 387.61,443.3 			"/>
			<path id="XMLID_4051_" opacity="0.13" fill="#640917" d="M449.73,419.23l0.13,1.43c0.7,2.83,3.79,2.77,0.96,3.48l-7.58,1.89
				c-2.83,0.7-5.7-1.02-6.4-3.85l0,0c-0.7-2.83,1.02-5.7,3.85-6.4l7.58-1.89C451.09,413.18,449.02,416.4,449.73,419.23z"/>
			<path id="XMLID_4147_" opacity="0.13" fill="#640917" d="M397.56,414.72c-0.08-0.08-0.16-0.16-0.23-0.24l1.18,1.15L397.56,414.72
				z"/>
			
				<path id="XMLID_4050_" fill="#FCD3B6" stroke="#640917" stroke-width="2.6955" stroke-linecap="round" stroke-miterlimit="10" d="
				M447.13,435.08l23.31-1.22c2.91-0.21,5.44,1.97,5.66,4.88l0,0c0.21,2.91-1.97,5.44-4.88,5.66l-55.28,2.79"/>
			
				<path id="XMLID_4049_" fill="#FCD3B6" stroke="#640917" stroke-width="2.6955" stroke-linecap="round" stroke-miterlimit="10" d="
				M432.43,415.06l34.64-1.82c2.91-0.21,5.44,1.97,5.66,4.88l0,0c0.21,2.91-1.97,5.44-4.88,5.66l-31.79,1.2"/>
			
				<path id="XMLID_4047_" fill="#FCD3B6" stroke="#640917" stroke-width="2.6955" stroke-linecap="round" stroke-miterlimit="10" d="
				M421.78,404.74l35.06-1.54c2.91-0.21,5.44,1.97,5.66,4.88l0,0c0.21,2.91-1.97,5.44-4.88,5.66l-25.19,1.32"/>
			
				<path id="XMLID_4046_" fill="#FCD3B6" stroke="#640917" stroke-width="2.6955" stroke-linecap="round" stroke-miterlimit="10" d="
				M436.06,424.98l35.88-1.62c2.91-0.21,5.44,1.97,5.66,4.88v0c0.21,2.91-1.97,5.44-4.88,5.66l-34.65,1.58"/>
			
				<rect id="XMLID_4045_" x="373.17" y="411.02" transform="matrix(-0.9974 0.0721 -0.0721 -0.9974 784.4152 826.8506)" fill="#FFFFFF" stroke="#640917" stroke-width="2.6955" stroke-linecap="round" stroke-miterlimit="10" width="8.24" height="33.1"/>
			
				<rect id="XMLID_4044_" x="369.68" y="411.28" transform="matrix(-0.9974 0.0721 -0.0721 -0.9974 777.4665 827.6008)" opacity="0.13" fill="#640917" width="8.24" height="33.1"/>
			
				<path id="XMLID_4043_" fill="#E25959" stroke="#640917" stroke-width="2.6955" stroke-linecap="round" stroke-miterlimit="10" d="
				M179.55,420.14l194.02-14.15l2.88,39.86l-236.91,18.14v0C139.11,441.06,156.68,421.81,179.55,420.14z"/>
			
				<path id="XMLID_4042_" opacity="0.22" fill="#640917" stroke="#640917" stroke-width="2.6955" stroke-linecap="round" stroke-miterlimit="10" d="
				M360.97,416.59c-0.12-1.6,1.09-2.99,2.69-3.1c1.6-0.12,2.99,1.09,3.1,2.69c0.12,1.6-1.09,2.99-2.69,3.1
				C362.48,419.4,361.09,418.19,360.97,416.59z"/>
			<g id="XMLID_4137_">
				<path id="XMLID_4138_" fill="#FFEEE3" d="M457.64,405.51c-0.33-0.11-0.69-0.17-1.06-0.16l-2.52,0.02
					c-1.85,0.01-3.34,1.53-3.33,3.38c0.01,1.85,1.53,3.34,3.38,3.33l2.52-0.02c1.85-0.01,3.34-1.53,3.33-3.38
					C459.94,407.2,458.97,405.95,457.64,405.51z"/>
			</g>
			<path id="XMLID_4136_" opacity="0.13" fill="#640917" d="M461.63,410.95c0,0,0.19-3.46-4.11-4.33c-3.41-0.69-38.28,1.9-52.56,3
				c-3.89,0.3-7.54,2.02-10.25,4.82l0,0c-2.38,2.47-3.91,5.64-4.35,9.04l-2.47,19.01l-4.88,0.49l-2.11-29.26l6.39-0.39
				c0,0,3.21-2.75,8.49-5.73c1.35-0.76,5.59-2.41,11.8-3.05c16.95-0.73,49.54-2.16,49.54-2.16S465.27,403.5,461.63,410.95z"/>
			<g id="XMLID_4134_">
				<path id="XMLID_4135_" fill="#FFEEE3" d="M470.92,436.01c-0.33-0.11-0.69-0.17-1.06-0.16l-2.52,0.02
					c-1.85,0.01-3.34,1.53-3.33,3.38c0.01,1.85,1.53,3.34,3.38,3.33l2.52-0.02c1.85-0.01,3.34-1.53,3.33-3.38
					C473.23,437.7,472.26,436.45,470.92,436.01z"/>
			</g>
			<g id="XMLID_4132_">
				<path id="XMLID_4133_" fill="#FFEEE3" d="M438.81,463.35c-0.25-1.17-1.11-2.11-2.23-2.47c-0.33-0.11-0.69-0.16-1.06-0.16
					l-2.42,0.02c-1.73,0.01-3.23,1.29-3.41,3.01c-0.01,0.09-0.01,0.18-0.02,0.27l6.29,0.15
					C436.99,464.19,437.98,463.89,438.81,463.35z"/>
			</g>
			<g id="XMLID_4130_">
				<path id="XMLID_4131_" fill="#FFEEE3" d="M473.07,425.53c-0.33-0.11-0.69-0.17-1.06-0.16l-2.52,0.02
					c-1.85,0.01-3.34,1.53-3.33,3.38c0.01,1.85,1.53,3.34,3.38,3.33l2.52-0.02c1.85-0.01,3.34-1.53,3.33-3.38
					C475.38,427.21,474.41,425.96,473.07,425.53z"/>
			</g>
			<g id="XMLID_4128_">
				<path id="XMLID_4129_" fill="#FFEEE3" d="M468.05,415.32c-0.33-0.11-0.69-0.17-1.06-0.16l-2.52,0.02
					c-1.85,0.01-3.34,1.53-3.33,3.38c0.01,1.85,1.53,3.34,3.38,3.33l2.52-0.02c1.85-0.01,3.34-1.53,3.33-3.38
					C470.36,417.01,469.39,415.76,468.05,415.32z"/>
			</g>
			<g id="XMLID_4125_">
				
					<line id="XMLID_4127_" fill="none" stroke="#640917" stroke-width="2.6955" stroke-linecap="round" stroke-miterlimit="10" x1="414.01" y1="461.03" x2="387.61" y2="443.3"/>
				<path id="XMLID_4126_" fill="none" stroke="#640917" stroke-width="2.6955" stroke-linecap="round" stroke-miterlimit="10" d="
					M423.79,454.18c0.02,0,0.03,0,0.05,0l12.75,0.3c2.74,0.06,4.89,2.38,4.73,5.13c-0.15,2.62-2.44,4.61-5.07,4.55l-12.64-0.29
					c-3.39-0.08-6.71-1.06-9.6-2.85"/>
			</g>
		</g>
		<g id="XMLID_4085_">
			
				<path id="XMLID_4123_" fill="#FCD3B6" stroke="#640917" stroke-width="2.6955" stroke-linecap="round" stroke-miterlimit="10" d="
				M420.6,422.03c-0.69-0.37-21.86,16.58-21.86,16.58l-6.65,1.17l-3.37,8.54l9.95,13.48l5.66,9.22l7.79-4.98L420.6,422.03z"/>
			
				<path id="XMLID_4041_" fill="#F7F7F7" stroke="#009EE6" stroke-width="4.0432" stroke-linecap="round" stroke-miterlimit="10" d="
				M446.91,441.96"/>
			
				<path id="XMLID_4040_" fill="#F7F7F7" stroke="#009EE6" stroke-width="4.0432" stroke-linecap="round" stroke-miterlimit="10" d="
				M427.98,440.38"/>
			
				<path id="XMLID_4039_" fill="#F7F7F7" stroke="#009EE6" stroke-width="4.0432" stroke-linecap="round" stroke-miterlimit="10" d="
				M422.9,469.55"/>
			
				<path id="XMLID_4037_" fill="#F7F7F7" stroke="#009EE6" stroke-width="4.0432" stroke-linecap="round" stroke-miterlimit="10" d="
				M436.04,441.78"/>
			<g id="XMLID_4117_">
				
					<path id="XMLID_4118_" fill="#FCD3B6" stroke="#640917" stroke-width="2.6955" stroke-linecap="round" stroke-miterlimit="10" d="
					M412.57,443.07c4.47-5.9,1.11-15.53-1.01-20.25c-1.04-2.33-0.39-5.11,1.66-6.63c0.01-0.01,0.03-0.02,0.04-0.03l10.29-7.53
					c2.21-1.62,2.65-4.75,0.94-6.91c-1.63-2.06-4.64-2.39-6.76-0.84l-10.2,7.46c-2.74,2.01-4.9,4.71-6.25,7.83l-11.53,29.63"/>
			</g>
			
				<path id="XMLID_4036_" fill="#F7F7F7" stroke="#009EE6" stroke-width="4.0432" stroke-linecap="round" stroke-miterlimit="10" d="
				M429.42,450.64"/>
			
				<path id="XMLID_4035_" fill="#FCD3B6" stroke="#640917" stroke-width="2.6955" stroke-linecap="round" stroke-miterlimit="10" d="
				M405.92,470.08c10.05,1.29,17.53-1.34,26.97-7.64l25.21-16.42l-3.05-43.68l-31.72,18.88"/>
			<path id="XMLID_4114_" fill="#FCD3B6" d="M414.5,424.1c-0.18,0.11-8.92,5.49-8.92,5.49s4.24,15.86,4.05,16.11
				c-0.19,0.25,3.45,3.47,5.56,1.41c2.11-2.07,13.91-24.25,14.15-25.08C429.58,421.19,414.5,424.1,414.5,424.1z"/>
			
				<polyline id="XMLID_4034_" fill="#FCD3B6" stroke="#640917" stroke-width="2.6955" stroke-linecap="round" stroke-miterlimit="10" points="
				405.92,470.08 395.63,476.19 382.8,449.78 385.46,448.19 389.75,445.8 			"/>
			<path id="XMLID_4033_" opacity="0.13" fill="#640917" d="M454.48,430.05l-0.71-1.24c-1.04-2.73,1.52-4.44-1.2-3.4l-7.3,2.79
				c-2.73,1.04-4.09,4.09-3.05,6.82l0,0c1.04,2.73,4.09,4.09,6.82,3.05l7.3-2.79C459.06,434.23,455.52,432.77,454.48,430.05z"/>
			<path id="XMLID_4111_" opacity="0.13" fill="#640917" d="M414.25,463.56c-0.02,0.11-0.04,0.22-0.05,0.33l0.31-1.62L414.25,463.56
				z"/>
			
				<path id="XMLID_4032_" fill="#FCD3B6" stroke="#640917" stroke-width="2.6955" stroke-linecap="round" stroke-miterlimit="10" d="
				M443.29,418.53l19.82-12.32c2.51-1.49,3.34-4.73,1.85-7.24v0c-1.49-2.51-4.73-3.34-7.24-1.85l-46.96,29.31"/>
			
				<path id="XMLID_4031_" fill="#FCD3B6" stroke="#640917" stroke-width="2.6955" stroke-linecap="round" stroke-miterlimit="10" d="
				M442.67,443.36l29.46-18.31c2.51-1.49,3.34-4.73,1.85-7.24l0,0c-1.49-2.51-4.73-3.34-7.24-1.85l-26.78,17.19"/>
			
				<path id="XMLID_4030_" fill="#FCD3B6" stroke="#640917" stroke-width="2.6955" stroke-linecap="round" stroke-miterlimit="10" d="
				M439.83,457.91l29.65-18.78c2.51-1.49,3.34-4.73,1.85-7.24l0,0c-1.49-2.51-4.73-3.34-7.24-1.85l-21.42,13.31"/>
			
				<path id="XMLID_4029_" fill="#FCD3B6" stroke="#640917" stroke-width="2.6955" stroke-linecap="round" stroke-miterlimit="10" d="
				M439.98,433.15l30.37-19.18c2.51-1.49,3.34-4.73,1.85-7.24l0,0c-1.49-2.51-4.73-3.34-7.24-1.85l-29.34,18.51"/>
			
				<rect id="XMLID_4028_" x="386.16" y="448.06" transform="matrix(-0.8596 0.511 -0.511 -0.8596 963.1714 664.5289)" fill="#FFFFFF" stroke="#640917" stroke-width="2.6955" stroke-linecap="round" stroke-miterlimit="10" width="8.24" height="33.1"/>
			
				<rect id="XMLID_4027_" x="383.15" y="449.84" transform="matrix(-0.8596 0.511 -0.511 -0.8596 958.4919 669.3907)" opacity="0.13" fill="#640917" width="8.24" height="33.1"/>
			
				<path id="XMLID_4026_" fill="#E25959" stroke="#640917" stroke-width="2.6955" stroke-linecap="round" stroke-miterlimit="10" d="
				M232.28,583.74l167.28-99.3l-20.42-34.35L174.38,570.64h0C187.13,589.69,212.56,595.45,232.28,583.74z"/>
			
				<path id="XMLID_4025_" opacity="0.22" fill="#640917" stroke="#640917" stroke-width="2.6955" stroke-linecap="round" stroke-miterlimit="10" d="
				M382.91,483.51c0.82,1.38,2.6,1.83,3.98,1.01s1.83-2.6,1.01-3.98c-0.82-1.38-2.6-1.83-3.98-1.01S382.09,482.13,382.91,483.51z"/>
			<g id="XMLID_4100_">
				<path id="XMLID_4101_" fill="#FFEEE3" d="M468.81,436.78c-0.21,0.28-0.47,0.53-0.78,0.74l-2.08,1.42
					c-1.53,1.05-3.62,0.66-4.66-0.87c-1.05-1.53-0.66-3.62,0.87-4.66l2.08-1.42c1.53-1.05,3.62-0.66,4.66,0.87
					C469.74,434.08,469.66,435.66,468.81,436.78z"/>
			</g>
			<path id="XMLID_4099_" opacity="0.13" fill="#640917" d="M468.03,429.72c0,0,2.13,2.73-0.9,5.9c-2.4,2.52-32.5,20.32-44.84,27.58
				c-3.37,1.98-7.34,2.66-11.17,1.9l0,0c-3.37-0.66-6.43-2.39-8.74-4.93l-12.89-14.19l-4.29,2.39l14.99,25.22l5.47-3.34
				c0,0,4.21,0.42,10.25-0.15c1.55-0.15,5.96-1.22,11.42-4.24c14.33-9.09,41.89-26.54,41.89-26.54S475.28,433.75,468.03,429.72z"/>
			<g id="XMLID_4096_">
				<path id="XMLID_4098_" fill="#FFEEE3" d="M462.28,404.16c-0.21,0.28-0.47,0.53-0.78,0.74l-2.08,1.42
					c-1.53,1.05-3.62,0.66-4.66-0.87c-1.05-1.53-0.66-3.62,0.87-4.66l2.08-1.42c1.53-1.05,3.62-0.66,4.66,0.87
					C463.21,401.46,463.13,403.04,462.28,404.16z"/>
			</g>
			<g id="XMLID_4092_">
				<path id="XMLID_4093_" fill="#FFEEE3" d="M470.03,411.54c-0.21,0.28-0.47,0.53-0.78,0.74l-2.08,1.42
					c-1.53,1.05-3.62,0.66-4.66-0.87c-1.05-1.53-0.66-3.62,0.87-4.66l2.08-1.42c1.53-1.05,3.62-0.66,4.66,0.87
					C470.96,408.84,470.88,410.42,470.03,411.54z"/>
			</g>
			<g id="XMLID_4090_">
				<path id="XMLID_4091_" fill="#FFEEE3" d="M471.75,422.78c-0.21,0.28-0.47,0.53-0.78,0.74l-2.08,1.42
					c-1.53,1.05-3.62,0.66-4.66-0.87c-1.05-1.53-0.66-3.62,0.87-4.66l2.08-1.42c1.53-1.05,3.62-0.66,4.66,0.87
					C472.68,420.08,472.6,421.66,471.75,422.78z"/>
			</g>
			<g id="XMLID_4087_">
				
					<line id="XMLID_4089_" fill="none" stroke="#640917" stroke-width="2.6955" stroke-linecap="round" stroke-miterlimit="10" x1="401.28" y1="416.17" x2="389.75" y2="445.8"/>
				<path id="XMLID_4088_" fill="none" stroke="#640917" stroke-width="2.6955" stroke-linecap="round" stroke-miterlimit="10" d="
					M413.22,416.19c0.01-0.01,0.03-0.02,0.04-0.03l10.29-7.53c2.21-1.62,2.65-4.75,0.94-6.91c-1.63-2.06-4.64-2.39-6.76-0.84
					l-10.2,7.46c-2.74,2.01-4.9,4.71-6.25,7.83"/>
			</g>
		</g>
		<path id="XMLID_4084_" fill="#E25959" stroke="#640917" stroke-width="2.6955" stroke-linecap="round" stroke-miterlimit="10" d="
			M248.96,573.84l-8.35,5.36c-44.25,28.39-103.38,6.65-118.71-43.64l-5.19-17.04c-14.39-47.24,18.95-95.57,68.22-98.89l19.94-1.34"
			/>
		<path id="XMLID_4024_" fill="#FCD3B6" stroke="#640917" stroke-width="2.5962" stroke-linecap="round" stroke-miterlimit="10" d="
			M139.57,523.66L139.57,523.66c9.49,29.06,40.74,44.91,69.8,35.42l10.42-3.41c29.06-9.49,44.91-40.74,35.42-69.8l0,0
			c-9.49-29.06-40.74-44.91-69.8-35.42l-10.42,3.41C145.93,463.35,130.08,494.6,139.57,523.66z"/>
		<path id="XMLID_4023_" fill="#FCD3B6" stroke="#640917" stroke-width="2.6955" stroke-linecap="round" stroke-miterlimit="10" d="
			M250.06,482.19l2.89-0.94c2.68-0.88,5.56,0.59,6.44,3.27l0,0c0.88,2.68-0.59,5.56-3.27,6.44l-2.77,0.9"/>
	</g>
	<path id="XMLID_4080_" fill="#FFD671" stroke="#640917" stroke-width="2.6344" stroke-miterlimit="10" d="M210.12,566.03
		l-2.54,0.87c-30.36,10.35-63.37-5.87-73.72-36.23l-2.48-7.26c-10.35-30.36,5.87-63.37,36.23-73.72l2.54-0.87
		c30.36-10.35,63.37,5.87,73.72,36.23l2.48,7.26C256.71,522.67,240.48,555.68,210.12,566.03z"/>
</g>
<g>
	<path id="XMLID_4048_" fill="#E25959" stroke="#640917" stroke-width="2.8234" stroke-linecap="round" stroke-miterlimit="10" d="
		M740.21,474.83l-0.33-0.13c-19.48-7.31-41.19,2.56-48.49,22.03l0,0c-7.3,19.48,2.56,41.19,22.04,48.5l0.33,0.13
		c19.48,7.31,41.19-2.56,48.49-22.03l0,0C769.56,503.85,759.69,482.14,740.21,474.83z"/>
	<path id="XMLID_4022_" fill="#531019" d="M781.39,531.05c-8.29,22.11-32.93,33.3-55.04,25.01l-0.38-0.14
		c-1.53-0.57-3.02-1.24-4.44-1.98c20.81,5.25,37.7-8.06,45.42-28.63c7.71-20.54,3.56-41.14-15.59-50.87
		c1.55,0.38,3.12,0.86,4.65,1.43l0.38,0.14c11.05,4.15,19.38,12.38,23.9,22.34C784.81,508.31,785.54,520,781.39,531.05z"/>
	<path id="XMLID_4021_" fill="#63121B" d="M771.93,527.5c-7.72,20.56-29.58,31.69-50.39,26.44c-8.85-4.5-15.56-11.8-19.46-20.36
		c-4.52-9.95-5.25-21.64-1.1-32.7c7.72-20.56,29.59-31.68,50.39-26.44c8.85,4.5,15.57,11.78,19.46,20.36
		C775.35,504.75,776.07,516.45,771.93,527.5z"/>
</g>
</svg>
