<svg xmlns="http://www.w3.org/2000/svg" viewBox="0 0 900 900"><style>.a{fill:#ABC9C7;stroke-width:3;stroke:#640917;}.b{fill:#CDE0DF;}.c{fill:none;stroke-width:3;stroke:#640917;}.d{fill:#EF8A25;}.e{fill:#CDE0DF;stroke-width:3;stroke:#640917;}.f{fill:#FFF;}.g{fill:#E6F4F3;stroke-width:3;stroke:#640917;}.h{fill:#FFF;stroke-width:3;stroke:#640917;}.i{fill:#C0DDDA;}.j{fill:#E25959;stroke-width:3;stroke:#640917;}.k{fill:#E25959;}.l{fill:#63121B;}.m{fill:#FCD3B6;stroke-width:3;stroke:#640917;}.n{fill:#640917;opacity:0.1;}.o{fill:#FFD671;stroke-width:3;stroke:#640917;}.p{fill:#531019;}.q{fill:#DBA179;stroke-width:3;stroke:#640917;}.r{fill:#F7F7F7;stroke-width:4;stroke:#009EE6;}.s{opacity:0.1;}.t{fill:#640917;}.u{fill:#FCD3B6;}.v{fill:#640917;opacity:0.2;stroke-width:3;stroke:#640917;}.w{fill:#FFEEE3;}.x{fill:#DBA179;}</style><path d="M701.7 468c-0.7 43.5-12.5 87.4-36.4 127.4 -9.1 15.2-19.6 29.2-31.1 41.8 -30.1 32.9-67.7 56.7-108.4 70.5 -13.7 4.6-27.7 8.1-42 10.4 -5.6 0.9-11.3 1.7-17 2.2 -15.4 1.5-30.9 1.6-46.3 0.3 -4.2-0.3-8.4-0.8-12.6-1.4 -14.2-1.9-28.4-5-42.2-9.3 -18.7-5.8-36.9-13.9-54.3-24.4 -24.6-14.8-46-32.9-63.7-53.6 -38.1-44.3-59.8-100-62.4-157.3 -2.2-48.1 9-97.3 35.2-141.9 0.3-0.5 0.5-0.9 0.8-1.4 35-58.9 89.8-98.9 150.9-116.4 45.7-13.1 95-13.6 142.1-0.2 21 6 41.5 14.7 61.1 26.4 34.7 20.6 62.9 48.1 83.7 79.7C687.7 364.6 702.6 416.1 701.7 468z" style="fill:#640917;opacity:0.3;stroke-width:2;stroke:#640917"/><path d="M702.2 434.8c-0.7 43.5-12.5 87.4-36.4 127.4 -9.1 15.2-19.6 29.2-31.1 41.8 -30.1 32.9-67.7 56.7-108.4 70.5 -13.7 4.6-27.7 8.1-42 10.4 -5.6 0.9-11.3 1.7-17 2.2 -15.4 1.5-30.9 1.6-46.3 0.3 -4.2-0.3-8.4-0.8-12.6-1.4 -14.2-1.9-28.4-5-42.2-9.3 -18.7-5.8-36.9-13.9-54.3-24.4 -24.6-14.8-46-32.9-63.7-53.6 -38.1-44.3-59.8-100-62.4-157.3 -2.2-48.1 9-97.3 35.2-141.9 0.3-0.5 0.5-0.9 0.8-1.4 35-58.9 89.8-98.9 150.9-116.4 45.7-13.1 95-13.6 142.1-0.2 21 6 41.5 14.7 61.1 26.4 34.7 20.6 62.9 48.1 83.7 79.7C688.2 331.4 703.1 382.8 702.2 434.8z" style="fill:#FF9F36;stroke-width:3;stroke:#640917"/><path d="M464 610.6l-8.7 14.7c-2.1 3.6-6.8 4.8-10.3 2.6l-3.4-2c-3.6-2.1-4.8-6.8-2.6-10.3l8.7-14.7c2.7-4.5 8.6-6 13.1-3.3 2.3 1.4 3.8 3.5 4.4 5.9C465.6 605.7 465.3 608.3 464 610.6z" class="a"/><path d="M464 610.6l-8.7 14.7c-2.1 3.6-6.8 4.8-10.3 2.6l-1.7-1 17.5-29.4c2.3 1.4 3.8 3.5 4.4 5.9C465.6 605.7 465.3 608.3 464 610.6z" class="b"/><path d="M464 610.6l-8.7 14.7c-2.1 3.6-6.8 4.8-10.3 2.6l-3.4-2c-3.6-2.1-4.8-6.8-2.6-10.3l8.7-14.7c2.7-4.5 8.6-6 13.1-3.3 2.3 1.4 3.8 3.5 4.4 5.9C465.6 605.7 465.3 608.3 464 610.6z" class="c"/><path d="M453.4 610.2l-0.5-0.3c-0.6-0.4-0.8-1.2-0.5-1.8l3.7-6.2c0.4-0.6 1.2-0.8 1.8-0.5l0.5 0.3c0.6 0.4 0.8 1.2 0.5 1.8l-3.7 6.2C454.8 610.4 454 610.6 453.4 610.2z" class="b"/><rect x="408.8" y="542.7" transform="matrix(0.8597 0.5108 -0.5108 0.8597 362.8813 -134.7771)" width="35.9" height="101" class="d"/><path d="M494.3 577.8l-52.6-31.2 4-6.6 52.6 31.3c1.5 0.9 2 2.8 1.1 4.3l-0.7 1.3C497.7 578.2 495.8 578.7 494.3 577.8z" class="d"/><path d="M397.3 634.4l-105.8-62.9c-5.2-3.1-6.9-9.8-3.8-15.1l46-77.4 124.7 74.1 -46 77.4C409.2 635.8 402.5 637.5 397.3 634.4z" class="e"/><path d="M412.4 602.2l-98.9-58.7c-2.1-1.3-2.9-4-1.6-6.2l21.3-35.8c1.3-2.1 4.1-2.9 6.2-1.6l98.9 58.8c2.2 1.3 2.9 4.1 1.6 6.2l-21.3 35.8C417.3 602.7 414.6 603.4 412.4 602.2z" class="a"/><path d="M360.7 609.3l-34.2-20.3c-2.3-1.4-3.1-4.3-1.7-6.6l10.5-17.6c1.4-2.3 4.3-3.1 6.6-1.7l34.2 20.3c2.3 1.4 3.1 4.3 1.7 6.6l-10.5 17.7C365.9 610 363 610.7 360.7 609.3z" class="f"/><path d="M458.1 556.3L330.7 480.6c-1.5-0.9-2-2.8-1.1-4.3l0.7-1.2c0.9-1.5 2.8-2 4.3-1.1l127.5 75.7c1.5 0.9 2 2.8 1.1 4.3l-0.7 1.3C461.6 556.7 459.6 557.2 458.1 556.3z" class="g"/><path d="M349.1 598.9l-7-4.2c-0.3-0.2-0.5-0.7-0.3-1l0.2-0.3c0.2-0.3 0.7-0.5 1-0.3l7 4.2c0.4 0.2 0.5 0.7 0.3 1l-0.2 0.3C349.9 599 349.5 599.2 349.1 598.9z" style="fill:#F7F0ED;stroke-width:3;stroke:#630B18"/><path d="M346.3 512l-5.5-3.3c-0.5-0.3-0.7-1-0.4-1.5l0.8-1.3c0.3-0.5 1-0.7 1.5-0.4l5.5 3.3c0.5 0.3 0.7 1 0.4 1.5l-0.8 1.3C347.5 512.2 346.8 512.3 346.3 512z" class="f"/><path d="M355.4 517.5l-5.5-3.3c-0.5-0.3-0.7-1-0.4-1.5l0.8-1.3c0.3-0.5 1-0.7 1.5-0.4l5.5 3.3c0.5 0.3 0.7 1 0.4 1.5l-0.8 1.3C356.6 517.6 356 517.8 355.4 517.5z" class="f"/><path d="M364.6 522.9l-5.5-3.3c-0.5-0.3-0.7-1-0.4-1.5l0.8-1.3c0.3-0.5 1-0.7 1.5-0.4l5.5 3.3c0.5 0.3 0.7 1 0.4 1.5l-0.8 1.3C365.8 523.1 365.1 523.2 364.6 522.9z" class="f"/><path d="M373.8 528.4l-5.5-3.3c-0.5-0.3-0.7-1-0.4-1.5l0.8-1.3c0.3-0.5 1-0.7 1.5-0.4l5.5 3.3c0.5 0.3 0.7 1 0.4 1.5l-0.8 1.3C375 528.5 374.3 528.7 373.8 528.4z" class="f"/><path d="M382.8 533.7l-5.3-3.1c-0.6-0.3-0.8-1.1-0.4-1.6l0.6-1.1c0.3-0.6 1.1-0.8 1.7-0.4l5.3 3.2c0.6 0.3 0.8 1.1 0.4 1.7l-0.6 1.1C384.1 533.9 383.4 534.1 382.8 533.7z" class="f"/><path d="M392 539.2l-5.3-3.1c-0.6-0.3-0.8-1.1-0.4-1.6l0.6-1.1c0.3-0.6 1.1-0.8 1.7-0.4l5.3 3.2c0.6 0.3 0.8 1.1 0.4 1.7l-0.6 1.1C393.3 539.3 392.6 539.5 392 539.2z" class="f"/><path d="M401.2 544.6l-5.3-3.1c-0.6-0.3-0.8-1.1-0.4-1.6l0.6-1.1c0.3-0.6 1.1-0.8 1.7-0.4l5.3 3.2c0.6 0.3 0.8 1.1 0.4 1.7l-0.6 1.1C402.5 544.8 401.7 545 401.2 544.6z" class="f"/><path d="M410.3 550.1l-5.3-3.1c-0.6-0.3-0.8-1.1-0.4-1.6l0.6-1.1c0.3-0.6 1.1-0.8 1.7-0.4l5.3 3.2c0.6 0.3 0.8 1.1 0.4 1.7l-0.6 1.1C411.6 550.2 410.9 550.4 410.3 550.1z" class="f"/><path d="M419.5 555.5l-5.3-3.1c-0.6-0.3-0.8-1.1-0.4-1.6l0.6-1.1c0.3-0.6 1.1-0.8 1.7-0.4l5.3 3.2c0.6 0.3 0.8 1.1 0.4 1.7l-0.6 1.1C420.8 555.7 420.1 555.9 419.5 555.5z" class="f"/><path d="M428.7 561l-5.3-3.1c-0.6-0.3-0.8-1.1-0.4-1.6l0.6-1.1c0.3-0.6 1.1-0.8 1.7-0.4l5.3 3.2c0.6 0.3 0.8 1.1 0.4 1.7l-0.6 1.1C430 561.1 429.2 561.3 428.7 561z" class="f"/><path d="M338.9 519.1l-4.9-2.9c-0.6-0.3-0.8-1.1-0.4-1.6l2.9-4.9c0.3-0.6 1.1-0.8 1.7-0.4l4.9 2.9c0.6 0.3 0.8 1.1 0.4 1.7l-2.9 4.9C340.2 519.3 339.4 519.4 338.9 519.1z" class="f"/><path d="M347.5 524.3l-4.9-2.9c-0.6-0.3-0.8-1.1-0.4-1.6l2.9-4.9c0.3-0.6 1.1-0.8 1.7-0.4l4.9 2.9c0.6 0.3 0.8 1.1 0.4 1.7l-2.9 4.9C348.8 524.4 348.1 524.6 347.5 524.3z" class="f"/><path d="M356.2 529.4l-4.9-2.9c-0.6-0.3-0.8-1.1-0.4-1.6l2.9-4.9c0.3-0.6 1.1-0.8 1.7-0.4l4.9 2.9c0.6 0.3 0.8 1.1 0.4 1.7l-2.9 4.9C357.5 529.6 356.8 529.7 356.2 529.4z" class="f"/><path d="M364.9 534.5l-4.9-2.9c-0.6-0.3-0.8-1.1-0.4-1.6l2.9-4.9c0.3-0.6 1.1-0.8 1.7-0.4l4.9 2.9c0.6 0.3 0.8 1.1 0.4 1.7l-2.9 4.9C366.2 534.7 365.4 534.9 364.9 534.5z" class="f"/><path d="M373.5 539.7l-4.9-2.9c-0.6-0.3-0.8-1.1-0.4-1.6l2.9-4.9c0.3-0.6 1.1-0.8 1.7-0.4l4.9 2.9c0.6 0.3 0.8 1.1 0.4 1.7l-2.9 4.9C374.8 539.8 374.1 540 373.5 539.7z" class="f"/><path d="M382.2 544.8l-4.9-2.9c-0.6-0.3-0.8-1.1-0.4-1.6l2.9-4.9c0.3-0.6 1.1-0.8 1.7-0.4l4.9 2.9c0.6 0.3 0.8 1.1 0.4 1.7l-2.9 4.9C383.5 545 382.7 545.2 382.2 544.8z" class="f"/><path d="M390.8 550l-4.9-2.9c-0.6-0.3-0.8-1.1-0.4-1.6l2.9-4.9c0.3-0.6 1.1-0.8 1.7-0.4l4.9 2.9c0.6 0.3 0.8 1.1 0.4 1.7l-2.9 4.9C392.1 550.1 391.4 550.3 390.8 550z" class="f"/><path d="M399.5 555.1l-4.9-2.9c-0.6-0.3-0.8-1.1-0.4-1.6l2.9-4.9c0.3-0.6 1.1-0.8 1.7-0.4l4.9 2.9c0.6 0.3 0.8 1.1 0.4 1.7l-2.9 4.9C400.8 555.3 400.1 555.5 399.5 555.1z" class="f"/><path d="M408.2 560.3l-4.9-2.9c-0.6-0.3-0.8-1.1-0.4-1.6l2.9-4.9c0.3-0.6 1.1-0.8 1.7-0.4l4.9 2.9c0.6 0.3 0.8 1.1 0.4 1.7l-2.9 4.9C409.5 560.4 408.7 560.6 408.2 560.3z" class="f"/><path d="M416.6 565.3l-4.4-2.6c-0.7-0.4-0.9-1.3-0.5-2l2.6-4.4c0.4-0.7 1.3-0.9 2-0.5l4.4 2.6c0.7 0.4 0.9 1.3 0.5 2l-2.6 4.4C418.2 565.5 417.3 565.8 416.6 565.3z" class="f"/><path d="M425.3 570.5l-4.4-2.6c-0.7-0.4-0.9-1.3-0.5-2l2.6-4.4c0.4-0.7 1.3-0.9 2-0.5l4.4 2.6c0.7 0.4 0.9 1.3 0.5 2l-2.6 4.4C426.9 570.7 426 570.9 425.3 570.5z" class="f"/><path d="M345.8 535l-4.9-2.9c-0.6-0.3-0.8-1.1-0.4-1.6l2.9-4.9c0.3-0.6 1.1-0.8 1.7-0.4l4.9 2.9c0.6 0.3 0.8 1.1 0.4 1.7l-2.9 4.9C347.1 535.2 346.3 535.4 345.8 535z" class="f"/><path d="M354.4 540.2l-4.9-2.9c-0.6-0.3-0.8-1.1-0.4-1.6l2.9-4.9c0.3-0.6 1.1-0.8 1.7-0.4l4.9 2.9c0.6 0.3 0.8 1.1 0.4 1.7l-2.9 4.9C355.7 540.3 355 540.5 354.4 540.2z" class="f"/><path d="M363.1 545.3l-4.9-2.9c-0.6-0.3-0.8-1.1-0.4-1.6l2.9-4.9c0.3-0.6 1.1-0.8 1.7-0.4l4.9 2.9c0.6 0.3 0.8 1.1 0.4 1.7l-2.9 4.9C364.4 545.5 363.7 545.7 363.1 545.3z" class="f"/><path d="M371.8 550.5l-4.9-2.9c-0.6-0.3-0.8-1.1-0.4-1.6l2.9-4.9c0.3-0.6 1.1-0.8 1.7-0.4l4.9 2.9c0.6 0.3 0.8 1.1 0.4 1.7l-2.9 4.9C373.1 550.6 372.3 550.8 371.8 550.5z" class="f"/><path d="M380.2 555.5l-4.4-2.6c-0.7-0.4-0.9-1.3-0.5-2l2.6-4.4c0.4-0.7 1.3-0.9 2-0.5l4.4 2.6c0.7 0.4 0.9 1.3 0.5 2l-2.6 4.4C381.8 555.7 380.9 556 380.2 555.5z" class="f"/><path d="M388.9 560.7l-4.4-2.6c-0.7-0.4-0.9-1.3-0.5-2l2.6-4.4c0.4-0.7 1.3-0.9 2-0.5l4.4 2.6c0.7 0.4 0.9 1.3 0.5 2l-2.6 4.4C390.5 560.9 389.6 561.1 388.9 560.7z" class="f"/><path d="M397.5 565.8l-4.4-2.6c-0.7-0.4-0.9-1.3-0.5-2l2.6-4.4c0.4-0.7 1.3-0.9 2-0.5l4.4 2.6c0.7 0.4 0.9 1.3 0.5 2l-2.6 4.4C399.1 566 398.2 566.3 397.5 565.8z" class="f"/><path d="M406.2 571l-4.4-2.6c-0.7-0.4-0.9-1.3-0.5-2l2.6-4.4c0.4-0.7 1.3-0.9 2-0.5l4.4 2.6c0.7 0.4 0.9 1.3 0.5 2l-2.6 4.4C407.8 571.2 406.9 571.4 406.2 571z" class="f"/><path d="M420.1 579.2l-9.6-5.7c-0.7-0.4-0.9-1.3-0.5-2l2.6-4.4c0.4-0.7 1.3-0.9 2-0.5l9.6 5.7c0.7 0.4 0.9 1.3 0.5 2l-2.6 4.4C421.7 579.4 420.8 579.6 420.1 579.2z" class="f"/><path d="M345.5 546.8l-4.4-2.6c-0.7-0.4-0.9-1.3-0.5-2l2.6-4.4c0.4-0.7 1.3-0.9 2-0.5l4.4 2.6c0.7 0.4 0.9 1.3 0.5 2l-2.6 4.4C347.1 547 346.2 547.2 345.5 546.8z" class="f"/><path d="M354.2 551.9l-4.4-2.6c-0.7-0.4-0.9-1.3-0.5-2l2.6-4.4c0.4-0.7 1.3-0.9 2-0.5l4.4 2.6c0.7 0.4 0.9 1.3 0.5 2l-2.6 4.4C355.8 552.1 354.9 552.3 354.2 551.9z" class="f"/><path d="M362.9 557.1l-4.4-2.6c-0.7-0.4-0.9-1.3-0.5-2l2.6-4.4c0.4-0.7 1.3-0.9 2-0.5l4.4 2.6c0.7 0.4 0.9 1.3 0.5 2l-2.6 4.4C364.5 557.3 363.6 557.5 362.9 557.1z" class="f"/><path d="M371.5 562.2l-4.4-2.6c-0.7-0.4-0.9-1.3-0.5-2l2.6-4.4c0.4-0.7 1.3-0.9 2-0.5l4.4 2.6c0.7 0.4 0.9 1.3 0.5 2l-2.6 4.4C373.1 562.3 372.2 562.6 371.5 562.2z" class="f"/><path d="M380.2 567.3l-4.4-2.6c-0.7-0.4-0.9-1.3-0.5-2l2.6-4.4c0.4-0.7 1.3-0.9 2-0.5l4.4 2.6c0.7 0.4 0.9 1.3 0.5 2l-2.6 4.4C381.8 567.5 380.9 567.7 380.2 567.3z" class="f"/><path d="M388.8 572.5l-4.4-2.6c-0.7-0.4-0.9-1.3-0.5-2l2.6-4.4c0.4-0.7 1.3-0.9 2-0.5l4.4 2.6c0.7 0.4 0.9 1.3 0.5 2l-2.6 4.4C390.4 572.6 389.5 572.9 388.8 572.5z" class="f"/><path d="M397.5 577.6l-4.4-2.6c-0.7-0.4-0.9-1.3-0.5-2l2.6-4.4c0.4-0.7 1.3-0.9 2-0.5l4.4 2.6c0.7 0.4 0.9 1.3 0.5 2l-2.6 4.4C399.1 577.8 398.2 578 397.5 577.6z" class="f"/><path d="M406.1 582.7l-4.4-2.6c-0.7-0.4-0.9-1.3-0.5-2l2.6-4.4c0.4-0.7 1.3-0.9 2-0.5l4.4 2.6c0.7 0.4 0.9 1.3 0.5 2l-2.6 4.4C407.8 582.9 406.8 583.2 406.1 582.7z" class="f"/><path d="M414.8 587.9l-4.4-2.6c-0.7-0.4-0.9-1.3-0.5-2l2.6-4.4c0.4-0.7 1.3-0.9 2-0.5l4.4 2.6c0.7 0.4 0.9 1.3 0.5 2l-2.6 4.4C416.4 588.1 415.5 588.3 414.8 587.9z" class="f"/><path d="M331.7 550.3l-4.4-2.6c-0.7-0.4-0.9-1.3-0.5-2l2.6-4.4c0.4-0.7 1.3-0.9 2-0.5l4.4 2.6c0.7 0.4 0.9 1.3 0.5 2l-2.6 4.4C333.3 550.5 332.4 550.8 331.7 550.3z" class="f"/><path d="M340.4 555.5l-4.4-2.6c-0.7-0.4-0.9-1.3-0.5-2l2.6-4.4c0.4-0.7 1.3-0.9 2-0.5l4.4 2.6c0.7 0.4 0.9 1.3 0.5 2l-2.6 4.4C342 555.7 341.1 555.9 340.4 555.5z" class="f"/><path d="M375.3 576.3l-31.1-18.5c-0.5-0.3-0.7-1-0.4-1.5l3-5.1c0.3-0.5 1-0.7 1.5-0.4l31.1 18.5c0.5 0.3 0.7 1 0.4 1.5l-3 5.1C376.5 576.4 375.9 576.6 375.3 576.3z" class="f"/><path d="M384 581.4l-5.1-3c-0.5-0.3-0.7-1-0.4-1.5l3-5.1c0.3-0.5 1-0.7 1.5-0.4l5.1 3c0.5 0.3 0.7 1 0.4 1.5l-3 5.1C385.2 581.6 384.5 581.7 384 581.4z" class="f"/><path d="M392.7 586.6l-5.1-3c-0.5-0.3-0.7-1-0.4-1.5l3-5.1c0.3-0.5 1-0.7 1.5-0.4l5.1 3c0.5 0.3 0.7 1 0.4 1.5l-3 5.1C393.9 586.7 393.2 586.9 392.7 586.6z" class="f"/><path d="M409.9 596.8l-13.7-8.1c-0.5-0.3-0.7-1-0.4-1.5l3-5.1c0.3-0.5 1-0.7 1.5-0.4l13.7 8.2c0.5 0.3 0.7 1 0.4 1.5l-3 5.1C411.1 597 410.5 597.1 409.9 596.8z" class="f"/><path d="M336.6 529.6l-7.8-4.6c-0.6-0.3-0.8-1.1-0.4-1.6l2.9-4.9c0.3-0.6 1.1-0.8 1.7-0.4l7.8 4.7c0.6 0.3 0.8 1.1 0.4 1.7l-2.9 4.9C337.9 529.7 337.2 529.9 336.6 529.6z" class="f"/><path d="M336.9 541.6l-13-7.7c-0.7-0.4-0.9-1.3-0.5-2l2.6-4.4c0.4-0.7 1.3-0.9 2-0.5l13 7.7c0.7 0.4 0.9 1.3 0.5 2l-2.6 4.4C338.5 541.8 337.6 542.1 336.9 541.6z" class="f"/><path d="M323 545.2l-4.4-2.6c-0.7-0.4-0.9-1.3-0.5-2l2.6-4.4c0.4-0.7 1.3-0.9 2-0.5l4.4 2.6c0.7 0.4 0.9 1.3 0.5 2l-2.6 4.4C324.7 545.4 323.7 545.6 323 545.2z" class="f"/><path d="M325.7 414.8l-39.4-23.4c-4.1-2.4-5.4-7.7-3-11.8l39.2-66c2.4-4.1 7.7-5.4 11.8-3l39.4 23.4c4.1 2.4 5.5 7.7 3 11.8l-39.2 66C335.1 415.9 329.8 417.2 325.7 414.8z" class="h"/><path d="M326.5 401.5l-28.8-17.1c-3.7-2.2-4.9-7-2.7-10.7l30.8-51.9c2.2-3.7 7-4.9 10.7-2.7l28.8 17.1c3.7 2.2 4.9 7 2.7 10.7l-30.8 51.9C334.9 402.5 330.2 403.7 326.5 401.5z" fill="#DFF4F2"/><rect x="315.1" y="314.5" transform="matrix(0.8597 0.5108 -0.5108 0.8597 223.208 -112.2853)" width="1.7" height="71.4" class="i"/><path d="M335.2 326.4l13.4 21.8c0.4 0.6-0.2 1.3-0.8 1.1l-14.5-4c-0.6-0.2-1.1 0.5-0.8 1l7.3 13.9c0.2 0.3 0.1 0.7-0.1 0.9l-6.7 6.3c-0.1 0.1-0.3 0.2-0.5 0.2l-14.9 0.1c-0.2 0-0.3 0.1-0.5 0.2l-15.1 13.2" class="j"/><path d="M332.3 395.6l-0.4-0.2c-0.4-0.3-0.6-0.8-0.3-1.3l11.2-18.9c0.3-0.4 0.8-0.6 1.3-0.3l0.4 0.2c0.4 0.3 0.6 0.8 0.3 1.3l-11.2 18.9C333.3 395.7 332.7 395.9 332.3 395.6z" class="i"/><path d="M328.3 393.3l-0.4-0.2c-0.4-0.3-0.6-0.8-0.3-1.3l11.2-18.9c0.3-0.4 0.8-0.6 1.3-0.3l0.4 0.2c0.4 0.3 0.6 0.8 0.3 1.3l-11.2 18.9C329.3 393.4 328.8 393.5 328.3 393.3z" class="i"/><path d="M324.2 390.8l-0.4-0.2c-0.4-0.3-0.6-0.8-0.3-1.3l11.2-18.9c0.3-0.4 0.8-0.6 1.3-0.3l0.4 0.2c0.4 0.3 0.6 0.8 0.3 1.3l-11.2 18.9C325.2 390.9 324.6 391.1 324.2 390.8z" class="i"/><path d="M596.3 502.9l-23.4 39.4c-2.4 4.1-7.7 5.5-11.8 3L495 506.1c-4.1-2.4-5.4-7.7-3-11.8l23.4-39.4c2.4-4.1 7.7-5.4 11.8-3l66 39.2C597.3 493.5 598.7 498.8 596.3 502.9z" class="h"/><path d="M580.8 516.7c1.5 0.9 2 2.9 1.1 4.4 -0.9 1.5-2.9 2-4.4 1.1 -1.5-0.9-2-2.9-1.1-4.4C577.3 516.3 579.3 515.8 580.8 516.7z" fill="#64121A"/><path d="M583 502.2L565.9 531c-2.2 3.7-7 4.9-10.7 2.7l-51.9-30.8c-3.7-2.2-4.9-7-2.7-10.7l17.1-28.8c2.2-3.7 7-4.9 10.7-2.7l51.9 30.8C584 493.7 585.2 498.5 583 502.2z" class="b"/><path d="M518.5 495.1l-0.4-0.2c-0.4-0.3-0.6-0.8-0.3-1.3l11.2-18.9c0.3-0.4 0.8-0.6 1.3-0.3l0.4 0.2c0.4 0.3 0.6 0.8 0.3 1.3l-11.2 18.9C519.5 495.2 519 495.4 518.5 495.1z" class="k"/><path d="M514.6 492.7l-0.4-0.2c-0.4-0.3-0.6-0.8-0.3-1.3l11.2-18.9c0.3-0.4 0.8-0.6 1.3-0.3l0.4 0.2c0.4 0.3 0.6 0.8 0.3 1.3l-11.2 18.9C515.6 492.9 515 493 514.6 492.7z" class="k"/><path d="M510.4 490.3l-0.4-0.2c-0.4-0.3-0.6-0.8-0.3-1.3l11.2-18.9c0.3-0.4 0.8-0.6 1.3-0.3l0.4 0.2c0.4 0.3 0.6 0.8 0.3 1.3l-11.2 18.9C511.4 490.4 510.9 490.5 510.4 490.3z" class="k"/><path d="M527.4 513.4l-0.4-0.2c-0.4-0.3-0.6-0.8-0.3-1.3l20.8-34.9c0.3-0.4 0.8-0.6 1.3-0.3l0.4 0.2c0.4 0.3 0.6 0.8 0.3 1.3l-20.7 34.9C528.4 513.5 527.9 513.7 527.4 513.4z" class="f"/><path d="M523.5 511l-0.4-0.2c-0.4-0.3-0.6-0.8-0.3-1.3l20.8-34.9c0.3-0.4 0.8-0.6 1.3-0.3l0.4 0.2c0.4 0.3 0.6 0.8 0.3 1.3l-20.7 34.9C524.5 511.2 523.9 511.3 523.5 511z" class="f"/><path d="M519.3 508.6l-0.4-0.2c-0.4-0.3-0.6-0.8-0.3-1.3l20.8-34.9c0.3-0.4 0.8-0.6 1.3-0.3l0.4 0.2c0.4 0.3 0.6 0.8 0.3 1.3l-20.7 34.9C520.3 508.7 519.8 508.8 519.3 508.6z" class="f"/><path d="M539.3 520.5l-0.4-0.2c-0.4-0.3-0.6-0.8-0.3-1.3l20.8-34.9c0.3-0.4 0.8-0.6 1.3-0.3l0.4 0.2c0.4 0.3 0.6 0.8 0.3 1.3l-20.7 34.9C540.3 520.6 539.8 520.7 539.3 520.5z" class="f"/><path d="M535.4 518.1l-0.4-0.2c-0.4-0.3-0.6-0.8-0.3-1.3l20.8-34.9c0.3-0.4 0.8-0.6 1.3-0.3l0.4 0.2c0.4 0.3 0.6 0.8 0.3 1.3l-20.7 34.9C536.4 518.2 535.8 518.4 535.4 518.1z" class="f"/><path d="M531.2 515.6l-0.4-0.2c-0.4-0.3-0.6-0.8-0.3-1.3l20.8-34.9c0.3-0.4 0.8-0.6 1.3-0.3l0.4 0.2c0.4 0.3 0.6 0.8 0.3 1.3l-20.7 34.9C532.2 515.8 531.7 515.9 531.2 515.6z" class="f"/><path d="M551.4 527.6l-0.4-0.2c-0.4-0.3-0.6-0.8-0.3-1.3l20.8-34.9c0.3-0.4 0.8-0.6 1.3-0.3l0.4 0.2c0.4 0.3 0.6 0.8 0.3 1.3l-20.7 34.9C552.4 527.7 551.8 527.9 551.4 527.6z" class="f"/><path d="M547.4 525.3l-0.4-0.2c-0.4-0.3-0.6-0.8-0.3-1.3l20.8-34.9c0.3-0.4 0.8-0.6 1.3-0.3l0.4 0.2c0.4 0.3 0.6 0.8 0.3 1.3l-20.7 34.9C548.4 525.4 547.9 525.5 547.4 525.3z" class="f"/><path d="M559.5 532.5l-0.4-0.2c-0.4-0.3-0.6-0.8-0.3-1.3l20.8-34.9c0.3-0.4 0.8-0.6 1.3-0.3l0.4 0.2c0.4 0.3 0.6 0.8 0.3 1.3l-20.7 34.9C560.5 532.6 560 532.7 559.5 532.5z" class="f"/><path d="M555.6 530.1l-0.4-0.2c-0.4-0.3-0.6-0.8-0.3-1.3l20.8-34.9c0.3-0.4 0.8-0.6 1.3-0.3l0.4 0.2c0.4 0.3 0.6 0.8 0.3 1.3l-20.7 34.9C556.6 530.2 556 530.4 555.6 530.1z" class="f"/><path d="M543.3 522.8l-0.4-0.2c-0.4-0.3-0.6-0.8-0.3-1.3l20.8-34.9c0.3-0.4 0.8-0.6 1.3-0.3l0.4 0.2c0.4 0.3 0.6 0.8 0.3 1.3l-20.7 34.9C544.3 522.9 543.7 523.1 543.3 522.8z" class="f"/><path d="M358.8 299.7l9.1-15.3c1.1-1.9 3.6-2.5 5.5-1.4l35.8 21.3c1.9 1.1 2.5 3.6 1.4 5.5l-9.1 15.3c-1.1 1.9-3.6 2.5-5.5 1.4l-35.8-21.3C358.3 304 357.6 301.6 358.8 299.7z" class="h"/><path d="M367.5 302.1l6.7-11.2c1-1.7 3.2-2.2 4.8-1.2l26.6 15.8c1.7 1 2.2 3.2 1.2 4.8l-6.6 11.2c-1 1.7-3.1 2.2-4.8 1.2l-26.5-15.8C367 305.9 366.5 303.8 367.5 302.1z" class="b"/><path d="M367.3 295.8c-0.6-0.4-0.8-1.2-0.5-1.8 0.4-0.6 1.2-0.8 1.9-0.5 0.6 0.4 0.9 1.2 0.5 1.9C368.8 296 367.9 296.2 367.3 295.8z" class="b"/><path d="M473.9 264.6l39.4 23.4c4.1 2.4 5.5 7.7 3 11.8l-39.2 66c-2.4 4.1-7.7 5.5-11.8 3l-39.4-23.4c-4.1-2.4-5.4-7.7-3-11.8l39.2-66C464.5 263.5 469.8 262.2 473.9 264.6z" class="j"/><path d="M528.1 296.9l39.4 23.4c4.1 2.4 5.5 7.7 3 11.8l-39.2 66c-2.4 4.1-7.7 5.5-11.8 3l-39.4-23.4c-4.1-2.4-5.4-7.7-3-11.8l39.2-66C518.7 295.8 524 294.4 528.1 296.9z" class="j"/><rect x="445.1" y="275.4" transform="matrix(-0.8597 -0.5108 0.5108 -0.8597 712.9704 826.2995)" width="49.7" height="79.8" class="f"/><rect x="482.3" y="303.3" transform="matrix(-0.8597 -0.5108 0.5108 -0.8597 786.0957 902.2214)" width="69.4" height="79.8" class="f"/><path d="M460.9 256.9l0.9 0.6c1.1 0.7 1.5 2.1 0.8 3.2l-26.1 43.9c-0.7 1.1-2.1 1.5-3.2 0.8l-0.9-0.5c-1.1-0.7-1.5-2.1-0.8-3.2l26.1-43.9C458.4 256.6 459.8 256.3 460.9 256.9z" class="l"/><path d="M430.7 305.9l0.9-4.1 4.9 2.9 -3.1 2.8C432.2 308.5 430.4 307.4 430.7 305.9z" class="l"/><path d="M523.9 387.3l-38-22.6c-0.7-0.4-0.9-1.3-0.5-1.9l0.3-0.6c0.4-0.7 1.3-0.9 2-0.5l38 22.6c0.7 0.4 0.9 1.3 0.5 2l-0.3 0.6C525.5 387.5 524.6 387.7 523.9 387.3z" class="b"/><path d="M528 380.4l-38-22.6c-0.7-0.4-0.9-1.3-0.5-1.9l0.3-0.6c0.4-0.7 1.3-0.9 2-0.5l38 22.6c0.7 0.4 0.9 1.3 0.5 2l-0.3 0.6C529.6 380.6 528.7 380.8 528 380.4z" class="b"/><path d="M531.9 374l-38-22.6c-0.7-0.4-0.9-1.3-0.5-1.9l0.3-0.6c0.4-0.7 1.3-0.9 2-0.5l38 22.6c0.7 0.4 0.9 1.3 0.5 2l-0.3 0.6C533.4 374.2 532.6 374.4 531.9 374z" class="b"/><path d="M534.7 366.3l-38-22.6c-0.7-0.4-0.9-1.3-0.5-1.9l0.3-0.6c0.4-0.7 1.3-0.9 2-0.5l38 22.6c0.7 0.4 0.9 1.3 0.5 2l-0.3 0.6C536.2 366.5 535.4 366.7 534.7 366.3z" class="b"/><path d="M536 367.1l-38-22.6c-0.7-0.4-0.9-1.3-0.5-1.9l0.3-0.6c0.4-0.7 1.3-0.9 2-0.5l38 22.6c0.7 0.4 0.9 1.3 0.5 2l-0.3 0.6C537.5 367.3 536.6 367.5 536 367.1z" class="b"/><path d="M540.1 360.2l-38-22.6c-0.7-0.4-0.9-1.3-0.5-1.9l0.3-0.6c0.4-0.7 1.3-0.9 2-0.5l38 22.6c0.7 0.4 0.9 1.3 0.5 2l-0.3 0.6C541.6 360.4 540.7 360.6 540.1 360.2z" class="b"/><path d="M543.9 353.8l-38-22.6c-0.7-0.4-0.9-1.3-0.5-1.9l0.3-0.6c0.4-0.7 1.3-0.9 2-0.5l38 22.6c0.7 0.4 0.9 1.3 0.5 2l-0.3 0.6C545.4 353.9 544.6 354.2 543.9 353.8z" class="b"/><path d="M548 346.9l-38-22.6c-0.7-0.4-0.9-1.3-0.5-1.9l0.3-0.6c0.4-0.7 1.3-0.9 2-0.5l38 22.6c0.7 0.4 0.9 1.3 0.5 2l-0.3 0.6C549.5 347 548.7 347.3 548 346.9z" class="b"/><path d="M472.5 356.8l-38-22.6c-0.7-0.4-0.9-1.3-0.5-1.9l0.3-0.6c0.4-0.7 1.3-0.9 2-0.5l38 22.6c0.7 0.4 0.9 1.3 0.5 2l-0.3 0.6C474.1 357 473.2 357.2 472.5 356.8z" class="b"/><path d="M476.6 349.9l-38-22.6c-0.7-0.4-0.9-1.3-0.5-1.9l0.3-0.6c0.4-0.7 1.3-0.9 2-0.5l38 22.6c0.7 0.4 0.9 1.3 0.5 2l-0.3 0.6C478.2 350.1 477.3 350.3 476.6 349.9z" class="b"/><path d="M480.4 343.4l-38-22.6c-0.7-0.4-0.9-1.3-0.5-1.9l0.3-0.6c0.4-0.7 1.3-0.9 2-0.5l38 22.6c0.7 0.4 0.9 1.3 0.5 2l-0.3 0.6C482 343.6 481.1 343.8 480.4 343.4z" class="b"/><path d="M484.5 336.5l-38-22.6c-0.7-0.4-0.9-1.3-0.5-1.9l0.3-0.6c0.4-0.7 1.3-0.9 2-0.5l38 22.6c0.7 0.4 0.9 1.3 0.5 2l-0.3 0.6C486.1 336.7 485.2 336.9 484.5 336.5z" class="b"/><path d="M488.6 329.7l-38-22.6c-0.7-0.4-0.9-1.3-0.5-1.9l0.3-0.6c0.4-0.7 1.3-0.9 2-0.5l38 22.6c0.7 0.4 0.9 1.3 0.5 2l-0.3 0.6C490.2 329.8 489.3 330.1 488.6 329.7z" class="b"/><path d="M492.5 323.2l-38-22.6c-0.7-0.4-0.9-1.3-0.5-1.9l0.3-0.6c0.4-0.7 1.3-0.9 2-0.5l38 22.6c0.7 0.4 0.9 1.3 0.5 2l-0.3 0.6C494 323.4 493.1 323.6 492.5 323.2z" class="b"/><path d="M496.6 316.3l-38-22.6c-0.7-0.4-0.9-1.3-0.5-1.9l0.3-0.6c0.4-0.7 1.3-0.9 2-0.5l38 22.6c0.7 0.4 0.9 1.3 0.5 2l-0.3 0.6C498.1 316.5 497.2 316.7 496.6 316.3z" class="b"/><path d="M270.9 493l-7.2-4.3c-1.5-0.9-2.1-2.9-1.1-4.5l0.8-1.3c0.9-1.5 2.9-2.1 4.5-1.1l7.2 4.3L270.9 493z" class="d"/><path d="M397 253.3l-7.2-4.3c-1.5-0.9-2.1-2.9-1.1-4.5l0.8-1.3c0.9-1.5 2.9-2.1 4.5-1.1l7.2 4.3L397 253.3z" class="d"/><path d="M426.3 265.1c-3.9 6.5-12.2 8.6-18.7 4.8 -6.5-3.9-8.6-12.2-4.8-18.7 3.9-6.5 12.2-8.6 18.7-4.8C428 250.2 430.2 258.6 426.3 265.1z" class="d"/><path d="M264.2 489l-7.2-4.3c-1.5-0.9-2.1-2.9-1.1-4.5l0.8-1.3c0.9-1.5 2.9-2.1 4.5-1.1l7.2 4.3L264.2 489z" class="g"/><path d="M293.6 500.8c-3.9 6.5-12.2 8.6-18.7 4.8 -6.5-3.9-8.6-12.2-4.8-18.7 3.9-6.5 12.2-8.6 18.7-4.8C295.3 485.9 297.4 494.3 293.6 500.8z" class="l"/><path d="M593.3 421.2l4.3-7.2c0.9-1.5 2.9-2.1 4.5-1.1l1.3 0.8c1.6 0.9 2.1 2.9 1.1 4.5l-4.3 7.2L593.3 421.2z" class="g"/><path d="M396.1 269.3c-9.1-5.4-12-17.1-6.7-26.2 5.4-9.1 17.1-12 26.2-6.7 9.1 5.4 12 17.1 6.7 26.2C416.9 271.7 405.1 274.7 396.1 269.3z" class="e"/><path d="M456 685.8h-3.9c-0.4-3.1-3.1-5.5-6.4-5.5 -3.2 0-5.9 2.4-6.4 5.6h-6c-4.3 0-8.5 0.6-12.4 1.6 15.5 1.3 31 1.2 46.3-0.3C463.7 686.2 459.9 685.8 456 685.8zM456 685.8h-3.9c-0.4-3.1-3.1-5.5-6.4-5.5 -3.2 0-5.9 2.4-6.4 5.6h-6c-4.3 0-8.5 0.6-12.4 1.6 15.5 1.3 31 1.2 46.3-0.3C463.7 686.2 459.9 685.8 456 685.8zM690.2 438.8l-186.6-5.9c-0.4-0.3-0.7-0.6-1.1-0.8 0.3-1.2 0.5-2.4 0.7-3.7l1-1 1-0.9 0 0 1.4-1.4 2.7 2.8 4.5-4.4 3.7 3.8 142-139.3c-20.8-31.6-49-59.1-83.7-79.7 -19.6-11.7-40.2-20.4-61.1-26.4l-69.4 201.4 5 1.7 -2 5.9 3.7 1.3 -1.5 4.5c-0.7 0.5-1.5 1-2.1 1.5 -1.8-4.2-3.5-6.5-6.7-8.6l-1.7-4.8 3.5-1 -60.9-175.1c-0.2-7.9-2.6-15.7-6.8-22.5 -0.9-1.4-1.9-2.8-2.9-4.1 -61.1 17.5-115.9 57.4-150.9 116.4 -0.3 0.5-0.5 0.9-0.8 1.4 2.7 2.3 5.8 4.3 9 5.8l152.4 125.8 2.7-3.6 2.3 1.8c0.1 0.6 0.3 1.2 0.5 1.8 -0.9 0.7-1.8 1.4-2.6 2.2l-4.7 0.4 -0.3-3.8 -6.2 0.5 -0.4-5.2 -187.6 16.1c2.6 57.3 24.3 113 62.4 157.3l152.8-93.4 -2.7-4.5 5.4-3.3 -2-3.3 4-2.5c1.4 0.2 2.7 0.2 4 0.2 1.8 0 3.5-0.1 5.2-0.4 -0.2 4.9 0.6 9.9 2.9 15.3l-1.1 4.6 -3.7-0.9 -1.5 6.1 -5.1-1.3 -40 161.3c13.9 4.3 28 7.4 42.3 9.3l38.8-159 0.3-1.3 -1.6-0.4 0.2-0.7 0 0 1.1-4.3 0.1-0.7 0.1-0.5h0l0.7-3.2 0.7-0.6 0.5 2.5 0 0 0.1 0.5 0.1 0.7 0.9 4.2h0l0.2 0.7 -1.6 0.4 35.3 160.5c14.3-2.3 28.3-5.8 42-10.4l-35.6-159.4 -5.1 1.2 -1.4-6.1 -3.8 0.9 -1-4.6c1.4-3 2.3-5.9 2.8-8.8 0.8 0.1 1.6 0.1 2.5 0l1.9 1.3 9.4 6.3 134.5 90c1 3.1 2.4 6.1 4.3 8.9 11.6-12.6 22-26.6 31.1-41.8 23.9-40 35.7-83.9 36.4-127.4C698 435.4 693.9 436.7 690.2 438.8zM384.8 467.1l-0.4 0.2 -0.6 0.4 -3.7 2.3 0 0 -0.6 0.4 -0.8-1.4 -150.5 91.2c3.6-10.5 3.7-21.9 0.1-32.6l-1.6-4.7c1.2-0.6 2.3-1.6 2.9-2.9 0.8-1.5 0.9-3.3 0.3-4.9 -0.6-1.6-1.7-2.9-3.3-3.7 -1.3-0.6-2.7-0.8-4.1-0.5l-1.6-4.7c-3.2-9.4-8.9-17.2-16.1-23l172.2-15.4 -0.1-1.6 0.7 0v0l4.4-0.4 0.7-0.1 0.5 0v0l3.2-0.4 0.8 0.5L384.8 467.1zM410.9 404.8c0 0 0 0 0 0l-0.5 1.3 -5.2 0 -2.5-2 2-2.6 -121.1-99.2c2.5 0.4 5 0.6 7.4 0.6 9.2 0 18.5-2.5 26.8-7.8l4.2-2.6c1.2 1.5 3.1 2.3 4.9 2.3 1.2 0 2.4-0.3 3.4-1 1.5-0.9 2.5-2.3 2.9-4 0.3-1.4 0.1-2.8-0.4-4.1l4.2-2.6c11.5-7.3 19-18.4 22-30.7l48.5 141.9 4-1.2 1.9 5.4L410.9 404.8zM488.7 397.8l-0.5 0.5 0 0 -3.1 3.1 -0.5 0.5 -0.3 0.3 -2.2 2.3 -0.9 0.1 0.9-2.3 0 0 0.2-0.5 0.2-0.7 1.4-4.1h0l0.2-0.7 1.5 0.5 58-166.2c3.9 10.4 11.1 19.2 20.7 25.1l4.2 2.6c-1.3 2.9-0.3 6.4 2.5 8.1 1 0.6 2.2 1 3.4 1 0.5 0 1-0.1 1.5-0.2 1.4-0.3 2.6-1.1 3.5-2.2l4.2 2.6c8 5 17.1 7.5 26.3 7.5 0.3 0 0.5 0 0.8 0L487.6 396.6 488.7 397.8zM635.9 496.7l-1.2 3.2c-0.4 0.1-0.8 0.3-1.2 0.4 -2.3 1.1-4.1 2.9-5 5.3 -0.9 2.4-0.8 5 0.3 7.3 0.2 0.4 0.4 0.7 0.6 1.1l-2 5.4c-4.8 12.8-4.3 26.4 0.2 38.2l-126.1-84.3 -1.6-4.9c0-0.2-0.1-0.4-0.2-0.6l0-0.1 -0.3-0.9 -0.4-1.4c0 0 0 0 0.1 0l4.1-3.1 159.3 5.1C650.6 473.2 640.9 483.4 635.9 496.7zM452.2 685.8c-0.4-3.1-3.1-5.5-6.4-5.5 -3.2 0-5.9 2.4-6.4 5.6h-6c-4.3 0-8.5 0.6-12.4 1.6 15.5 1.3 31 1.2 46.3-0.3 -3.6-0.8-7.4-1.3-11.2-1.3H452.2zM456 685.8h-3.9c-0.4-3.1-3.1-5.5-6.4-5.5 -3.2 0-5.9 2.4-6.4 5.6h-6c-4.3 0-8.5 0.6-12.4 1.6 15.5 1.3 31 1.2 46.3-0.3C463.7 686.2 459.9 685.8 456 685.8z" style="fill:#63121B;opacity:0.3"/><path d="M491.9 455.2c1.2-0.5 4.3-2.6 4.6-4l0.5-3.8c0.6-2.8 6.2-3 5-5.7l-1.2-3.8c-1.8-5.6-5.4-10.5-10.3-13.7 -0.2-0.1-0.4-0.2-0.5-0.3l-11.1-7.4c-1.9-1.3-4.6-0.9-6 1 -1.4 2-0.8 4.6 1.1 6l12.6 8.3 3.8 8.5 -2 10.2c-0.5 2.3 1 4.6 3.3 5.1C492.3 455.7 491.1 455.6 491.9 455.2z" class="m"/><path d="M501.6 440.6l2.2 7 185.1 123.8 -15 22.3L488.4 469.5l0 0c-5.1 0.5-8.2-1-15-5.6l-20.2-13.6 19-28.2 14.4 9.7" class="m"/><path d="M476.7 425.1l-30-20.2c-1.9-1.3-4.6-0.8-5.9 1.2l0 0c-1.3 2-0.8 4.6 1.2 5.9l28.9 19.5" class="m"/><path d="M468.9 430.1l-30-20.2c-1.9-1.3-4.6-0.8-5.9 1.2l0 0c-1.3 2-0.8 4.6 1.2 5.9l30 20.2" class="m"/><path d="M466.1 438.5l-30-20.2c-1.9-1.3-4.6-0.8-5.9 1.2l0 0c-1.3 2-0.8 4.6 1.2 5.9l30 20.2" class="m"/><path d="M461.3 445.6l-24.5-16.5c-1.9-1.3-4.6-0.8-5.9 1.2l0 0c-1.3 2-0.8 4.6 1.2 5.9l30 20.2" class="m"/><path d="M472.2 418.5l0 3.6 17 11.4 0 0c0.9-1.4 0.6-3.2-0.8-4.2L472.2 418.5z" class="n"/><path d="M446.5 410.4l0.6-0.8c0.7-1 0.4-2.3-0.6-2.9l-2.6-1.7c-1-0.7-2.3-0.4-2.9 0.6l-0.5 0.8c-0.7 1-0.4 2.3 0.6 3l2.6 1.7C444.5 411.7 445.9 411.4 446.5 410.4z" class="k"/><path d="M438.8 415.6l0.6-0.8c0.7-1 0.4-2.3-0.6-2.9l-2.6-1.7c-1-0.7-2.3-0.4-2.9 0.6l-0.5 0.8c-0.7 1-0.4 2.3 0.6 3l2.6 1.7C436.8 416.9 438.1 416.6 438.8 415.6z" class="k"/><path d="M436 424l0.6-0.8c0.7-1 0.4-2.3-0.6-2.9l-2.6-1.7c-1-0.7-2.3-0.4-2.9 0.6l-0.5 0.8c-0.7 1-0.4 2.3 0.6 3l2.6 1.7C434 425.3 435.4 425 436 424z" class="k"/><path d="M436.7 434.7l0.6-0.8c0.7-1 0.4-2.3-0.6-2.9l-2.6-1.7c-1-0.7-2.3-0.4-2.9 0.6l-0.5 0.8c-0.7 1-0.4 2.3 0.6 3l2.6 1.7C434.8 436 436.1 435.7 436.7 434.7z" class="k"/><path d="M481.4 420.6l1.2-1.7 -6-4 -0.2 0.3c-0.5 0.8-0.3 1.8 0.5 2.3L481.4 420.6z" class="k"/><path d="M501 421.1c0.7 1.2 2 4.7 1.4 6l-1.8 3.4c-1.2 2.6 3.3 6.1 0.8 7.5l-3.2 2.4c-4.7 3.5-10.5 5.3-16.4 5.1 -0.2 0-0.4 0-0.6 0l-13.3-0.5c-2.3-0.1-4.3-2-4.2-4.3 0-2.4 2-4.3 4.4-4.2l15.1 0.5 8-4.7 4.3-9.4c1-2.1 3.4-3.1 5.6-2.2C501.6 421 500.5 420.4 501 421.1z" class="m"/><path d="M500.4 438.7l5.9-4.4 222.6 7.1 0.8-26.8 -223.1-7.1 0 0c-3.9-3.4-7.2-4-15.5-4.2l-24.4-0.7 -1 34 17.3 0.5" class="m"/><path d="M471 436.7l-36.1-1c-2.3-0.1-4.2-2-4.1-4.4l0 0c0.1-2.3 2-4.2 4.4-4.1L470 428.2" class="m"/><path d="M467.7 428.1l-36.1-1c-2.3-0.1-4.2-2-4.1-4.4l0 0c0.1-2.3 2-4.2 4.4-4.1l36.1 1.1" class="m"/><path d="M470.3 419.7l-36.1-1c-2.3-0.1-4.2-2-4.1-4.4l0 0c0.1-2.3 2-4.2 4.4-4.1l36.1 1.1" class="m"/><path d="M470.5 411.2l-29.5-0.8c-2.3-0.1-4.2-2-4.1-4.4l0 0c0.1-2.3 2-4.2 4.4-4.1l36.1 1.1" class="m"/><path d="M463.6 439.5l2.1-2.9 20.5 0.6 0 0c0 1.7-1.4 3-3.1 2.9L463.6 439.5z" class="n"/><path d="M438 431.1l0 1c0 1.2-1 2.1-2.2 2.1l-3.1-0.1c-1.2 0-2.1-1-2.1-2.2l0-1c0-1.2 1-2.1 2.2-2.1l3.1 0.1C437.1 429 438 429.9 438 431.1z" class="k"/><path d="M434.8 422.4l0 1c0 1.2-1 2.1-2.2 2.1l-3.1-0.1c-1.2 0-2.1-1-2.1-2.2l0-1c0-1.2 1-2.1 2.2-2.1l3.1 0.1C433.9 420.2 434.8 421.2 434.8 422.4z" class="k"/><path d="M437.4 413.9l0 1c0 1.2-1 2.1-2.2 2.1l-3.1-0.1c-1.2 0-2.1-1-2.1-2.2l0-1c0-1.2 1-2.1 2.2-2.1l3.1 0.1C436.5 411.8 437.4 412.8 437.4 413.9z" class="k"/><path d="M444.2 405.7l0 1c0 1.2-1 2.1-2.2 2.1l-3.1-0.1c-1.2 0-2.1-1-2.1-2.2l0-1c0-1.2 1-2.1 2.2-2.1l3.1 0.1C443.3 403.5 444.2 404.5 444.2 405.7z" class="k"/><path d="M472.3 443.2l-0.1 2.1 -7.2-0.2 0-0.4c0-0.9 0.8-1.7 1.7-1.6L472.3 443.2z" class="k"/><polygon points="491.9 471.8 507.3 449.9 514.2 454.5 499 476.6 " class="o"/><path d="M508.6 465.2c-1.1 2.9-4.2 4.3-7.1 3.2 -2.8-1.1-4.3-4.2-3.2-7.1 1.1-2.8 4.2-4.3 7.1-3.2C508.2 459.2 509.7 462.3 508.6 465.2z" class="h"/><path d="M663.7 592.9L663.7 592.9c-22.2-8.3-33.4-33-25.1-55.2l36.8-98.4c8.3-22.2 33-33.4 55.2-25.1h0c22.2 8.3 33.4 33 25.1 55.2l-36.8 98.4C710.6 589.9 685.9 601.2 663.7 592.9z" class="h"/><path d="M742.8 518.8L742.8 518.8c12-32-4.2-67.6-36.2-79.6l-5-1.9c-32-12-67.6 4.3-79.6 36.2v0c-12 32 4.3 67.6 36.2 79.6l5 1.9C695.1 567 730.8 550.8 742.8 518.8z" class="m"/><path d="M725.8 443.6l-18.4-6.9c-23.5-8.8-49.7 3.1-58.6 26.7l-14.1 37.5c-8.4 22.5 3 47.5 25.5 55.9l20.3 7.6c33.4 12.5 70.5-4.4 83-37.8v0C776.1 493.3 759.1 456.1 725.8 443.6z" class="l"/><path d="M767.7 504c0 7.5-1.3 15.2-4.1 22.6 -12.5 33.4-49.7 50.3-83 37.8l-20.3-7.6c-18.8-7-29.9-25.8-28-44.9 3.5 13.2 13 24.5 26.8 29.7l20.3 7.6c33.3 12.5 70.5-4.4 83-37.8 2.5-6.8 3.9-13.7 4.1-20.6C767.2 495.1 767.7 499.5 767.7 504z" class="p"/><path d="M626.4 482.8l-2.8-1c-4.2-1.6-6.4-6.3-4.8-10.5v0c1.6-4.2 6.3-6.4 10.5-4.8l2.6 1" class="m"/><path d="M716 439.9l-33.7-12.6c-18.5-6.9-38.7 5-41.5 24.6l-8.5 59.1 24.2 9.1 40.7-41.1L716 439.9" class="l"/><path d="M432.2 372.8c-1.3-0.3-5-0.5-6.1 0.4l-2.7 2.8c-2.2 1.9-6.7-1.3-7.4 1.5l-1.3 3.7c-2 5.6-2 11.6-0.1 17.2 0.1 0.2 0.1 0.4 0.2 0.6l4.4 12.6c0.8 2.2 3.2 3.5 5.4 2.8 2.3-0.7 3.5-3.2 2.7-5.4l-4.9-14.2 2.1-9 7.8-6.9c1.8-1.5 2-4.2 0.5-6C432.2 372.1 433.1 373 432.2 372.8z" class="m"/><path d="M415.6 378.6l2.4-6.9L345.4 161.2l25.4-8.7 72.8 211 0 0c4.4 2.7 5.9 5.7 8.6 13.5l7.9 23.1 -32.2 11 -5.6-16.4" class="m"/><path d="M426.2 406l11.7 34.2c0.8 2.2 3.2 3.4 5.4 2.7l0 0c2.2-0.8 3.4-3.2 2.7-5.4l-11.3-33" class="m"/><path d="M435.4 406.7l11.7 34.2c0.8 2.2 3.2 3.4 5.4 2.7l0 0c2.2-0.8 3.4-3.2 2.7-5.4l-11.7-34.2" class="m"/><path d="M442.7 401.7l11.7 34.2c0.8 2.2 3.2 3.4 5.4 2.7l0 0c2.2-0.8 3.4-3.2 2.7-5.4l-11.7-34.2" class="m"/><path d="M450.7 399l9.6 28c0.8 2.2 3.2 3.4 5.4 2.7l0 0c2.2-0.8 3.4-3.2 2.7-5.4L456.7 390" class="m"/><path d="M425.7 414l2.2-2.9 -6.6-19.4 0 0c-1.6 0.5-2.4 2.2-1.9 3.8L425.7 414z" class="n"/><path d="M441.3 435.9l-0.9 0.3c-1.1 0.4-1.7 1.6-1.3 2.7l1 2.9c0.4 1.1 1.6 1.7 2.7 1.3l0.9-0.3c1.1-0.4 1.7-1.6 1.3-2.7l-1-2.9C443.6 436.1 442.4 435.5 441.3 435.9z" class="k"/><path d="M450.6 436.5l-0.9 0.3c-1.1 0.4-1.7 1.6-1.3 2.7l1 2.9c0.4 1.1 1.6 1.7 2.7 1.3l0.9-0.3c1.1-0.4 1.7-1.6 1.3-2.7l-1-2.9C452.9 436.7 451.7 436.1 450.6 436.5z" class="k"/><path d="M457.9 431.4l-0.9 0.3c-1.1 0.4-1.7 1.6-1.3 2.7l1 2.9c0.4 1.1 1.6 1.7 2.7 1.3l0.9-0.3c1.1-0.4 1.7-1.6 1.3-2.7l-1-2.9C460.2 431.7 459 431.1 457.9 431.4z" class="k"/><path d="M463.8 422.5l-0.9 0.3c-1.1 0.4-1.7 1.6-1.3 2.7l1 2.9c0.4 1.1 1.6 1.7 2.7 1.3l0.9-0.3c1.1-0.4 1.7-1.6 1.3-2.7l-1-2.9C466.1 422.7 464.9 422.1 463.8 422.5z" class="k"/><path d="M419.7 406.8l-2 0.7 2.3 6.8 0.4-0.1c0.9-0.3 1.4-1.3 1-2.1L419.7 406.8z" class="k"/><path d="M404.4 394.5c0.2-1.3 1.2-4.9 2.5-5.6l3.5-1.6c2.5-1.4 1.1-6.8 3.9-6.4l4 0c5.9 0.1 11.6 2.1 16.2 5.8 0.2 0.1 0.3 0.3 0.5 0.4l10.3 8.4c1.8 1.5 2.2 4.2 0.8 6 -1.5 1.9-4.2 2.2-6 0.7l-11.7-9.5 -9.2-1.1 -9.1 5c-2 1.1-4.6 0.4-5.8-1.6C403.8 394.2 404.3 395.4 404.4 394.5z" class="m"/><path d="M415.5 380.9l-7.3-0.1L235.1 240.6l-16.8 20.9 173.5 140.5v0c1.1 5 3.4 7.5 9.8 12.7l19 15.3 21.4-26.5 -13.5-10.8" class="m"/><path d="M437.7 400.1l28.1 22.7c1.8 1.5 2.1 4.2 0.7 6l0 0c-1.5 1.8-4.1 2.1-6 0.7l-27.1-21.8" class="m"/><path d="M435.1 409.1l28.1 22.7c1.8 1.5 2.1 4.2 0.7 6l0 0c-1.5 1.8-4.1 2.1-6 0.7l-28.1-22.7" class="m"/><path d="M428 414.2l28.1 22.7c1.8 1.5 2.1 4.2 0.7 6l0 0c-1.5 1.8-4.1 2.1-6 0.7l-28.1-22.7" class="m"/><path d="M422.6 420.8l23 18.5c1.8 1.5 2.1 4.2 0.7 6l0 0c-1.5 1.8-4.1 2.1-6 0.7l-28.1-22.7" class="m"/><path d="M445.3 402.5l-3.4 1.1 -15.9-12.8 0 0c1-1.3 2.9-1.5 4.2-0.4L445.3 402.5z" class="n"/><path d="M460.6 424.6l0.6-0.8c0.7-0.9 2.1-1.1 3-0.3l2.4 2c0.9 0.7 1.1 2.1 0.3 3l-0.6 0.8c-0.7 0.9-2.1 1.1-3 0.3l-2.4-1.9C460 426.8 459.8 425.5 460.6 424.6z" class="k"/><path d="M457.9 433.5l0.6-0.8c0.7-0.9 2.1-1.1 3-0.3l2.4 2c0.9 0.7 1.1 2.1 0.3 3l-0.6 0.8c-0.7 0.9-2.1 1.1-3 0.3l-2.4-1.9C457.3 435.8 457.2 434.4 457.9 433.5z" class="k"/><path d="M450.7 438.7l0.6-0.8c0.7-0.9 2.1-1.1 3-0.3l2.4 2c0.9 0.7 1.1 2.1 0.3 3l-0.6 0.8c-0.7 0.9-2.1 1.1-3 0.3l-2.4-1.9C450.1 440.9 450 439.6 450.7 438.7z" class="k"/><path d="M440.3 441.1l0.6-0.8c0.7-0.9 2.1-1.1 3-0.3l2.4 2c0.9 0.7 1.1 2.1 0.3 3l-0.6 0.8c-0.7 0.9-2.1 1.1-3 0.3l-2.4-1.9C439.7 443.4 439.5 442 440.3 441.1z" class="k"/><path d="M440.6 394.3l1.3-1.6 5.6 4.5 -0.2 0.3c-0.6 0.7-1.6 0.8-2.4 0.3L440.6 394.3z" class="k"/><path d="M368.6 149.1l-158.2 100 0 0c-19.8-31.3-10.4-72.6 20.8-92.4l45-28.4C307.5 108.5 348.8 117.8 368.6 149.1L368.6 149.1z" class="o"/><polyline points=" 233.9 277.6 385.4 402.6 406.3 375 245.5 243.4 233.9 277.6 " class="h"/><polyline points=" 380.3 170.4 444.8 355.9 411.7 365.9 353.2 194.7 380.3 170.4 " class="h"/><path d="M233.9 277.6c-7-3.4-13.1-8.7-17.6-15.7v0c-12.7-20-6.7-46.5 13.4-59.2l88.8-56.1c20-12.7 46.5-6.7 59.2 13.4l0 0c4.3 6.9 6.5 14.5 6.6 22" class="h"/><polyline points="327.1 141.1 338.8 152.3 350.7 156.6 " class="o"/><path d="M265.7 159.4L265.7 159.4c-25.8 16.3-33.5 50.5-17.2 76.3l5.3 8.3c16.3 25.8 50.5 33.5 76.3 17.2l0 0c25.8-16.3 33.5-50.5 17.2-76.3l-5.3-8.3C325.7 150.8 291.5 143.1 265.7 159.4z" class="m"/><path d="M220.6 206.5c1.4 8.5 4.5 16.9 9.4 24.7l2.3 3.6c18.6 29.5 57.8 38.2 87.4 19.5l8.6-5.4c29.6-18.7 38.5-57.8 19.9-87.3l-2.3-3.6c-5.3-8.4-12.1-15.1-19.8-20.1" class="o"/><path d="M333 256.3l1.6 2.6c1.5 2.4 0.8 5.5-1.6 7l0 0c-2.4 1.5-5.5 0.8-7-1.6l-1.6-2.5" class="m"/><path d="M221 197.3l31.1 8.4 44.5-29.4 18.9-18.2 2.9-15.3c0 0-2.4-8-4.3-6.8 -1.9 1.2-22.2 2-23.8 3 -1.6 1-26.9 9.2-27.9 9.9 -1.1 0.7-24.3 12.2-25.1 15.9 -0.8 3.7-14.8 21.5-14.8 21.5L221 197.3z" fill="#FFD671"/><path d="M455.1 402.9c-0.2-0.8 21.6-16.9 21.6-16.9l2.8-6.1 9.1-1.1 10.5 13.1 7.5 7.8 -6.8 6.3L455.1 402.9z" class="q"/><path d="M477.5 400.5c-6.8 2.8-15.3-2.9-19.3-6.2 -2-1.6-4.8-1.7-6.8-0.1 0 0 0 0 0 0l-9.9 8c-2.1 1.7-5.3 1.3-6.9-0.9 -1.6-2.1-1.1-5.1 0.9-6.7l9.8-7.9c2.6-2.1 5.8-3.5 9.2-4l31.6-3.6" class="m"/><g class="s"><path d="M434.5 401.4c1.7 2.2 4.8 2.6 6.9 0.9l9.9-8c0 0 0 0 0 0 2-1.6 4.8-1.5 6.8 0.1 4 3.3 12.5 9 19.3 6.2l-0.3-2.6c-6.8 2.8-15.3-2.9-19.3-6.2 -2-1.6-4.8-1.7-6.8-0.1 0 0 0 0 0 0l-9.9 8c-2.1 1.7-5.3 1.4-6.9-0.9 -0.2-0.3-0.4-0.7-0.6-1.1C433.4 399 433.7 400.3 434.5 401.4z" class="t"/></g><path d="M505.3 401c-1.3 10.1-5.8 16.6-14.3 24.1l-22.3 20.2 -41.4-14.1 29.3-28.2" class="q"/><path d="M458.7 397.5c0.2-0.1 7.6-7.2 7.6-7.2s14.3 8.2 14.5 8c0.3-0.1 2.5 4.2-0.1 5.7 -2.5 1.5-14.8 7.6-15.7 7.6C464.2 411.7 458.7 397.5 458.7 397.5z" class="u"/><polyline points=" 505.3 401 513.9 392.6 491.7 373.4 489.4 375.6 486 379.1 " class="q"/><path d="M454.2 437.7l-1-1c-2.4-1.7-4.7 0.3-3-2l4.6-6.3c1.7-2.4 5-2.9 7.4-1.2l0 0c2.4 1.7 2.9 5 1.2 7.4l-4.6 6.4C457.1 443.2 456.6 439.4 454.2 437.7z" class="n"/><path d="M496.9 407.4c0.1 0 0.2 0 0.3 0l-1.6-0.1L496.9 407.4z" class="n"/><path d="M445.9 423.9l-17 16c-2.1 2.1-5.4 2-7.5-0.1l0 0c-2-2.1-2-5.4 0.1-7.5l40.4-37.9" class="m"/><path d="M470.1 429.7l-25.2 23.8c-2.1 2.1-5.4 2-7.5-0.1l0 0c-2-2.1-2-5.4 0.1-7.5l23.5-21.5" class="m"/><path d="M484.9 430.6l-25.7 23.9c-2.1 2.1-5.4 2-7.5-0.1l0 0c-2-2.1-2-5.4 0.1-7.5l18.4-17.3" class="q"/><path d="M460.9 424.4l-26.3 24.4c-2.1 2.1-5.4 2-7.5-0.1l0 0c-2-2.1-2-5.4 0.1-7.5l25.4-23.6" class="m"/><rect x="499.9" y="367.9" transform="matrix(0.7142 -0.7 0.7 0.7142 -125.0255 462.7083)" width="8.2" height="33.1" class="h"/><rect x="502.4" y="365.5" transform="matrix(0.7142 -0.7 0.7 0.7142 -122.5966 463.7575)" width="8.2" height="33.1" class="n"/><path d="M659.7 262.2L520.9 398.5l-28-28.5 169-167 0 0C677 220.1 676.1 246.2 659.7 262.2z" class="e"/><path d="M522.9 383.3c1.1 1.1 1.1 3 0 4.1 -1.1 1.1-3 1.1-4.1 0 -1.1-1.1-1.1-3 0-4.1C520 382.1 521.8 382.1 522.9 383.3z" class="v"/><path d="M457.1 453.2c0.3-0.1 0.6-0.3 0.9-0.6l1.9-1.6c1.4-1.2 1.6-3.3 0.4-4.7 -1.2-1.4-3.3-1.6-4.7-0.3l-1.9 1.6c-1.4 1.2-1.6 3.3-0.3 4.7C454.2 453.4 455.8 453.8 457.1 453.2z" class="w"/><path d="M450.2 451.2c0 0 2.1 2.8 5.9 0.6 3.1-1.7 28-26.2 38.2-36.3 2.8-2.7 4.5-6.4 4.7-10.3l0 0c0.2-3.4-0.7-6.8-2.5-9.7l-10.4-16.1 3.4-3.5 20.5 21 -4.6 4.4c0 0-0.7 4.2-2.8 9.9 -0.5 1.5-2.7 5.5-7 10 -12.5 11.5-36.4 33.7-36.4 33.7S452.2 459.2 450.2 451.2z" class="n"/><path d="M427.2 438.6c0.3-0.1 0.6-0.3 0.9-0.6l1.9-1.6c1.4-1.2 1.6-3.3 0.4-4.7 -1.2-1.4-3.3-1.6-4.7-0.3l-1.9 1.6c-1.4 1.2-1.6 3.3-0.3 4.7C424.3 438.8 425.9 439.1 427.2 438.6z" class="w"/><path d="M434 396.9c1 0.7 2.2 0.9 3.3 0.4 0.3-0.1 0.6-0.3 0.9-0.6l1.8-1.6c1.3-1.1 1.6-3.1 0.7-4.5 0-0.1-0.1-0.1-0.2-0.2l-4.9 4C434.9 395.1 434.3 396 434 396.9z" class="w"/><path d="M432.3 447.9c0.3-0.1 0.6-0.3 0.9-0.6l1.9-1.6c1.4-1.2 1.6-3.3 0.4-4.7 -1.2-1.4-3.3-1.6-4.7-0.3l-1.9 1.6c-1.4 1.2-1.6 3.3-0.3 4.7C429.5 448.2 431 448.5 432.3 447.9z" class="w"/><path d="M442.8 452.5c0.3-0.1 0.6-0.3 0.9-0.6l1.9-1.6c1.4-1.2 1.6-3.3 0.4-4.7s-3.3-1.6-4.7-0.3l-1.9 1.6c-1.4 1.2-1.6 3.3-0.3 4.7C439.9 452.7 441.5 453 442.8 452.5z" class="w"/><line x1="454.4" y1="382.7" x2="486" y2="379.1" class="c"/><path d="M451.4 394.2c0 0 0 0 0 0l-9.9 8c-2.1 1.7-5.3 1.3-6.9-0.9 -1.6-2.1-1.1-5.1 0.9-6.7l9.8-7.9c2.6-2.1 5.8-3.5 9.2-4" class="c"/><path d="M474.6 416.7c0.8-0.2 6-26.8 6-26.8l4.3-5.2 -2.9-8.7 -16.3-3.8 -10.3-3.4 -2.7 8.8L474.6 416.7z" class="x"/><path d="M467.1 395.4c0.4 7.4 9.2 12.6 13.9 14.8 2.3 1.1 3.6 3.6 3 6.1 0 0 0 0 0 0.1l-3 12.4c-0.6 2.7 1.1 5.3 3.8 5.9 2.6 0.5 5.1-1.2 5.7-3.7l3-12.3c0.8-3.3 0.7-6.8-0.3-10l-10.4-30.1" class="q"/><g class="s"><path d="M484.8 434.7c-2.7-0.5-4.4-3.2-3.7-5.9l3-12.4c0 0 0 0 0 0 0.6-2.5-0.7-5-3-6.1 -4.7-2.2-13.5-7.4-13.9-14.8l2.5-0.9c0.4 7.4 9.2 12.6 13.9 14.8 2.3 1.1 3.6 3.6 3 6.1 0 0 0 0 0 0.1l-3 12.4c-0.6 2.7 1.1 5.3 3.8 5.9 0.4 0.1 0.8 0.1 1.2 0.1C487.4 434.6 486.1 435 484.8 434.7z" class="t"/></g><path d="M454.7 370.5c-8.5 5.5-12.5 12.4-15.6 23.3l-8.6 28.8 30.6 31.3 12-34.9" class="q"/><path d="M477.9 411.2c0.1-0.2 3.3-10 3.3-10s-13.5-9.4-13.5-9.7c0-0.3-4.9-0.4-5.1 2.5 -0.3 2.9-0.5 16.6-0.2 17.4C462.7 412.3 477.9 411.2 477.9 411.2z" class="x"/><polyline points=" 454.7 370.5 458.6 359.2 485.5 371.1 484.5 374 482.8 378.6 " class="q"/><path d="M443.6 432.5l1.4 0.5c2.6 1.4 1.7 4.4 3.1 1.8l3.8-6.8c1.4-2.6 0.5-5.8-2.1-7.2l0 0c-2.6-1.4-5.8-0.5-7.2 2.1l-3.8 6.9C437.4 432.2 441 431.1 443.6 432.5z" class="n"/><path d="M452.6 380.9c-0.1-0.1-0.1-0.2-0.2-0.3l0.8 1.4L452.6 380.9z" class="n"/><path d="M459.6 434l-7.1 22.2c-0.9 2.8 0.5 5.8 3.3 6.7l0 0c2.8 1 5.8-0.5 6.7-3.3l16.9-52.7" class="q"/><path d="M444 414.7l-10.6 33c-0.9 2.8 0.5 5.8 3.3 6.7h0c2.8 1 5.8-0.5 6.7-3.3l9.3-30.4" class="q"/><path d="M436.7 401.7l-10.5 33.5c-0.9 2.8 0.5 5.8 3.3 6.7l0 0c2.8 1 5.8-0.5 6.7-3.3l7.7-24" class="q"/><path d="M452.7 420.7L441.9 455c-0.9 2.8 0.5 5.8 3.3 6.7h0c2.8 1 5.8-0.5 6.7-3.3l10.4-33.1" class="q"/><rect x="466.1" y="348.1" transform="matrix(0.3252 -0.9457 0.9457 0.3252 -27.4705 690.6953)" width="8.2" height="33.1" class="h"/><rect x="467.2" y="344.7" transform="matrix(0.3252 -0.9457 0.9457 0.3252 -23.5721 689.5399)" width="8.2" height="33.1" class="n"/><path d="M513.7 171.6l-63.4 183.9 37.8 13 78.2-224.4v0C544.3 137.8 521.2 149.9 513.7 171.6z" class="e"/><path d="M463.2 347.9c-1.5-0.5-3.2 0.3-3.7 1.8 -0.5 1.5 0.3 3.2 1.8 3.7 1.5 0.5 3.2-0.3 3.7-1.8C465.5 350.1 464.7 348.4 463.2 347.9z" class="v"/><path d="M428.3 436.6c0-0.3 0-0.7 0.1-1.1l0.7-2.4c0.5-1.8 2.3-2.8 4.1-2.3 1.8 0.5 2.8 2.3 2.4 4.1l-0.7 2.4c-0.5 1.8-2.3 2.8-4.1 2.4C429.3 439.3 428.4 438 428.3 436.6z" class="w"/><path d="M433.4 441.4c0 0-3.4-0.7-3.1-5.1 0.2-3.5 11.6-36.5 16.4-50 1.3-3.7 3.9-6.8 7.3-8.7l0 0c3-1.7 6.5-2.3 9.9-1.9l19 2.5 1.7-4.6 -27.7-9.5 -2 6.1c0 0-3.5 2.4-7.7 6.7 -1.1 1.1-3.8 4.8-6 10.6 -5 16.2-14.8 47.3-14.8 47.3S425.3 443 433.4 441.4z" class="n"/><path d="M454.4 457.3c0-0.3 0-0.7 0.1-1.1l0.7-2.4c0.5-1.8 2.3-2.8 4.1-2.3 1.8 0.5 2.8 2.3 2.4 4.1l-0.7 2.4c-0.5 1.8-2.3 2.8-4.1 2.4C455.4 459.9 454.5 458.7 454.4 457.3z" class="w"/><path d="M443.7 456.7c0-0.3 0-0.7 0.1-1.1l0.7-2.4c0.5-1.8 2.3-2.8 4.1-2.3 1.8 0.5 2.8 2.3 2.4 4.1l-0.7 2.4c-0.5 1.8-2.3 2.8-4.1 2.4C444.7 459.3 443.8 458.1 443.7 456.7z" class="w"/><path d="M435.1 449.2c0-0.3 0-0.7 0.1-1.1l0.7-2.4c0.5-1.8 2.3-2.8 4.1-2.3 1.8 0.5 2.8 2.3 2.4 4.1l-0.7 2.4c-0.5 1.8-2.3 2.8-4.1 2.4C436.2 451.9 435.2 450.6 435.1 449.2z" class="w"/><line x1="493.1" y1="408.7" x2="482.8" y2="378.6" class="c"/><path d="M507.4 189.9l2.9-9.5c15.4-50.3 74.6-71.9 118.8-43.5l15 9.6c41.5 26.7 47.4 85.2 11.9 119.6l-14.3 13.9" class="e"/><path d="M617.6 168.5L617.6 168.5c-28.3-17.4-65.4-8.6-82.9 19.7l0 0c-17.4 28.3-8.6 65.5 19.7 82.9h0c28.3 17.4 65.5 8.6 82.9-19.7l0 0C654.8 223 645.9 185.9 617.6 168.5z" class="q"/><path d="M560.1 271.5l-1.6 2.6c-1.5 2.4-4.6 3.2-7 1.7l0 0c-2.4-1.5-3.1-4.6-1.7-7l1.5-2.5" class="q"/><path d="M538.7 172.3L538.7 172.3c19.3-31.3 60.3-41.1 91.6-21.8l0 0c31.3 19.3 41.1 60.3 21.8 91.6l0 0c-19.3 31.3-60.3 41.1-91.6 21.8l0 0C529.2 244.6 519.4 203.6 538.7 172.3z" class="l"/><path d="M459.7 464.5c0.6 0.6-9.5 25.7-9.5 25.7l0.8 6.7 -7.2 5.7 -15.8-5.6 -10.5-2.7 2.5-8.9L459.7 464.5z" class="u"/><path d="M442 478.3c4.3-6 14.5-5.6 19.7-4.9 2.5 0.3 5-1.1 5.9-3.5 0 0 0 0 0 0l4.2-12c0.9-2.6 3.8-3.9 6.3-2.9 2.5 1 3.6 3.7 2.8 6.2l-4.2 11.9c-1.1 3.2-3.1 6.1-5.7 8.3l-25 19.7" class="m"/><g class="s"><path d="M478 454.8c-2.6-1-5.4 0.3-6.3 2.9l-4.2 12c0 0 0 0 0 0.1 -0.8 2.4-3.3 3.8-5.8 3.5 -5.1-0.6-15.3-1.1-19.7 4.9l1.6 2.1c4.3-6 14.5-5.6 19.7-4.9 2.5 0.3 5-1.1 5.9-3.5 0 0 0 0 0 0l4.2-12c0.9-2.6 3.8-3.9 6.3-2.9 0.4 0.2 0.8 0.4 1.1 0.6C480.2 456.3 479.3 455.3 478 454.8z" class="t"/></g><path d="M418.1 492.5c-4.2-9.2-3.8-17.2-0.6-28l8.3-28.9 42.7-9.8 -10 39.4" class="m"/><path d="M459.5 470.9c0 0.2-2.6 10.1-2.6 10.1s-16.4 0.6-16.6 0.8c-0.2 0.3-4.3-2.3-3-4.9 1.4-2.6 8.6-14.3 9.3-14.7C447.4 461.7 459.5 470.9 459.5 470.9z" class="u"/><polyline points=" 418.1 492.5 415.2 504.2 444.2 508.7 445 505.7 446 500.9 " class="m"/><path d="M442.2 434.4l1.4 0.3c2.9 0.2 3.8-2.7 3.6 0.2l-0.5 7.8c-0.2 2.9-2.7 5.1-5.6 4.9l0 0c-2.9-0.2-5.1-2.7-4.9-5.6l0.5-7.8C436.9 431.3 439.3 434.2 442.2 434.4z" class="n"/><path d="M421.9 482.7c-0.1 0.1-0.2 0.1-0.3 0.1l1.5-0.8L421.9 482.7z" class="n"/><path d="M456.5 441.8l6-22.5c0.7-2.8 3.6-4.6 6.4-3.9l0 0c2.8 0.7 4.6 3.6 3.9 6.4l-14.3 53.5" class="m"/><path d="M432.9 449.6l8.9-33.5c0.7-2.8 3.6-4.6 6.4-3.9l0 0c2.8 0.7 4.6 3.6 3.9 6.4l-8.6 30.6" class="m"/><path d="M419.8 456.6l9.3-33.8c0.7-2.8 3.6-4.6 6.4-3.9l0 0c2.8 0.7 4.6 3.6 3.9 6.4l-6.5 24.4" class="m"/><path d="M443.5 449.2l9.5-34.6c0.7-2.8 3.6-4.6 6.4-3.9l0 0c2.8 0.7 4.6 3.6 3.9 6.4l-9.1 33.5" class="m"/><rect x="423.8" y="489.4" transform="matrix(-0.238 0.9713 -0.9713 -0.238 1021.0591 210.7174)" width="8.2" height="33.1" class="h"/><rect x="422.9" y="492.8" transform="matrix(-0.238 0.9713 -0.9713 -0.238 1023.3294 215.7341)" width="8.2" height="33.1" class="n"/><path d="M360 691.8l46.2-189 38.8 9.5 -55.5 231 0 0C367.5 736.7 354.6 714.1 360 691.8z" class="o"/><path d="M412.5 518c-1.6-0.4-2.5-1.9-2.1-3.5 0.4-1.6 2-2.5 3.5-2.1 1.6 0.4 2.5 2 2.1 3.5C415.7 517.4 414.1 518.4 412.5 518z" class="v"/><path d="M431.6 422.7c-0.2 0.3-0.4 0.6-0.5 1l-0.8 2.4c-0.6 1.8 0.4 3.7 2.2 4.2 1.8 0.6 3.7-0.4 4.2-2.2l0.8-2.4c0.6-1.8-0.4-3.6-2.2-4.2C433.9 421 432.4 421.5 431.6 422.7z" class="w"/><path d="M438 420.5c0 0-3.2-1.2-5.4 2.6 -1.7 3-10 37-13.3 50.9 -0.9 3.8-0.4 7.8 1.4 11.2l0 0c1.6 3 4.2 5.5 7.3 6.9l17.3 8.2 -1 4.8 -28.5-7 1.6-6.2c0 0-1.6-3.9-2.8-9.8 -0.3-1.5-0.6-6.1 0.7-12.2 4.5-16.3 13.2-47.8 13.2-47.8S432 414.8 438 420.5z" class="n"/><path d="M464.7 419.4c-0.2 0.3-0.4 0.6-0.5 1l-0.8 2.4c-0.6 1.8 0.4 3.7 2.2 4.2 1.8 0.6 3.7-0.4 4.2-2.2l0.8-2.4c0.6-1.8-0.4-3.6-2.2-4.2C467 417.7 465.5 418.3 464.7 419.4z" class="w"/><path d="M480.8 458.4c-1.2-0.1-2.3 0.4-3 1.4 -0.2 0.3-0.4 0.6-0.5 1l-0.7 2.3c-0.5 1.7 0.2 3.5 1.8 4.2 0.1 0 0.2 0.1 0.3 0.1l2.1-5.9C481.1 460.3 481.1 459.3 480.8 458.4z" class="w"/><path d="M455.4 414.1c-0.2 0.3-0.4 0.6-0.5 1l-0.8 2.4c-0.6 1.8 0.4 3.7 2.2 4.2 1.8 0.6 3.7-0.4 4.2-2.2l0.8-2.4c0.6-1.8-0.4-3.6-2.2-4.2C457.7 412.5 456.2 413 455.4 414.1z" class="w"/><path d="M444.1 415.8c-0.2 0.3-0.4 0.6-0.5 1l-0.8 2.4c-0.6 1.8 0.4 3.7 2.2 4.2 1.8 0.6 3.7-0.4 4.2-2.2l0.8-2.4c0.6-1.8-0.4-3.6-2.2-4.2C446.4 414.1 444.9 414.6 444.1 415.8z" class="w"/><line x1="471" y1="481.2" x2="446" y2="500.9" class="c"/><path d="M467.5 469.8c0 0 0 0 0 0l4.2-12c0.9-2.6 3.8-3.9 6.3-2.9 2.5 1 3.6 3.7 2.8 6.2l-4.2 11.9c-1.1 3.2-3.1 6.1-5.7 8.3" class="c"/><path d="M435.9 463c-0.6 0.5 9.1 25.9 9.1 25.9l-0.9 6.7 7.1 5.8 15.9-5.3 10.5-2.5 -2.3-8.9L435.9 463z" class="m"/><path d="M453.5 477.1c-4.2-6.1-14.4-5.8-19.6-5.3 -2.5 0.3-5-1.2-5.8-3.6 0 0 0 0 0 0l-4-12.1c-0.9-2.6-3.7-4-6.3-3 -2.5 0.9-3.7 3.7-2.9 6.2l4 12c1.1 3.2 3 6.1 5.5 8.4l24.7 20.1" class="m"/><path d="M477.1 491.7c4.3-9.2 4.1-17.1 1-28l-7.9-29 -42.5-10.5 8.2 36" class="m"/><path d="M436 469.4c0.1 0.2 2.5 10.2 2.5 10.2s16.4 0.8 16.6 1.1c0.2 0.3 4.4-2.2 3.1-4.9 -1.3-2.6-18.8-20.7-19.5-21.2C437.9 454.2 436 469.4 436 469.4z" class="u"/><polyline points=" 477.1 491.7 479.8 503.4 450.7 507.5 450 504.5 449 499.7 " class="m"/><path d="M454 433.2l-1.4 0.3c-2.9 0.2-3.8-2.8-3.6 0.1l0.4 7.8c0.2 2.9 2.6 5.2 5.6 5l0 0c2.9-0.1 5.2-2.6 5-5.5l-0.4-7.8C459.3 430.1 456.9 433.1 454 433.2z" class="n"/><path d="M473.5 481.8c0.1 0.1 0.2 0.1 0.3 0.2l-1.4-0.8L473.5 481.8z" class="n"/><path d="M439.5 440.3l-5.6-22.6c-0.6-2.8-3.5-4.6-6.3-4h0c-2.8 0.6-4.6 3.5-4 6.3l13.5 53.7" class="m"/><path d="M463 448.5l-8.4-33.7c-0.6-2.8-3.5-4.6-6.3-4l0 0c-2.8 0.6-4.6 3.5-4 6.3l8.1 30.8" class="m"/><path d="M476 455.7l-8.8-34c-0.6-2.8-3.5-4.6-6.3-4l0 0c-2.8 0.6-4.6 3.5-4 6.3l6.1 24.5" class="m"/><path d="M452.4 448l-8.9-34.8c-0.6-2.8-3.5-4.6-6.3-4l0 0c-2.8 0.6-4.6 3.5-4 6.3l8.6 33.6" class="m"/><rect x="463" y="488.4" transform="matrix(0.2221 0.975 -0.975 0.2221 855.6691 -62.654)" width="8.2" height="33.1" class="h"/><rect x="463.8" y="491.8" transform="matrix(0.2221 0.975 -0.975 0.2221 859.6005 -60.7575)" width="8.2" height="33.1" class="n"/><path d="M531.9 691.9l-43.1-189.7 -39 8.9 51.8 231.9h0C523.7 736.7 537 714.3 531.9 691.9z" class="o"/><path d="M483.1 516.3c1.6-0.4 2.5-1.9 2.2-3.5 -0.4-1.6-1.9-2.5-3.5-2.2 -1.6 0.4-2.5 1.9-2.2 3.5C480 515.7 481.6 516.7 483.1 516.3z" class="v"/><path d="M464.8 421.6c0.2 0.3 0.4 0.6 0.5 1l0.7 2.4c0.5 1.8-0.5 3.6-2.3 4.2 -1.8 0.5-3.6-0.5-4.2-2.3l-0.7-2.4c-0.5-1.8 0.5-3.6 2.3-4.2C462.5 419.9 464 420.5 464.8 421.6z" class="w"/><path d="M457.8 420.2c0 0 3.3-1.2 5.3 2.7 1.7 3.1 9.4 37.2 12.5 51.2 0.9 3.8 0.3 7.8-1.6 11.2v0c-1.7 3-4.2 5.4-7.4 6.8l-17.5 7.9 1 4.8 28.6-6.5 -1.5-6.2c0 0 1.7-3.9 3-9.8 0.3-1.5 0.7-6-0.5-12.2 -4.2-16.4-12.4-48-12.4-48S463.9 414.6 457.8 420.2z" class="n"/><path d="M431.7 417.8c0.2 0.3 0.4 0.6 0.5 1l0.7 2.4c0.5 1.8-0.5 3.6-2.3 4.2 -1.8 0.5-3.6-0.5-4.2-2.3l-0.7-2.4c-0.5-1.8 0.5-3.6 2.3-4.2C429.4 416.1 430.9 416.7 431.7 417.8z" class="w"/><path d="M414.9 456.5c1.2-0.1 2.3 0.5 3 1.4 0.2 0.3 0.4 0.6 0.5 1l0.7 2.3c0.5 1.7-0.3 3.5-1.9 4.1 -0.1 0-0.2 0.1-0.2 0.1l-2-6C414.7 458.5 414.7 457.5 414.9 456.5z" class="w"/><path d="M441.1 412.7c0.2 0.3 0.4 0.6 0.5 1l0.7 2.4c0.5 1.8-0.5 3.6-2.3 4.2 -1.8 0.5-3.6-0.5-4.2-2.3l-0.7-2.4c-0.5-1.8 0.5-3.6 2.3-4.2C438.8 411 440.3 411.6 441.1 412.7z" class="w"/><path d="M452.3 414.5c0.2 0.3 0.4 0.6 0.5 1l0.7 2.4c0.5 1.8-0.5 3.6-2.3 4.2 -1.8 0.5-3.6-0.5-4.2-2.3l-0.7-2.4c-0.5-1.8 0.5-3.6 2.3-4.2C450.1 412.8 451.5 413.4 452.3 414.5z" class="w"/><line x1="424.4" y1="479.6" x2="449" y2="499.7" class="c"/><path d="M428.1 468.2c0 0 0 0 0 0l-4-12.1c-0.9-2.6-3.7-4-6.3-3 -2.5 0.9-3.7 3.7-2.9 6.2l4 12c1.1 3.2 3 6.1 5.5 8.4" class="c"/><path d="M527.6 673l2.5 9.6c13.4 50.8-25.4 100.4-78 99.6l-17.8-0.3c-49.4-0.8-85.1-47.4-73.1-95.3l4.9-19.4" class="o"/><path d="M446.2 761.7L446.2 761.7c31.2-0.1 56.4-25.5 56.3-56.7l0-7.5c-0.1-31.2-25.5-56.4-56.7-56.3h0c-31.2 0.1-56.4 25.5-56.3 56.7l0 7.5C389.7 736.6 415 761.8 446.2 761.7z" class="m"/><path d="M440.7 643.8l0-3c0-2.8 2.3-5.1 5.1-5.1h0c2.8 0 5.1 2.3 5.1 5.1l0 2.9" class="m"/><path d="M485.4 678.1l-10.8 0c-2.5 0-4.6-2-4.6-4.6l0 0c0-11.8-9.6-21.4-21.4-21.4l0 0c-11.8 0-21.4 9.6-21.4 21.4l0 0.7c0 2.5-2 4.6-4.6 4.6H406.3c-12.4 0-22.4 10-22.4 22.4v11c0 34.2 27.7 61.9 61.9 61.9h0c34.2 0 61.9-27.7 61.9-61.9v-11.7C507.8 688.1 497.8 678.1 485.4 678.1z" class="l"/><path d="M426.5 445.2c-0.4 0.7-27.4-1.1-27.4-1.1l-6.1 2.8 -7.6-5.1 0.5-16.7 -0.6-10.8 9.2-0.4L426.5 445.2z" class="u"/><path d="M407.9 432.5c7 2.3 9.8 12.1 10.8 17.2 0.5 2.5 2.6 4.4 5.2 4.5 0 0 0 0 0.1 0l12.8 0.3c2.7 0.1 4.9 2.4 4.7 5.1 -0.1 2.6-2.4 4.6-5.1 4.6l-12.6-0.3c-3.4-0.1-6.7-1.1-9.6-2.8l-26.4-17.7" class="m"/><g class="s"><path d="M441.3 459.6c0.2-2.7-2-5.1-4.7-5.1l-12.7-0.3c0 0 0 0 0 0 -2.5-0.1-4.7-2-5.1-4.5 -1-5.1-3.7-14.9-10.7-17.2l-1.5 2.2c7 2.3 9.8 12.1 10.8 17.2 0.5 2.5 2.6 4.4 5.2 4.5 0 0 0 0 0.1 0l12.8 0.3c2.7 0.1 4.9 2.4 4.7 5.1 0 0.4-0.1 0.8-0.2 1.2C440.6 462.2 441.2 461 441.3 459.6z" class="t"/></g><path d="M387 414.1c7.5-6.8 15.2-8.9 26.5-9.1l30.1-0.9 22.5 37.6 -40.5 2.6" class="m"/><path d="M420.3 447c-0.2 0-10.5 0.6-10.5 0.6s-5.6-15.4-5.9-15.5c-0.3-0.1 0.9-4.8 3.8-4.3 2.9 0.5 16.2 3.8 16.9 4.3C425.3 432.6 420.3 447 420.3 447z" class="u"/><polyline points=" 387 414.1 375.1 415 379.6 444 382.7 443.8 387.6 443.3 " class="m"/><path d="M449.7 419.2l0.1 1.4c0.7 2.8 3.8 2.8 1 3.5l-7.6 1.9c-2.8 0.7-5.7-1-6.4-3.8l0 0c-0.7-2.8 1-5.7 3.9-6.4l7.6-1.9C451.1 413.2 449 416.4 449.7 419.2z" class="n"/><path d="M397.6 414.7c-0.1-0.1-0.2-0.2-0.2-0.2l1.2 1.2L397.6 414.7z" class="n"/><path d="M447.1 435.1l23.3-1.2c2.9-0.2 5.4 2 5.7 4.9l0 0c0.2 2.9-2 5.4-4.9 5.7l-55.3 2.8" class="m"/><path d="M432.4 415.1l34.6-1.8c2.9-0.2 5.4 2 5.7 4.9l0 0c0.2 2.9-2 5.4-4.9 5.7l-31.8 1.2" class="m"/><path d="M421.8 404.7l35.1-1.5c2.9-0.2 5.4 2 5.7 4.9l0 0c0.2 2.9-2 5.4-4.9 5.7l-25.2 1.3" class="m"/><path d="M436.1 425l35.9-1.6c2.9-0.2 5.4 2 5.7 4.9v0c0.2 2.9-2 5.4-4.9 5.7l-34.6 1.6" class="m"/><rect x="373.2" y="411" transform="matrix(-0.9974 0.0721 -0.0721 -0.9974 784.4152 826.8506)" width="8.2" height="33.1" class="h"/><rect x="369.7" y="411.3" transform="matrix(-0.9974 0.0721 -0.0721 -0.9974 777.4665 827.6008)" width="8.2" height="33.1" class="n"/><path d="M179.6 420.1l194-14.1 2.9 39.9 -236.9 18.1v0C139.1 441.1 156.7 421.8 179.6 420.1z" class="j"/><path d="M361 416.6c-0.1-1.6 1.1-3 2.7-3.1 1.6-0.1 3 1.1 3.1 2.7 0.1 1.6-1.1 3-2.7 3.1C362.5 419.4 361.1 418.2 361 416.6z" class="v"/><path d="M457.6 405.5c-0.3-0.1-0.7-0.2-1.1-0.2l-2.5 0c-1.8 0-3.3 1.5-3.3 3.4 0 1.9 1.5 3.3 3.4 3.3l2.5 0c1.9 0 3.3-1.5 3.3-3.4C459.9 407.2 459 406 457.6 405.5z" class="w"/><path d="M461.6 411c0 0 0.2-3.5-4.1-4.3 -3.4-0.7-38.3 1.9-52.6 3 -3.9 0.3-7.5 2-10.2 4.8l0 0c-2.4 2.5-3.9 5.6-4.3 9l-2.5 19 -4.9 0.5 -2.1-29.3 6.4-0.4c0 0 3.2-2.7 8.5-5.7 1.4-0.8 5.6-2.4 11.8-3 17-0.7 49.5-2.2 49.5-2.2S465.3 403.5 461.6 411z" class="n"/><path d="M470.9 436c-0.3-0.1-0.7-0.2-1.1-0.2l-2.5 0c-1.8 0-3.3 1.5-3.3 3.4 0 1.9 1.5 3.3 3.4 3.3l2.5 0c1.9 0 3.3-1.5 3.3-3.4C473.2 437.7 472.3 436.5 470.9 436z" class="w"/><path d="M438.8 463.4c-0.2-1.2-1.1-2.1-2.2-2.5 -0.3-0.1-0.7-0.2-1.1-0.2l-2.4 0c-1.7 0-3.2 1.3-3.4 3 0 0.1 0 0.2 0 0.3l6.3 0.2C437 464.2 438 463.9 438.8 463.4z" class="w"/><path d="M473.1 425.5c-0.3-0.1-0.7-0.2-1.1-0.2l-2.5 0c-1.8 0-3.3 1.5-3.3 3.4 0 1.9 1.5 3.3 3.4 3.3l2.5 0c1.9 0 3.3-1.5 3.3-3.4C475.4 427.2 474.4 426 473.1 425.5z" class="w"/><path d="M468.1 415.3c-0.3-0.1-0.7-0.2-1.1-0.2l-2.5 0c-1.8 0-3.3 1.5-3.3 3.4 0 1.9 1.5 3.3 3.4 3.3l2.5 0c1.9 0 3.3-1.5 3.3-3.4C470.4 417 469.4 415.8 468.1 415.3z" class="w"/><line x1="414" y1="461" x2="387.6" y2="443.3" class="c"/><path d="M423.8 454.2c0 0 0 0 0.1 0l12.8 0.3c2.7 0.1 4.9 2.4 4.7 5.1 -0.1 2.6-2.4 4.6-5.1 4.6l-12.6-0.3c-3.4-0.1-6.7-1.1-9.6-2.8" class="c"/><path d="M420.6 422c-0.7-0.4-21.9 16.6-21.9 16.6l-6.6 1.2 -3.4 8.5 10 13.5 5.7 9.2 7.8-5L420.6 422z" class="m"/><path d="M412.6 443.1c4.5-5.9 1.1-15.5-1-20.2 -1-2.3-0.4-5.1 1.7-6.6 0 0 0 0 0 0l10.3-7.5c2.2-1.6 2.7-4.7 0.9-6.9 -1.6-2.1-4.6-2.4-6.8-0.8l-10.2 7.5c-2.7 2-4.9 4.7-6.2 7.8l-11.5 29.6" class="m"/><path d="M405.9 470.1c10.1 1.3 17.5-1.3 27-7.6l25.2-16.4 -3-43.7 -31.7 18.9" class="m"/><path d="M414.5 424.1c-0.2 0.1-8.9 5.5-8.9 5.5s4.2 15.9 4.1 16.1c-0.2 0.3 3.5 3.5 5.6 1.4 2.1-2.1 13.9-24.2 14.2-25.1C429.6 421.2 414.5 424.1 414.5 424.1z" class="u"/><polyline points=" 405.9 470.1 395.6 476.2 382.8 449.8 385.5 448.2 389.8 445.8 " class="m"/><path d="M454.5 430.1l-0.7-1.2c-1-2.7 1.5-4.4-1.2-3.4l-7.3 2.8c-2.7 1-4.1 4.1-3 6.8l0 0c1 2.7 4.1 4.1 6.8 3.1l7.3-2.8C459.1 434.2 455.5 432.8 454.5 430.1z" class="n"/><path d="M414.3 463.6c0 0.1 0 0.2 0 0.3l0.3-1.6L414.3 463.6z" class="n"/><path d="M443.3 418.5l19.8-12.3c2.5-1.5 3.3-4.7 1.9-7.2v0c-1.5-2.5-4.7-3.3-7.2-1.8l-47 29.3" class="m"/><path d="M442.7 443.4l29.5-18.3c2.5-1.5 3.3-4.7 1.9-7.2l0 0c-1.5-2.5-4.7-3.3-7.2-1.8l-26.8 17.2" class="m"/><path d="M439.8 457.9l29.7-18.8c2.5-1.5 3.3-4.7 1.9-7.2l0 0c-1.5-2.5-4.7-3.3-7.2-1.8l-21.4 13.3" class="m"/><path d="M440 433.2l30.4-19.2c2.5-1.5 3.3-4.7 1.9-7.2l0 0c-1.5-2.5-4.7-3.3-7.2-1.8l-29.3 18.5" class="m"/><rect x="386.2" y="448.1" transform="matrix(-0.8596 0.511 -0.511 -0.8596 963.1714 664.5289)" width="8.2" height="33.1" class="h"/><rect x="383.2" y="449.8" transform="matrix(-0.8596 0.511 -0.511 -0.8596 958.4919 669.3907)" width="8.2" height="33.1" class="n"/><path d="M232.3 583.7l167.3-99.3 -20.4-34.3L174.4 570.6h0C187.1 589.7 212.6 595.5 232.3 583.7z" class="j"/><path d="M382.9 483.5c0.8 1.4 2.6 1.8 4 1s1.8-2.6 1-4c-0.8-1.4-2.6-1.8-4-1S382.1 482.1 382.9 483.5z" class="v"/><path d="M468.8 436.8c-0.2 0.3-0.5 0.5-0.8 0.7l-2.1 1.4c-1.5 1.1-3.6 0.7-4.7-0.9 -1-1.5-0.7-3.6 0.9-4.7l2.1-1.4c1.5-1 3.6-0.7 4.7 0.9C469.7 434.1 469.7 435.7 468.8 436.8z" class="w"/><path d="M468 429.7c0 0 2.1 2.7-0.9 5.9 -2.4 2.5-32.5 20.3-44.8 27.6 -3.4 2-7.3 2.7-11.2 1.9l0 0c-3.4-0.7-6.4-2.4-8.7-4.9l-12.9-14.2 -4.3 2.4 15 25.2 5.5-3.3c0 0 4.2 0.4 10.3-0.1 1.6-0.1 6-1.2 11.4-4.2 14.3-9.1 41.9-26.5 41.9-26.5S475.3 433.8 468 429.7z" class="n"/><path d="M462.3 404.2c-0.2 0.3-0.5 0.5-0.8 0.7l-2.1 1.4c-1.5 1.1-3.6 0.7-4.7-0.9 -1-1.5-0.7-3.6 0.9-4.7l2.1-1.4c1.5-1 3.6-0.7 4.7 0.9C463.2 401.5 463.1 403 462.3 404.2z" class="w"/><path d="M470 411.5c-0.2 0.3-0.5 0.5-0.8 0.7l-2.1 1.4c-1.5 1.1-3.6 0.7-4.7-0.9 -1-1.5-0.7-3.6 0.9-4.7l2.1-1.4c1.5-1 3.6-0.7 4.7 0.9C471 408.8 470.9 410.4 470 411.5z" class="w"/><path d="M471.8 422.8c-0.2 0.3-0.5 0.5-0.8 0.7l-2.1 1.4c-1.5 1.1-3.6 0.7-4.7-0.9 -1-1.5-0.7-3.6 0.9-4.7l2.1-1.4c1.5-1 3.6-0.7 4.7 0.9C472.7 420.1 472.6 421.7 471.8 422.8z" class="w"/><line x1="401.3" y1="416.2" x2="389.8" y2="445.8" class="c"/><path d="M413.2 416.2c0 0 0 0 0 0l10.3-7.5c2.2-1.6 2.7-4.7 0.9-6.9 -1.6-2.1-4.6-2.4-6.8-0.8l-10.2 7.5c-2.7 2-4.9 4.7-6.2 7.8" class="c"/><path d="M249 573.8l-8.3 5.4c-44.2 28.4-103.4 6.7-118.7-43.6l-5.2-17c-14.4-47.2 19-95.6 68.2-98.9l19.9-1.3" class="j"/><path d="M139.6 523.7L139.6 523.7c9.5 29.1 40.7 44.9 69.8 35.4l10.4-3.4c29.1-9.5 44.9-40.7 35.4-69.8l0 0c-9.5-29.1-40.7-44.9-69.8-35.4l-10.4 3.4C145.9 463.4 130.1 494.6 139.6 523.7z" class="m"/><path d="M250.1 482.2l2.9-0.9c2.7-0.9 5.6 0.6 6.4 3.3l0 0c0.9 2.7-0.6 5.6-3.3 6.4l-2.8 0.9" class="m"/><path d="M210.1 566l-2.5 0.9c-30.4 10.4-63.4-5.9-73.7-36.2l-2.5-7.3c-10.3-30.4 5.9-63.4 36.2-73.7l2.5-0.9c30.4-10.3 63.4 5.9 73.7 36.2l2.5 7.3C256.7 522.7 240.5 555.7 210.1 566z" class="o"/><path d="M740.2 474.8l-0.3-0.1c-19.5-7.3-41.2 2.6-48.5 22l0 0c-7.3 19.5 2.6 41.2 22 48.5l0.3 0.1c19.5 7.3 41.2-2.6 48.5-22l0 0C769.6 503.9 759.7 482.1 740.2 474.8z" class="j"/><path d="M781.4 531.1c-8.3 22.1-32.9 33.3-55 25l-0.4-0.1c-1.5-0.6-3-1.2-4.4-2 20.8 5.3 37.7-8.1 45.4-28.6 7.7-20.5 3.6-41.1-15.6-50.9 1.6 0.4 3.1 0.9 4.7 1.4l0.4 0.1c11.1 4.2 19.4 12.4 23.9 22.3C784.8 508.3 785.5 520 781.4 531.1z" class="p"/><path d="M771.9 527.5c-7.7 20.6-29.6 31.7-50.4 26.4 -8.8-4.5-15.6-11.8-19.5-20.4 -4.5-9.9-5.2-21.6-1.1-32.7 7.7-20.6 29.6-31.7 50.4-26.4 8.9 4.5 15.6 11.8 19.5 20.4C775.4 504.8 776.1 516.5 771.9 527.5z" class="l"/></svg>