<?xml version="1.0" encoding="utf-8"?>
<!-- Generator: Adobe Illustrator 23.0.1, SVG Export Plug-In . SVG Version: 6.00 Build 0)  -->
<svg version="1.1" xmlns="http://www.w3.org/2000/svg" xmlns:xlink="http://www.w3.org/1999/xlink" x="0px" y="0px"
	 viewBox="0 0 800 800" enable-background="new 0 0 800 800" xml:space="preserve">
<g id="Background">
</g>
<g id="Objects">
	<g>
		<defs>
			<rect id="SVGID_1_" x="0.7" width="800" height="800"/>
		</defs>
		<clipPath id="SVGID_2_">
			<use xlink:href="#SVGID_1_"  overflow="visible"/>
		</clipPath>
		<g clip-path="url(#SVGID_2_)">
			<g>
				<g>
					<path fill="#FFFFFF" d="M67.63,252.33c0.14,9.22,3.8,17.69,11.25,23.29c7.19,5.4,16.3,7.56,25.19,6.99
						c16.12-1.04,30.12-11.53,36.1-26.43c3.12-7.75,3.64-16.99,0.28-24.75c-2.83-6.53-8.26-12.03-15.33-13.62
						c-1.4-0.31-1.87,1.6-0.58,2.11c8.41,3.26,14.02,11.11,15.02,19.97c1.08,9.61-2.84,19.37-9.09,26.55
						c-12.2,14.03-35.4,18.05-50.32,5.88c-10.05-8.19-10.74-22.75-6.78-34.29c1.99-5.79,6.14-10.11,11.32-13.19
						c2.41-1.44,4.98-2.53,7.53-3.67c2.72-1.21,5.37-2.35,8.02-3.73c0.94-0.49,0.23-1.7-0.66-1.57c-2.14,0.3-4.15,0.6-6.21,1.24
						c-2.18,0.68-4.28,1.48-6.37,2.39c-3.91,1.72-7.59,4.1-10.66,7.08C69.53,233.16,67.49,243.17,67.63,252.33z"/>
				</g>
				<g>
					<g>
						<path fill="#FFFFFF" d="M114.01,231.48c0.85,2.41,1.92,4.74,3.11,7c1.03,1.97,2.35,4.45,4.33,5.61
							c0.47,0.27,0.98-0.15,0.89-0.66c-0.4-2.18-1.97-4.26-3.02-6.19c-1.21-2.23-2.23-4.56-3.12-6.94
							c-0.86-2.28-1.54-4.65-2.14-7.02c-0.3-1.18-0.58-2.37-0.87-3.55c-0.22-0.89-0.29-1.71-0.96-2.35
							c-0.09-0.09-0.22-0.07-0.29,0.03c-1.08,1.55-0.27,4.63,0.03,6.39C112.4,226.44,113.13,228.98,114.01,231.48z"/>
					</g>
					<g>
						<path fill="#FFFFFF" d="M88.93,246.15c3.51-3.6,5.4-8.86,7.35-13.42c1.06-2.47,2-4.99,2.89-7.53
							c0.83-2.37,1.74-4.85,1.71-7.39c-0.01-0.51-0.64-0.67-0.92-0.27c-1.34,1.92-2.03,4.22-2.85,6.4c-0.94,2.52-1.95,5.01-3,7.5
							c-1.95,4.66-4.92,9.22-6.08,14.16C87.92,246.11,88.54,246.56,88.93,246.15z"/>
					</g>
					<g>
						<path fill="#FFFFFF" d="M96.56,250.55c1.44-0.19,1.98-0.08,2.51,1.29c0.28,0.72,0.57,1.38,1.14,1.91
							c1.2,1.12,3,0.43,3.87-0.74c0.71-0.95,1.1-2.09,1.85-3.01c1.91-2.38,2.93,1.58,3.1,2.81c0.1,0.69,1.03,1.04,1.59,0.69
							c2.86-1.78,5.53-4.28,6.95-7.38c0.5-1.1-0.92-2.01-1.63-0.98c-1.5,2.16-3.05,4.04-5.1,5.58c-0.37-1.43-1.07-2.81-2.54-3.31
							c-2.27-0.77-3.93,0.79-4.97,2.66c-0.43,0.78-1.42,2.94-2.16,1.34c-0.34-0.74-0.53-1.59-1.11-2.19c-0.63-0.66-1.3-0.9-2.2-0.98
							c-1.1-0.1-2.46,0.78-3.5,0.09c-0.45-0.3-1.09,0.17-0.94,0.69C93.89,250.51,95.14,250.74,96.56,250.55z"/>
					</g>
				</g>
				<g>
					<path fill="#FFFFFF" d="M90.67,211.47c-1.2,1.19-2.16,2.69-1.68,4.38c0.52,1.84,3.2,3.73,4.47,1.43c0.26-0.48,0-0.97-0.41-1.24
						c-0.48-0.31-1.2-0.66-0.93-1.39c0.32-0.86,1.31-1.53,1.99-2.07c1.39-1.12,2.93-2.06,4.53-2.84c3.35-1.63,7.04-2.37,10.75-2.34
						c3.56,0.03,7.11,1.04,10.23,2.71c1.62,0.86,2.95,2.07,3.57,3.83c0.39,1.11,0.09,2.25-0.61,3.13c-0.15,0.19-0.33,0.34-0.52,0.48
						c-0.07-0.08-0.16-0.16-0.27-0.22c-3.96-2.19-8.95-2.71-13.4-2.84c-2.39-0.07-4.78,0.13-7.15,0.51
						c-2.13,0.33-4.41,0.77-6.09,2.21c-0.37,0.32-0.41,1.14,0.23,1.2c2.04,0.19,4.02-0.37,6.02-0.71c2.16-0.37,4.36-0.5,6.55-0.53
						c4.52-0.05,8.65,1.15,13.03,1.96c0.02,0.02,0.05,0.04,0.08,0.05c1.75,1.01,3.52-1.17,4.12-2.61c0.9-2.17-0.09-4.67-1.51-6.36
						c-0.19-0.22-0.39-0.44-0.59-0.65c0.02-0.03,0.05-0.06,0.07-0.09c2.22-3.35,0.11-7.38-2.68-9.94c2.06-3.21-1.16-6.81-4.03-8.28
						c0.26-0.2,0.36-0.63,0.07-0.92c-3.88-3.84-9.48-6.26-14.97-5.63c-2.41,0.27-4.78,1.3-6.58,2.93c-1.39,1.26-3.68,3.86-3,5.92
						c-0.92,0.81-1.69,1.79-2.14,2.53c-1.13,1.87-1.67,5.77,0.11,7.51c-0.19,0.3-0.35,0.62-0.49,0.93
						C88.47,206.75,89.23,209.6,90.67,211.47z M92.15,197.03c0.63-0.91,1.6-1.63,2.59-2.11c0.88-0.42,1.63-0.66,2.16-1.51
						c0.17-0.27,0.07-0.69-0.17-0.88c-0.56-0.44-1.16-0.59-1.77-0.54c0.34-0.71,0.69-1.42,1.21-2.01c1.55-1.75,3.83-2.61,6.1-2.9
						c4.32-0.54,8.11,1.32,11.8,3.25c-1.62-0.46-3.31-0.67-4.97-0.78c-2.37-0.16-5.24-0.12-7.23,1.34c-0.59,0.43-0.49,1.5,0.31,1.61
						c1.75,0.26,3.47-0.12,5.21-0.2c1.97-0.09,3.92,0.19,5.84,0.61c3.15,0.69,5.51,2.42,5.86,5.48c-0.38-0.27-0.77-0.51-1.15-0.71
						c-2.43-1.29-5.34-1.6-8.04-1.52c-2.84,0.08-6.19,0.56-8.38,2.49c-0.33,0.29-0.08,0.89,0.32,0.95c2.15,0.36,4.23-0.32,6.35-0.62
						c2.34-0.33,4.66-0.22,6.94,0.41c2.18,0.6,4.11,1.95,5.39,3.81c1.12,1.63,1.25,3.4,1.34,5.26c-3.62-2.75-8.95-3.75-13.2-3.88
						c-5.83-0.18-11.62,1.97-16.26,5.43c-0.04,0.03-0.09,0.07-0.13,0.1c-0.49-2.39-1.04-4.62,1.39-6.29
						c0.71-0.48,1.48-0.79,1.69-1.67c0.16-0.68-0.67-1.18-1.23-1.19c-1.18-0.02-2.22,0.48-3.05,1.24c-0.03-0.31-0.06-0.62-0.07-0.94
						C90.93,199.77,91.3,198.26,92.15,197.03z"/>
				</g>
			</g>
			<g opacity="0.7">
				<path fill="#FFFFFF" d="M127.74,144.83c-3.1-6.12-9.57-7.82-15.26-8.69c-2.14-0.32-4.24-0.66-6.19-1.48
					c-0.09-1.93-0.17-3.86-0.23-5.79c-0.11-3.28-0.21-6.56-0.31-9.84c3.8-6.05,6.76-12.13,7.76-19.68
					c1.12-8.38-0.7-17.04-1.76-25.34c-1.19-9.27-1.14-19.97-4.73-28.57c-0.45-1.08-1.7-1.09-2.04,0.08
					c-0.13,0.43-0.23,0.87-0.34,1.31c0.17-28.8,1.05-57.58,1.65-86.37c0.01-0.61-0.89-0.72-0.96-0.11
					c-4.28,37.26-5.46,74.93-5.6,112.51c-0.05,14.26,0.23,28.53,0.69,42.79c-0.29,0.44-0.58,0.87-0.87,1.31
					c-3.33,4.96-5.75,10.7-3.43,16.86c1.17,3.09,3.01,5,5.22,6.23c0.59,13.82,1.45,27.79,3.73,41.35c-0.88,0.57-1.73,1.12-2.52,1.67
					c-1.67,1.16-0.36,3.9,1.43,3.39c0.65-0.19,1.31-0.39,1.97-0.62c0.48,0.78,1.69,0.31,1.84-0.67c10.28-4,20.26-12.34,22.43-24.66
					C131.14,155.14,130.15,149.58,127.74,144.83z M104.69,72.67c-0.04-3.11-0.05-6.23-0.06-9.34c0.31,2.33,0.66,4.64,0.94,6.88
					c1.03,8.16,2.37,16.34,2.41,24.6c0.02,4.5-1,8.41-2.59,12.05C105.08,95.47,104.83,84.07,104.69,72.67z M107.92,179.59
					c0.16-12.53-0.63-25.12-1.29-37.66c7.26,1.55,15.64,0.91,18.29,9.86C129.07,165.78,117.49,173.53,107.92,179.59z"/>
			</g>
		</g>
		<g clip-path="url(#SVGID_2_)">
			<g>
				<g>
					<path fill="#FFFFFF" d="M165.2,325.27c0.95,14.83,6.4,29.17,14.78,41.37c1.7,2.48,3.84,5.24,6.91,6
						c3.47,0.86,6.48-0.72,9.06-2.95c5.31-4.6,9.12-11.29,11.91-17.64c2.96-6.76,4.59-14.09,5.43-21.39
						c0.82-7.07,1.32-15.08-0.91-21.94c-1.35-4.15-3.7-7.64-7.31-10.15c-3.02-2.1-7.25-3.21-10.44-1.02
						c-0.56,0.38-0.18,1.11,0.35,1.24c3.09,0.72,5.91,1.27,8.55,3.16c2.88,2.07,4.52,5.38,5.46,8.71
						c1.89,6.76,1.12,14.48,0.23,21.35c-0.9,6.98-2.78,13.81-5.67,20.23c-1.4,3.1-3.13,6.02-5.09,8.79
						c-2.11,2.98-4.64,6.3-8.03,7.86c-3.9,1.79-6.8-3.46-8.54-6.07c-2.09-3.14-3.84-6.47-5.4-9.89c-2.94-6.43-4.89-13.27-6.03-20.24
						c-1.18-7.23-1.67-15.11,0.5-22.2c0.98-3.2,2.71-6.03,5.2-8.27c2.46-2.21,5.57-2.86,8.51-4.11c1.23-0.52,1.26-2.46-0.05-2.92
						c-6.09-2.16-12.34,3.26-15.48,8.03C164.91,309.66,164.72,317.84,165.2,325.27z"/>
				</g>
				<g>
					<path fill="#FFFFFF" d="M177.02,293.61c-0.34-1.11-1.85-1.34-2.45-0.32c-0.81,1.37-0.6,3.13-0.55,4.66
						c0.02,0.53,0.06,2.4,0.99,2.3c0.55-0.06,0.85-0.47,1.06-0.95c0.19,0.39,0.6,0.68,1.05,0.71c1.94,0.11,3.61-0.48,5.47-0.96
						c2.57-0.67,5.1-0.93,7.76-0.87c4.93,0.11,8.86,2.58,13.54,3.37c0.74,0.13,1.48-0.6,1.03-1.34c-0.59-0.96-1.36-1.76-2.24-2.45
						c0.16-0.1,0.29-0.23,0.37-0.41c1.61-3.51,0.59-7.13-1.74-9.76c0.21,0.01,0.42-0.09,0.56-0.28c2.44-3.47-0.44-7.9-3.76-10.56
						c0.11-0.06,0.2-0.17,0.2-0.3c-0.28-4.97-3.92-10.55-9.44-10.68c-2.69-0.06-4.92,0.83-6.66,2.91c-1.26,1.5-1.83,3.62-0.17,5
						c0.35,0.29,0.76,0.29,1.11,0c0.58-0.49,1.05-1.03,1.34-1.74c1.05-2.54,3.36-2.98,5.79-2.38c3.05,0.75,5.13,4.14,7.01,6.57
						c-0.88-0.62-1.75-1.1-2.55-1.39c-5.52-2.06-14.58-1.11-17.68,4.64c-0.24,0.45,0.05,1.2,0.65,1.13
						c4.97-0.58,8.9-3.61,14.17-2.76c2.31,0.37,4.3,1.77,5.9,3.4c1.59,1.62,1.88,3.82,2.85,5.74c-0.96-0.91-2.09-1.68-3.33-2.22
						c-5.87-2.62-13.9-0.66-18.47,3.77c0,0,0,0,0,0c-0.68-0.76-1.49-0.85-1.8-1.95c-0.22-0.76,0.07-1.49-0.26-2.25
						c-0.04-0.1-0.16-0.14-0.26-0.15c-1.55-0.18-1.99,1.84-1.89,3.01c0.13,1.53,1.6,3.65,3.32,3.49c0.14-0.01,0.27-0.05,0.4-0.09
						c0.1,0.05,0.22,0.08,0.36,0.07c4.27-0.38,8.03-2.6,12.29-3.05c5.48-0.58,10.74,3.02,9.81,8.89c-0.01,0.05-0.01,0.09-0.01,0.14
						c-2.9-1.52-6.46-2.19-9.39-2.57c-4.5-0.59-11.48-0.09-14.72,3.61C177.07,296.3,177.38,294.82,177.02,293.61z"/>
				</g>
				<g>
					<path fill="#FFFFFF" d="M181.23,314.67c-0.91,5.6-3.87,10.27-5.39,15.64c-0.06,0.2,0.18,0.41,0.37,0.28
						c0.54-0.36,1.03-0.76,1.5-1.2c0.66,0.9,1.69,1.4,2.92,1.49c1.57,0.12,3.33-0.4,3.53,1.83c0.06,0.65,0.48,0.83,1.02,1.11
						c1.81,0.96,3.69-3.69,5.16-1.47c1.22,1.85,1.36,3.86,3.88,4.31c0.39,0.07,0.87-0.03,1.06-0.43c0.7-1.5,0.54-2.75,0.46-4.38
						c-0.12-2.42,5.81-2.19,7.35-3.14c0.13-0.08,0.1-0.26-0.04-0.31c0,0-0.01,0-0.01,0c-1.91-4.89-4.11-9.43-5.28-14.59
						c-0.63-2.79-0.91-5.63-1.09-8.48c-0.16-2.53,0.6-5.59-0.3-7.95c-0.15-0.4-0.68-0.51-0.92-0.12c-1.24,2.01-0.84,4.81-0.78,7.09
						c0.07,3.02,0.55,6.02,1.18,8.97c1.08,5.03,2.95,10.6,6.09,14.79c-2.05-0.38-5.02-0.2-6.56,0.7c-2.07,1.21-1.11,3.77-1.48,5.71
						c-1.58-1.07-2.07-4.07-3.96-4.98c-1.58-0.77-2.86,0.38-3.55,1.67c-0.77,1.43-0.4,0.54-0.8-0.55c-0.2-0.55-0.61-1.1-1.13-1.4
						c-0.54-0.32-1.19-0.38-1.8-0.25c-1.55,0.32-2.66-0.18-3.95-0.62c3.22-3.7,4.68-9.23,5.41-13.82c0.84-5.28,1.2-12.96-2.37-17.38
						c-0.34-0.42-0.94-0.04-0.97,0.4c-0.15,2.58,0.52,5.21,0.79,7.77C181.9,308.44,181.72,311.6,181.23,314.67z"/>
				</g>
			</g>
			<g opacity="0.7">
				<path fill="#FFFFFF" d="M190.06,147.32c-0.44-2.08-0.8-4.16-1.13-6.24c-0.06-8.16-0.1-16.32-0.08-24.48
					c0.02-7.62,0.07-15.24,0.15-22.86c0.06-1.69,0.08-3.37,0.06-5.06c0.17-15.51,0.45-31.02,0.84-46.53
					c0.63-25.41,3.09-51.07,2.46-76.47c-0.03-1.09-1.56-1.42-1.74-0.27c-3.71,24.42-3.8,49.89-4.77,74.61
					c-0.77,19.7-1.19,39.4-1.36,59.12c-2.34,13.76-2.28,28.44-0.32,41.91c0.12,0.86,0.26,1.71,0.41,2.56
					c0.18,14.15,0.5,28.3,0.92,42.45c-1.06,2.52-2.3,4.98-3.61,7.42c-5.98,11.12-12.7,22.02-9.83,35.68
					c1.33,6.34,4.84,11.85,8.06,17.1c1.72,2.8,3.41,5.62,4.96,8.55c1.9,3.6,2.6,7.5,3.97,11.31c0.22,0.61,0.92,0.86,1.32,0.48
					c0.07,0.38,0.12,0.76,0.19,1.14c0.18,0.96,1.38,0.67,1.43-0.22c0.75-12.01-0.3-24.09-0.79-36.1
					c-0.52-12.75-0.94-25.5-1.32-38.25c-0.05-1.59-0.08-3.18-0.12-4.77c2.04-4.89,3.35-9.99,3.74-15.53
					C194.1,164.33,191.79,155.54,190.06,147.32z M178,232.46c-5.58-13.19,1.76-25.04,7.81-36.1c0.41,11.7,0.93,23.39,1.56,35.08
					c0.38,7.04,0.64,14.14,1.23,21.19C185.6,245.39,180.49,238.35,178,232.46z"/>
			</g>
		</g>
		<g clip-path="url(#SVGID_2_)">
			<g>
				<g>
					<path fill="#FFFFFF" d="M268.87,324.36c11.84,8.51,28.02,7.95,40.15,0.4c13.1-8.16,18.75-24.1,14.88-38.87
						c-2.41-9.18-9.36-15.53-14.17-23.4c-0.72-1.17-3-0.76-2.52,0.8c2.34,7.52,8.7,12.87,11.71,20.11
						c3.15,7.59,2.79,16.44-0.17,24.01c-5.54,14.15-22,21.26-36.38,18.47c-14.84-2.88-25.52-18.02-25.55-32.69
						c-0.01-7.53,3.05-14.71,7.57-20.6c2.29-2.98,5.06-5.49,8.12-7.66c2.92-2.08,6.31-3.35,9.04-5.67c0.9-0.76,0.46-2.34-0.75-2.43
						c-6.9-0.52-13.74,5.27-18.11,10.07c-5.05,5.55-8.34,12.22-9.83,19.56C249.93,300.92,257.17,315.95,268.87,324.36z"/>
				</g>
				<g>
					<path fill="#FFFFFF" d="M277.63,252.1c-0.28-0.91-1.61-1.53-2.23-0.5c-1.05,1.73-1.36,3.67-1.9,5.59
						c-0.44,1.56-1.12,3.18-0.04,4.61c0.19,0.25,0.55,0.37,0.85,0.31c0.88-0.15,1.47-0.66,1.89-1.32c0.38,0.42,0.96,0.64,1.67,0.55
						c3.1-0.39,6.08-1.63,9.21-2.09c3.31-0.48,6.64-0.44,9.96-0.08c3.47,0.37,6.77,1.54,10.2,2.01c0.86,0.12,1.36-0.64,1.29-1.36
						c0.36-4.27-0.72-8.83-1.39-13.02c-0.28-1.74-1.31-2.77-2.63-3.43c0.33-2.39-1.23-4.93-3.49-5.98c-2.27-1.06-5-2.15-7.49-2.2
						c-2.93-0.06-5.32,0.21-7.79,1.33c-0.35,0.16-0.7,0.9-0.59,1.25c0.52,1.64,4.65,1.02,7.08,0.85c3.78-0.27,8.95,0.31,10.36,4.06
						c-0.44-0.12-0.89-0.22-1.33-0.31c-4.19-0.86-8.35-1.18-12.62-1c-2.22,0.1-4.77,0.27-7.19,0.77c0.08-0.36,0.1-0.44,0.05-0.2
						c0.03-0.1,0.07-0.21,0.11-0.31c0.01-0.03,0.02-0.04,0.02-0.06c0.02-0.02,0.04-0.05,0.09-0.12c0.18-0.26,0.35-0.51,0.48-0.81
						c0.29-0.71,0.01-1.57-0.61-2.01c-0.16-0.12-0.33-0.2-0.5-0.25c1.72-3.4,3.02-6.48,7.55-7.44c1.97-0.42,4.1,0.13,5.91,0.86
						c1.83,0.74,2.93,2.5,4.73,3.15c0.4,0.15,0.99-0.13,0.98-0.61c-0.05-2.63-2.13-4.33-4.69-5.26c1.86-1.25-1.56-4.82-2.74-5.35
						c-2.47-1.13-6.36-0.25-7.44,2.53c-0.29,0.75-0.54,1.98,0.44,2.35c1.08,0.41,2.03-1.43,2.65-1.99c1.55-1.42,3.7-0.74,4.9,0.71
						c0.19,0.23,0.44,0.84,0.76,1.33c-2.13-0.53-4.39-0.6-5.97-0.29c-4.12,0.81-9.6,5.79-8.8,10.45c-1.08,0.85-1.41,2.81-0.86,3.98
						c0.02,0.05,0.06,0.08,0.08,0.12c-0.81,0.28-1.58,0.62-2.29,1.02c-1.57,0.89-0.85,3.13,0.94,2.97c2.91-0.26,5.79-1.33,8.7-1.76
						c3.51-0.51,7.1-0.51,10.63-0.26c1.48,0.1,2.94,0.33,4.4,0.57c3.32,0.55,3.44,2.21,3.98,5.05c0.47,2.47,0.79,5.02,1.52,7.44
						c-4.49-2.58-10.39-3.15-15.37-3.15c-3.01,0-5.98,0.42-8.91,1.09c-1.07,0.25-3.23,0.62-4.76,1.43
						C277.89,255.6,278.15,253.81,277.63,252.1z"/>
				</g>
				<g>
					<g>
						<path fill="#FFFFFF" d="M299.17,274.68c0.6,2.59,1.5,5.11,2.59,7.53c0.52,1.17,1.14,2.3,1.77,3.41
							c0.49,0.87,2.3,2.61,1.88,3.62c-0.11,0.28,0.24,0.52,0.47,0.33c0.24-0.2,0.47-0.4,0.71-0.61c0.18-0.15,0.24-0.41,0.14-0.62
							c-2.17-4.6-4.14-9.08-5.17-14.09c-0.98-4.74-0.48-9.5-1.17-14.23c-0.1-0.71-1.13-0.77-1.37-0.13
							C297.27,264.4,298.11,270.11,299.17,274.68z"/>
					</g>
					<g>
						<path fill="#FFFFFF" d="M274.95,289.43c4.11-3.35,6.06-10.07,7.34-15c1.29-4.99,3.02-12.22,0.55-17.07
							c-0.28-0.54-1.09-0.55-1.32,0.05c-0.85,2.27-0.87,4.83-1.02,7.23c-0.18,2.9-0.67,5.79-1.34,8.61
							c-0.63,2.64-1.49,5.23-2.48,7.76c-1,2.57-2.48,5.01-3.03,7.73C273.5,289.46,274.46,289.83,274.95,289.43z"/>
					</g>
					<g>
						<path fill="#FFFFFF" d="M273.45,289.1c0.45,5.02,6.73,9.26,11.79,8.59c2.66,1.85,6.54,1.52,9.61,0.82
							c2.59-0.59,5.19-2.01,6.44-4.23c3.27-0.53,6.21-2.81,5.19-6.59c-0.11-0.39-0.67-0.3-0.62,0.11c0.28,2.66-1.69,4.3-3.96,4.9
							c0.15-0.63,0.19-1.3,0.12-2.02c-0.35-3.49-4.64-5.12-7.06-2.58c-2.44,2.56,0.55,5.57,3.16,6.12c0.23,0.05,0.47,0.09,0.71,0.11
							c-0.54,0.55-1.2,1-1.86,1.35c-2.55,1.38-6.33,1.89-9.11,1.11c0.81-0.49,1.54-1.16,2.14-2.07c1.66-2.53,0.06-6.84-3.36-6.32
							c-3.64,0.55-4.99,4.29-3.21,7.31c-1.6-0.11-3.21-0.75-4.49-1.57c-2.04-1.31-3.14-3.33-4.03-5.51
							C274.55,287.79,273.38,288.28,273.45,289.1z M299.65,292.97c-1.28-0.04-2.57-0.49-3.48-1.4c-1.47-1.47,0.27-3.19,1.9-3.09
							c1.8,0.11,2.25,2.66,1.89,3.97c-0.05,0.18-0.11,0.35-0.18,0.52C299.73,292.97,299.69,292.97,299.65,292.97z M286.03,290.58
							c1.47-0.78,2.67,0.39,2.64,1.87c-0.03,1.48-1.33,2.38-2.56,2.88c-0.13,0.05-0.26,0.1-0.39,0.14
							C284.32,293.99,283.82,291.75,286.03,290.58z"/>
					</g>
				</g>
			</g>
			<g opacity="0.7">
				<path fill="#FFFFFF" d="M293.86,137.53c0.04-12.39,0.08-24.79,0.11-37.18c0.13-0.11,0.26-0.23,0.38-0.35
					c5.22-5,5.98-11.74,4.88-18.64c-0.61-3.84-1.92-7.5-3.11-11.19c-1.1-3.39-1.61-6.71-2.05-10.09c0-9.98-0.03-19.97-0.14-29.95
					c-0.23-21.41,0.54-43.17-1.3-64.51c-0.07-0.76-1.08-0.7-1.15,0.03c-1.85,20.74-1.2,41.88-1.5,62.69
					c-0.14,9.57-0.21,19.14-0.25,28.71c-0.6,2.39-0.5,4.95-0.03,7.52c-0.03,8.81-0.04,17.62-0.04,26.43c0,2.15,0,4.3-0.01,6.45
					c-1.16,0.85-2.42,1.6-3.69,2.31c-5.72,3.22-10.48,6.65-11.77,13.55c-1.3,6.96,2.17,13.76,6.42,18.91
					c2.61,3.16,5.78,5.75,9.01,8.27c0,4.39-0.01,8.78,0,13.17c0.02,16.36-0.33,32.82,0.52,49.17c-1.54,7.32-1.73,14.87,0.36,22.61
					c0.04,0.13,0.21,0.08,0.22-0.04c0.21-2.39,0.42-4.79,0.65-7.19c0.09,0.22,0.46,0.28,0.49-0.01c0.42-3.76,0.74-7.53,1-11.3
					c0.53-3.06,1.18-6.09,2.05-9.08c2.58-8.93,7.59-16.39,11.51-24.68C313.52,158.11,304.8,146.8,293.86,137.53z M294.85,89.55
					c-0.15,1.07-0.45,2.04-0.85,2.91c0.01-4.45,0.03-8.91,0.04-13.36C294.91,82.52,295.35,86.03,294.85,89.55z M279.07,115.16
					c0.1-6.4,5.65-8.97,10.58-11.84c-0.01,10.23-0.02,20.46-0.02,30.68C283.9,129.07,278.94,123.3,279.07,115.16z M300.94,175.59
					c-2.71,5.17-5.31,10.49-7.39,15.93c0.29-11.39,0.19-22.81,0.25-34.19c0.02-4.51,0.03-9.03,0.05-13.54
					c1.7,1.36,3.35,2.76,4.89,4.29c3.32,3.31,5.88,7.41,6.54,12.14C306.03,165.64,303.36,170.97,300.94,175.59z"/>
			</g>
		</g>
		<g clip-path="url(#SVGID_2_)">
			<g>
				<g>
					<path fill="#FFFFFF" d="M462.61,253.3c0.95,14.84,6.4,29.17,14.78,41.37c1.7,2.48,3.84,5.24,6.91,6
						c3.47,0.86,6.48-0.72,9.06-2.95c5.31-4.6,9.12-11.29,11.91-17.64c2.96-6.76,4.59-14.09,5.43-21.39
						c0.82-7.07,1.32-15.08-0.91-21.94c-1.35-4.15-3.7-7.64-7.31-10.15c-3.02-2.1-7.25-3.21-10.44-1.02
						c-0.56,0.38-0.18,1.11,0.35,1.24c3.09,0.73,5.91,1.27,8.55,3.16c2.88,2.07,4.52,5.38,5.46,8.71
						c1.89,6.76,1.12,14.48,0.23,21.35c-0.9,6.98-2.78,13.81-5.67,20.23c-1.4,3.1-3.13,6.02-5.09,8.79
						c-2.11,2.98-4.64,6.3-8.03,7.86c-3.9,1.79-6.8-3.46-8.54-6.07c-2.09-3.14-3.84-6.47-5.41-9.89
						c-2.94-6.43-4.89-13.27-6.03-20.24c-1.18-7.23-1.67-15.11,0.5-22.2c0.98-3.2,2.71-6.03,5.2-8.27c2.46-2.21,5.57-2.86,8.51-4.11
						c1.23-0.52,1.26-2.46-0.05-2.92c-6.09-2.16-12.34,3.26-15.48,8.03C462.32,237.69,462.14,245.87,462.61,253.3z"/>
				</g>
				<g>
					<path fill="#FFFFFF" d="M474.43,221.64c-0.34-1.11-1.85-1.34-2.46-0.32c-0.81,1.37-0.6,3.13-0.55,4.66
						c0.02,0.53,0.06,2.4,0.99,2.3c0.55-0.06,0.85-0.47,1.06-0.95c0.19,0.39,0.6,0.68,1.05,0.71c1.94,0.11,3.61-0.48,5.47-0.96
						c2.57-0.67,5.1-0.93,7.76-0.87c4.93,0.11,8.86,2.58,13.54,3.37c0.74,0.13,1.48-0.6,1.03-1.34c-0.59-0.96-1.36-1.76-2.24-2.45
						c0.16-0.1,0.29-0.23,0.37-0.41c1.61-3.51,0.59-7.13-1.74-9.76c0.21,0.01,0.42-0.09,0.56-0.28c2.44-3.47-0.44-7.9-3.76-10.56
						c0.11-0.06,0.2-0.17,0.2-0.3c-0.28-4.97-3.92-10.55-9.44-10.68c-2.69-0.06-4.92,0.83-6.66,2.91c-1.26,1.5-1.83,3.62-0.17,5
						c0.35,0.29,0.76,0.29,1.11,0c0.58-0.49,1.05-1.03,1.34-1.74c1.05-2.54,3.36-2.98,5.79-2.38c3.05,0.75,5.13,4.14,7.01,6.57
						c-0.88-0.62-1.75-1.1-2.55-1.39c-5.52-2.06-14.58-1.11-17.68,4.64c-0.24,0.45,0.05,1.2,0.65,1.13
						c4.97-0.58,8.9-3.61,14.17-2.76c2.31,0.37,4.3,1.77,5.9,3.4c1.59,1.62,1.88,3.82,2.85,5.74c-0.96-0.91-2.09-1.68-3.33-2.22
						c-5.87-2.62-13.9-0.66-18.47,3.77c0,0,0,0,0,0c-0.68-0.76-1.49-0.85-1.8-1.95c-0.22-0.76,0.07-1.49-0.26-2.25
						c-0.04-0.1-0.16-0.14-0.26-0.15c-1.55-0.18-1.99,1.84-1.89,3.01c0.13,1.53,1.6,3.65,3.32,3.49c0.14-0.01,0.27-0.05,0.4-0.09
						c0.1,0.05,0.22,0.08,0.36,0.07c4.27-0.38,8.03-2.6,12.29-3.05c5.48-0.58,10.74,3.02,9.81,8.89c-0.01,0.05-0.01,0.09-0.01,0.14
						c-2.9-1.52-6.46-2.19-9.39-2.57c-4.5-0.59-11.48-0.09-14.72,3.61C474.48,224.33,474.8,222.85,474.43,221.64z"/>
				</g>
				<g>
					<path fill="#FFFFFF" d="M478.64,242.7c-0.91,5.6-3.87,10.27-5.39,15.64c-0.06,0.2,0.18,0.41,0.37,0.28
						c0.54-0.36,1.03-0.77,1.5-1.2c0.66,0.9,1.69,1.4,2.92,1.49c1.57,0.12,3.33-0.4,3.53,1.83c0.06,0.65,0.48,0.83,1.02,1.11
						c1.81,0.96,3.69-3.69,5.16-1.47c1.22,1.85,1.36,3.86,3.88,4.31c0.39,0.07,0.87-0.03,1.06-0.43c0.7-1.5,0.54-2.75,0.46-4.38
						c-0.12-2.42,5.81-2.19,7.35-3.14c0.13-0.08,0.1-0.26-0.04-0.31c0,0-0.01,0-0.01,0c-1.91-4.89-4.11-9.43-5.28-14.59
						c-0.63-2.79-0.91-5.63-1.09-8.48c-0.16-2.53,0.6-5.59-0.3-7.95c-0.15-0.4-0.68-0.51-0.92-0.12c-1.24,2.01-0.84,4.81-0.78,7.09
						c0.07,3.02,0.55,6.02,1.18,8.97c1.08,5.03,2.95,10.6,6.09,14.79c-2.05-0.38-5.02-0.2-6.56,0.7c-2.07,1.21-1.11,3.77-1.48,5.71
						c-1.58-1.07-2.07-4.07-3.96-4.98c-1.58-0.77-2.86,0.38-3.55,1.67c-0.77,1.43-0.39,0.54-0.8-0.55c-0.2-0.55-0.61-1.1-1.13-1.4
						c-0.54-0.32-1.19-0.38-1.8-0.25c-1.55,0.32-2.66-0.18-3.95-0.62c3.22-3.7,4.68-9.23,5.41-13.82c0.84-5.28,1.2-12.96-2.37-17.38
						c-0.34-0.42-0.94-0.04-0.97,0.4c-0.15,2.58,0.52,5.21,0.79,7.77C479.31,236.47,479.14,239.63,478.64,242.7z"/>
				</g>
			</g>
			<g opacity="0.7">
				<path fill="#FFFFFF" d="M489.5,2.97c-0.15-0.32-0.54-0.32-0.79-0.14c0.04-2.93,0.08-5.87,0.09-8.8
					c0.05-9.22,1.16-19.45-0.4-28.53c-0.12-0.71-1.04-0.54-1.19,0.04c-2.18,8.31-1.78,17.99-2.3,26.6
					c-0.58,9.46-0.79,18.96-1.02,28.43c-0.47,19.51-0.65,39.03-0.62,58.55c-2.17,8.6-4.47,17.17-6.39,25.83
					c-3.39,15.24-5.31,30.82-3.72,46.51c1.29,12.71,5.28,27.65,14.19,36.69c0.23,2.33,0.47,4.66,0.73,6.99
					c0.24,2.17,3.14,2.12,3.13-0.11c-0.18-38.57-2.26-77.16-2.78-115.74c-0.01-1.02-0.02-2.05-0.03-3.07
					c2.21-9.22,4.22-18.49,5.45-27.96C495.79,33.46,495.84,16.61,489.5,2.97z M481.15,168.22c-2.28-7.06-3.44-14.42-3.94-21.86
					c-1.11-16.75,2.3-33.41,6.13-49.48c0.2,27.95,0.89,56.12,3.32,83.93C484.55,176.79,482.59,172.71,481.15,168.22z M488.6,54.64
					c-0.11,0.63-0.22,1.26-0.33,1.89c-0.03-11.36,0.01-22.73,0.14-34.09c0.07-6,0.18-12.01,0.27-18.02
					C491.26,21.49,491.44,37.53,488.6,54.64z"/>
			</g>
		</g>
		<g clip-path="url(#SVGID_2_)">
			<g>
				<g>
					<path fill="#FFFFFF" d="M563.73,288.96c0.14,9.22,3.8,17.69,11.25,23.29c7.19,5.4,16.3,7.56,25.19,6.99
						c16.12-1.04,30.12-11.53,36.1-26.43c3.12-7.75,3.64-16.99,0.28-24.75c-2.83-6.53-8.26-12.03-15.33-13.62
						c-1.4-0.31-1.87,1.6-0.58,2.11c8.41,3.26,14.02,11.11,15.02,19.97c1.08,9.61-2.84,19.37-9.09,26.55
						c-12.2,14.03-35.4,18.05-50.32,5.88c-10.05-8.19-10.74-22.75-6.78-34.29c1.99-5.79,6.14-10.11,11.32-13.19
						c2.41-1.44,4.98-2.53,7.53-3.67c2.72-1.21,5.37-2.35,8.02-3.73c0.94-0.49,0.23-1.7-0.66-1.57c-2.14,0.3-4.15,0.6-6.21,1.24
						c-2.18,0.68-4.28,1.48-6.37,2.39c-3.91,1.72-7.59,4.1-10.66,7.08C565.63,269.79,563.59,279.8,563.73,288.96z"/>
				</g>
				<g>
					<g>
						<path fill="#FFFFFF" d="M610.11,268.11c0.85,2.41,1.92,4.74,3.11,7c1.03,1.97,2.35,4.45,4.33,5.61
							c0.47,0.27,0.98-0.15,0.89-0.66c-0.4-2.18-1.97-4.26-3.02-6.19c-1.21-2.23-2.23-4.56-3.12-6.94
							c-0.86-2.29-1.54-4.65-2.14-7.02c-0.3-1.18-0.58-2.37-0.87-3.55c-0.22-0.89-0.29-1.71-0.96-2.36
							c-0.09-0.09-0.22-0.07-0.29,0.03c-1.08,1.55-0.27,4.63,0.03,6.39C608.5,263.07,609.23,265.61,610.11,268.11z"/>
					</g>
					<g>
						<path fill="#FFFFFF" d="M585.03,282.78c3.51-3.6,5.4-8.86,7.35-13.42c1.06-2.47,2-4.99,2.89-7.53
							c0.83-2.37,1.74-4.85,1.71-7.39c-0.01-0.51-0.64-0.67-0.92-0.27c-1.34,1.92-2.03,4.22-2.85,6.4c-0.94,2.52-1.95,5.01-3,7.5
							c-1.95,4.66-4.92,9.22-6.08,14.16C584.02,282.74,584.64,283.19,585.03,282.78z"/>
					</g>
					<g>
						<path fill="#FFFFFF" d="M592.66,287.18c1.44-0.19,1.98-0.08,2.51,1.29c0.28,0.72,0.57,1.38,1.14,1.91
							c1.21,1.12,3,0.43,3.87-0.74c0.71-0.95,1.1-2.09,1.85-3.01c1.91-2.38,2.93,1.58,3.1,2.81c0.1,0.69,1.03,1.04,1.59,0.69
							c2.86-1.78,5.53-4.28,6.95-7.38c0.5-1.1-0.92-2.01-1.63-0.98c-1.5,2.16-3.05,4.04-5.1,5.58c-0.37-1.43-1.07-2.81-2.54-3.31
							c-2.27-0.77-3.93,0.79-4.97,2.66c-0.43,0.78-1.42,2.94-2.16,1.34c-0.34-0.74-0.53-1.59-1.11-2.19c-0.63-0.66-1.3-0.9-2.2-0.98
							c-1.1-0.1-2.46,0.78-3.5,0.09c-0.45-0.3-1.09,0.17-0.94,0.69C589.99,287.14,591.24,287.37,592.66,287.18z"/>
					</g>
				</g>
				<g>
					<path fill="#FFFFFF" d="M586.77,248.1c-1.2,1.19-2.16,2.69-1.68,4.38c0.52,1.84,3.2,3.73,4.47,1.43c0.26-0.48,0-0.97-0.41-1.24
						c-0.48-0.31-1.2-0.66-0.93-1.39c0.32-0.86,1.31-1.53,1.99-2.07c1.39-1.12,2.93-2.06,4.53-2.84c3.35-1.63,7.04-2.37,10.75-2.34
						c3.56,0.03,7.11,1.04,10.23,2.71c1.62,0.86,2.95,2.07,3.57,3.83c0.39,1.11,0.09,2.25-0.61,3.13c-0.15,0.19-0.33,0.34-0.52,0.48
						c-0.07-0.08-0.16-0.16-0.27-0.22c-3.96-2.19-8.95-2.71-13.4-2.84c-2.39-0.07-4.78,0.13-7.15,0.51
						c-2.13,0.33-4.41,0.77-6.09,2.21c-0.37,0.32-0.41,1.14,0.23,1.2c2.04,0.19,4.02-0.37,6.02-0.71c2.16-0.37,4.36-0.5,6.55-0.53
						c4.52-0.05,8.65,1.15,13.03,1.96c0.02,0.02,0.05,0.04,0.08,0.05c1.75,1.01,3.52-1.17,4.12-2.61c0.9-2.17-0.09-4.67-1.51-6.36
						c-0.19-0.22-0.39-0.44-0.59-0.65c0.02-0.03,0.05-0.06,0.07-0.09c2.22-3.35,0.11-7.38-2.68-9.94c2.06-3.21-1.16-6.81-4.03-8.28
						c0.26-0.2,0.36-0.63,0.07-0.92c-3.88-3.84-9.48-6.26-14.97-5.63c-2.41,0.27-4.78,1.3-6.58,2.93c-1.39,1.26-3.68,3.86-3,5.92
						c-0.92,0.81-1.69,1.79-2.14,2.53c-1.13,1.87-1.67,5.77,0.11,7.51c-0.19,0.3-0.35,0.62-0.49,0.93
						C584.57,243.38,585.33,246.23,586.77,248.1z M588.25,233.67c0.63-0.91,1.6-1.63,2.59-2.11c0.88-0.42,1.63-0.66,2.16-1.51
						c0.17-0.27,0.07-0.69-0.17-0.88c-0.56-0.44-1.16-0.59-1.77-0.54c0.34-0.71,0.69-1.42,1.21-2.01c1.55-1.75,3.83-2.61,6.1-2.9
						c4.32-0.54,8.11,1.32,11.8,3.25c-1.62-0.46-3.31-0.67-4.97-0.78c-2.37-0.16-5.24-0.12-7.23,1.34c-0.59,0.43-0.49,1.5,0.31,1.61
						c1.75,0.26,3.47-0.12,5.21-0.2c1.97-0.09,3.92,0.19,5.84,0.61c3.15,0.69,5.51,2.42,5.86,5.48c-0.38-0.27-0.77-0.51-1.15-0.71
						c-2.43-1.29-5.34-1.6-8.04-1.52c-2.84,0.08-6.19,0.56-8.38,2.49c-0.33,0.29-0.08,0.89,0.32,0.95c2.15,0.36,4.23-0.32,6.35-0.62
						c2.34-0.33,4.66-0.22,6.94,0.41c2.18,0.6,4.11,1.95,5.39,3.81c1.12,1.63,1.25,3.4,1.34,5.26c-3.62-2.75-8.95-3.75-13.2-3.88
						c-5.83-0.18-11.62,1.97-16.26,5.43c-0.04,0.03-0.09,0.07-0.13,0.1c-0.49-2.39-1.04-4.62,1.39-6.29
						c0.71-0.48,1.48-0.79,1.69-1.67c0.16-0.68-0.67-1.18-1.23-1.19c-1.18-0.02-2.22,0.48-3.05,1.24c-0.03-0.31-0.06-0.62-0.07-0.94
						C587.03,236.4,587.4,234.9,588.25,233.67z"/>
				</g>
			</g>
			<g opacity="0.7">
				<path fill="#FFFFFF" d="M600,95.75c0.19-21.65,1.02-43.31,2.38-64.92c1.35-21.52,4.3-43.1,4.99-64.64
					c0.04-1.23-1.86-1.44-2.13-0.26c-4.59,20.5-5.99,42.2-7.54,63.12c-1.23,16.57-2.03,33.15-2.43,49.75
					c-3.31,5.42-4.83,11.61-5.32,17.98c-0.26,3.46,0.38,6.93,1.42,10.2c1.29,4.05,3.63,7.78,2.94,12.21
					c-0.48,3.08-2.79,5.69-3.38,8.83c-0.46,2.48,0.17,5.07,0.93,7.41c1.11,3.41,2.91,6.52,3.94,9.68c0.1,2.51,0.21,5.02,0.32,7.53
					c-0.26,0.85-0.63,1.72-1.15,2.61c-2.89,5-8.18,8.3-11.59,12.92c-3.49,4.73-5.23,10.61-4.29,16.49c1.06,6.64,4.7,11.16,9.7,15.41
					c6.39,5.43,13.59,10.87,11.24,20.37c-0.09,0.35,0.38,0.66,0.63,0.36c0.68-0.83,1.19-1.67,1.57-2.51
					c0.34,1.84,0.7,3.69,1.09,5.52c0.14,0.65,1.13,0.46,1.13-0.17c-0.1-20.98-2.26-41.99-3.26-62.94c-0.12-2.56-0.23-5.12-0.34-7.68
					c0.64-2.73,0.45-5.59-0.31-8.39C600.02,128.35,599.86,112.05,600,95.75z M595.03,92.2c-0.01,0.59-0.02,1.18-0.02,1.77
					c-0.03,3.1-0.04,6.2-0.04,9.31C593.99,99.56,594.28,95.87,595.03,92.2z M588.37,194.21c-5.97-6.3-6.53-15.69-1.8-22.82
					c2.72-4.1,6.68-7.17,9.95-10.85c0.81,15.48,1.73,31.18,3.9,46.61C597.11,202.08,591.47,197.49,588.37,194.21z"/>
			</g>
		</g>
		<g clip-path="url(#SVGID_2_)">
			<g>
				<g>
					<path fill="#FFFFFF" d="M678.33,254.56c12.06,8.2,28.22,7.21,40.15-0.66c12.88-8.5,18.11-24.58,13.85-39.25
						c-2.65-9.11-9.76-15.28-14.78-23.02c-0.75-1.15-3.02-0.68-2.5,0.86c2.53,7.46,9.04,12.64,12.23,19.79
						c3.35,7.51,3.22,16.36,0.46,24c-5.16,14.29-21.43,21.84-35.88,19.42c-14.91-2.49-25.98-17.34-26.4-32.01
						c-0.21-7.53,2.66-14.78,7.03-20.8c2.21-3.04,4.92-5.62,7.91-7.87c2.86-2.15,6.22-3.51,8.88-5.91c0.88-0.79,0.4-2.35-0.82-2.41
						c-6.91-0.34-13.6,5.63-17.84,10.55c-4.9,5.68-8.02,12.44-9.31,19.81C658.78,231.62,666.41,246.46,678.33,254.56z"/>
				</g>
				<g>
					<path fill="#FFFFFF" d="M685.18,182.09c-0.3-0.91-1.65-1.49-2.24-0.45c-1,1.75-1.26,3.71-1.75,5.64
						c-0.4,1.57-1.04,3.21,0.08,4.61c0.2,0.25,0.56,0.35,0.86,0.29c0.87-0.18,1.45-0.7,1.86-1.37c0.39,0.4,0.97,0.62,1.69,0.51
						c3.09-0.47,6.04-1.79,9.15-2.33c3.3-0.57,6.63-0.61,9.96-0.34c3.48,0.28,6.8,1.36,10.25,1.74c0.86,0.1,1.35-0.68,1.25-1.39
						c0.25-4.28-0.95-8.81-1.74-12.98c-0.33-1.73-1.38-2.73-2.72-3.36c0.26-2.4-1.36-4.89-3.65-5.89c-2.29-1-5.05-2.02-7.55-2
						c-2.93,0.02-5.32,0.35-7.75,1.53c-0.35,0.17-0.67,0.92-0.56,1.26c0.56,1.63,4.68,0.9,7.1,0.66c3.77-0.37,8.95,0.07,10.47,3.79
						c-0.44-0.11-0.89-0.2-1.34-0.28c-4.21-0.75-8.38-0.96-12.64-0.66c-2.22,0.15-4.76,0.4-7.17,0.95c0.07-0.37,0.09-0.44,0.05-0.21
						c0.03-0.11,0.06-0.21,0.1-0.31c0.01-0.03,0.01-0.04,0.02-0.06c0.02-0.02,0.04-0.05,0.08-0.12c0.17-0.27,0.34-0.52,0.45-0.82
						c0.27-0.72-0.04-1.57-0.66-1.99c-0.17-0.11-0.34-0.19-0.51-0.23c1.63-3.44,2.85-6.56,7.35-7.63c1.96-0.47,4.1,0.02,5.93,0.7
						c1.84,0.69,2.99,2.42,4.81,3.02c0.41,0.14,0.98-0.15,0.96-0.64c-0.12-2.63-2.24-4.27-4.82-5.13c1.82-1.3-1.69-4.78-2.88-5.28
						c-2.5-1.06-6.37-0.08-7.37,2.72c-0.27,0.76-0.49,1.99,0.5,2.34c1.09,0.38,1.99-1.49,2.59-2.06c1.51-1.46,3.67-0.84,4.92,0.58
						c0.2,0.22,0.46,0.83,0.8,1.31c-2.15-0.47-4.4-0.48-5.98-0.13c-4.09,0.92-9.45,6.04-8.52,10.68c-1.06,0.87-1.33,2.85-0.76,4.01
						c0.02,0.05,0.06,0.08,0.09,0.12c-0.8,0.31-1.57,0.66-2.26,1.08c-1.55,0.93-0.77,3.15,1.02,2.94c2.9-0.34,5.75-1.48,8.65-1.99
						c3.5-0.61,7.08-0.69,10.62-0.54c1.48,0.07,2.95,0.25,4.42,0.45c3.34,0.46,3.5,2.12,4.11,4.95c0.53,2.45,0.93,5,1.72,7.4
						c-4.55-2.46-10.46-2.87-15.44-2.74c-3.01,0.08-5.97,0.58-8.87,1.33c-1.07,0.27-3.21,0.71-4.72,1.55
						C685.53,185.58,685.75,183.79,685.18,182.09z"/>
				</g>
				<g>
					<g>
						<path fill="#FFFFFF" d="M707.31,204.1c0.67,2.57,1.64,5.07,2.78,7.46c0.55,1.16,1.2,2.26,1.85,3.36
							c0.51,0.86,2.36,2.55,1.97,3.57c-0.11,0.28,0.26,0.52,0.48,0.32c0.23-0.21,0.46-0.42,0.69-0.62c0.17-0.16,0.23-0.41,0.12-0.63
							c-2.29-4.54-4.37-8.96-5.54-13.95c-1.1-4.71-0.73-9.49-1.54-14.19c-0.12-0.71-1.15-0.74-1.38-0.09
							C705.14,193.87,706.12,199.56,707.31,204.1z"/>
					</g>
					<g>
						<path fill="#FFFFFF" d="M683.48,219.48c4.02-3.46,5.8-10.23,6.94-15.19c1.16-5.02,2.7-12.29,0.1-17.08
							c-0.29-0.54-1.11-0.52-1.32,0.08c-0.79,2.29-0.75,4.85-0.83,7.25c-0.1,2.9-0.52,5.8-1.12,8.64c-0.56,2.66-1.35,5.27-2.27,7.83
							c-0.93,2.6-2.35,5.08-2.83,7.81C682.04,219.55,683,219.89,683.48,219.48z"/>
					</g>
					<g>
						<path fill="#FFFFFF" d="M681.98,219.19c0.58,5.01,6.97,9.08,12.01,8.28c2.7,1.78,6.58,1.35,9.63,0.57
							c2.57-0.65,5.14-2.15,6.33-4.4c3.25-0.61,6.14-2.98,5.02-6.72c-0.12-0.39-0.67-0.28-0.62,0.13c0.35,2.65-1.57,4.34-3.83,5.01
							c0.13-0.63,0.16-1.31,0.07-2.03c-0.45-3.48-4.77-4.99-7.13-2.39c-2.38,2.62,0.69,5.56,3.32,6.04c0.23,0.04,0.47,0.07,0.71,0.1
							c-0.53,0.56-1.17,1.03-1.82,1.4c-2.51,1.45-6.27,2.05-9.08,1.35c0.8-0.51,1.51-1.2,2.08-2.12c1.59-2.57-0.12-6.84-3.53-6.23
							c-3.62,0.65-4.88,4.42-3.02,7.39c-1.6-0.07-3.23-0.66-4.53-1.45c-2.08-1.25-3.23-3.25-4.18-5.41
							C683.04,217.85,681.88,218.37,681.98,219.19z M708.26,222.37c-1.28-0.01-2.58-0.42-3.52-1.31c-1.51-1.43,0.19-3.2,1.82-3.14
							c1.8,0.07,2.32,2.6,2,3.92c-0.04,0.18-0.1,0.35-0.17,0.52C708.35,222.37,708.31,222.37,708.26,222.37z M694.59,220.34
							c1.45-0.82,2.68,0.32,2.69,1.79c0.01,1.48-1.27,2.41-2.49,2.95c-0.13,0.06-0.26,0.1-0.39,0.15
							C692.97,223.79,692.42,221.57,694.59,220.34z"/>
					</g>
				</g>
			</g>
			<g opacity="0.7">
				<path fill="#FFFFFF" d="M711.28,101.69c-4.12-5.61-11.11-6.65-17.2-9.14c-0.04-2.48-0.07-4.97-0.08-7.45
					c0.11-0.03,0.22-0.07,0.32-0.1c2.54-0.82,4.71-2.29,6.49-4.29c3.8-4.29,0.85-8.51-2.41-11.74c-4.07-4.02-2.08-12.2-1.65-17.25
					c0.37-4.31,0.31-8.87-2.08-12.37c0.3-9.77,0.66-19.54,1-29.31c0.28-8.13,0.51-16.26,0.71-24.39c0.2-8.08,1.07-16.34,0.3-24.39
					c-0.11-1.16-1.92-1.7-2.16-0.34c-1.37,7.47-1.28,15.22-1.72,22.79c-0.47,8.12-0.98,16.25-1.4,24.37
					c-0.51,10.01-0.97,20.03-1.36,30.05c-0.07,0.24-0.08,0.5-0.03,0.77c-0.23,6.07-0.45,12.14-0.6,18.22
					c-0.21,8.19-0.31,16.38-0.27,24.57c-2.84,1.11-5.42,2.67-6.76,5.7c-0.48,1.08-0.41,2,0.32,2.94c1.86,2.38,4.15,3.94,6.64,5.13
					c0.08,3.56,0.18,7.12,0.31,10.68c0.2,5.22,0.41,10.53,0.76,15.86c-1.97,0.35-3.91,0.75-5.76,1.39
					c-6.11,2.13-13.61,10.19-10.19,17.37c3.59,7.55,13.22,7.52,19.54,11.55c0.32,0.21,0.67,0.08,0.87-0.16
					c0.1,0.38,0.19,0.76,0.3,1.13c0.28,0.99,1.78,0.85,1.78-0.22c0.04-9.39-0.64-18.81-1.33-28.22c4.42-0.88,8.59-1.95,12.43-4.64
					C714.43,115.72,715.91,108,711.28,101.69z M696.7,78.22c-0.72,0.81-1.7,1.36-2.72,1.78c0-2.97,0.01-5.93,0.04-8.9
					c0.31,0.42,0.63,0.84,0.97,1.24C696.28,73.87,699.43,75.15,696.7,78.22z M687.36,88.4c0.53-0.61,1.15-1.1,1.84-1.5
					c0.01,1.02,0.02,2.05,0.04,3.07C688.59,89.5,687.95,88.98,687.36,88.4z M677.98,135.4c1.17-6.04,7.31-8.33,12.7-9.57
					c0.67,8.36,1.75,16.71,3.76,24.71C690.06,144.41,676.09,145.15,677.98,135.4z M702.74,118.9c-2.29,1.15-4.81,1.77-7.38,2.25
					c-0.36-4.98-0.69-9.96-0.89-14.93c-0.12-2.96-0.21-5.91-0.28-8.87c4.71,1.57,9.62,2.81,13.46,6.17
					C714.04,109.12,708.39,116.06,702.74,118.9z"/>
			</g>
		</g>
		<g clip-path="url(#SVGID_2_)">
			<g>
				<polygon fill="#FFFFFF" points="401.2,364.03 410.2,364.75 416.63,372.03 419.33,387.03 429.7,399.78 438.83,412.22 
					438.64,425.65 424.83,441.41 412.33,447.28 393.08,448.41 379.45,442.66 370.08,429.03 368.58,413.41 378.08,398.03 
					385.33,392.78 386.95,378.91 392.08,367.78 				"/>
			</g>
			<g>
				<g>
					<path fill="#FFE161" d="M443.61,380.53c-1.72,1.19-3.07,2.83-4.42,4.4c-1.46,1.7-3.11,3.58-3.62,5.81
						c-0.51,2.23,1.76,4.03,3.8,2.92c1.78-0.96,3.08-2.66,4.43-4.12c1.41-1.54,3.02-2.89,4.27-4.56
						C450.02,382.37,446.22,378.73,443.61,380.53z"/>
				</g>
				<g>
					<path fill="#FFE161" d="M463.08,402.04c-2.54,0.27-5.06,0.55-7.59,0.92c-2.56,0.37-5.31,0.54-7.18,2.51
						c-0.93,0.98-0.64,2.35,0.4,3.09c1.91,1.37,4.3,1.21,6.57,1.11c2.61-0.11,5.2-0.29,7.8-0.51
						C467.65,408.78,467.62,401.57,463.08,402.04z"/>
				</g>
				<g>
					<path fill="#FFE161" d="M464.98,439.27c-3.22-2.52-8.37-4.47-12.51-4.15c-2.35,0.19-3.27,3.11-1.2,4.44
						c1.66,1.07,3.51,1.67,5.31,2.44c1.81,0.78,3.51,1.82,5.41,2.41C464.77,445.28,467.46,441.23,464.98,439.27z"/>
				</g>
				<g>
					<path fill="#FFE161" d="M445.56,462.54c-0.84-1.71-2.4-3.11-3.55-4.64c-1.14-1.51-2.3-3.21-3.81-4.38
						c-1.91-1.48-4.2-0.12-3.88,2.26c0.28,2.1,1.48,4.16,2.62,5.92c1.22,1.89,2.46,3.82,4.28,5.17
						C444.02,468.93,446.81,465.1,445.56,462.54z"/>
				</g>
				<g>
					<path fill="#FFE161" d="M413.64,478.05c-0.69-2.18-1.11-4.41-1.63-6.63c-0.34-1.43-0.78-6.53-3.42-5.86
						c-2.96,0.75-2.68,5.47-2.72,7.82c-0.05,3.38,0.48,8.77,3.23,11c1.65,1.34,4.4,1.04,4.98-1.31
						C414.55,481.16,414.23,479.9,413.64,478.05z"/>
				</g>
				<g>
					<path fill="#FFE161" d="M382.48,462.93c-4.37,1.92-6.89,7.43-8.55,11.59c-1.8,4.51,5.67,6.63,7.32,2.02
						c1.33-3.7,4.02-6.86,5.15-10.59C387.15,463.48,384.48,462.06,382.48,462.93z"/>
				</g>
				<g>
					<path fill="#FFE161" d="M360.24,446.36c-5,1.41-11.03,4.13-14.93,7.58c-2.63,2.33,0.13,6.86,3.4,5.84
						c2.66-0.83,5.13-2.49,7.48-3.98c2.36-1.5,4.64-3,6.69-4.92C364.86,449.01,362.8,445.64,360.24,446.36z"/>
				</g>
				<g>
					<path fill="#FFE161" d="M353.02,419.02c-1.37-2.39-4.02-2.29-6.51-2.32c-3.13-0.04-6.26,0.07-9.39,0.18
						c-4.89,0.17-4.89,7.83,0,7.59C339.48,424.35,356.31,424.77,353.02,419.02z"/>
				</g>
				<g>
					<path fill="#FFE161" d="M366.89,393.64c-1.38-2.46-4.03-4.06-6.15-5.83c-2.07-1.72-4.24-4.65-6.99-5.08
						c-2.5-0.39-4.55,1.4-4.01,4.01c0.59,2.84,3.54,4.67,5.69,6.39c2.33,1.87,5.09,4.4,8.14,4.85
						C366.02,398.32,368.27,396.1,366.89,393.64z"/>
				</g>
				<g opacity="0.5">
					<polygon fill="#FFCE00" points="401.2,364.03 410.2,364.75 416.63,372.03 419.33,387.03 429.7,399.78 438.83,412.22 
						438.64,425.65 424.83,441.41 412.33,447.28 393.08,448.41 379.45,442.66 370.08,429.03 368.58,413.41 378.08,398.03 
						385.33,392.78 386.95,378.91 392.08,367.78 					"/>
				</g>
				<g opacity="0.5">
					<path fill="#FFCE00" d="M438.83,417.12c-0.1-1.06-0.26-2.12-0.54-3.19c-0.29-1.14-0.58-2.28-0.89-3.42
						c-7.79,2.41-15.17,5.76-22.21,9.78c6.59-5.25,13.32-10.33,20.02-15.37c-0.12-0.24-0.25-0.48-0.37-0.73
						c-0.54-0.52-1.04-1.05-1.48-1.56c-0.52-0.61-1.07-1.33-1.58-2.1c-11.76,5-22.65,11.36-33.09,18.47
						c9.01-8.19,18.42-15.95,28.22-23.08c-0.61-0.46-1.18-0.97-1.68-1.49c-0.81-0.84-1.42-1.65-1.9-2.5
						c-9.96,4.12-19.36,9.28-28.44,14.99c8.39-6.47,17.07-12.57,25.82-18.59c-0.84-1.4-1.51-2.89-2.03-4.45
						c-8.95,4.46-17.66,9.25-26.14,14.61c-5,3.15-9.82,6.98-14.78,10.56c12.63-11.26,25.83-21.85,39.56-31.79
						c0.01-0.64,0.24-1.13,0.63-1.44c-0.17-1.13-0.27-2.28-0.34-3.44c-7.56,4.6-15.11,9.21-22.66,13.82
						c5.58-5.2,11.17-10.4,16.73-15.63c1.32-1.24-0.41-3.51-1.94-2.52c-5.04,3.26-10.08,6.53-15.12,9.79
						c3.45-3.61,6.77-7.35,9.99-11.21c0.73-0.87-0.25-2.47-1.31-1.69c-5.88,4.36-11.69,8.82-17.53,13.24c0.01,0.42,0,0.84-0.01,1.26
						c3.58-2.43,7.16-4.85,10.74-7.27c-3.58,3.7-7.28,7.28-11.06,10.77c-0.21,1.57-0.48,2.99-0.66,4.03
						c-0.05,0.28-0.11,0.54-0.17,0.81c3.87-2.45,7.74-4.91,11.61-7.36c-4.35,4-8.69,8.01-13.04,12.01c-0.87,2-2.01,3.71-3.45,5.19
						c0.49,0.7,1.42,1.11,2.3,0.58c2.91-1.75,5.81-3.51,8.71-5.26c-7.47,6.05-14.78,12.3-21.94,18.71
						c-0.02,0.11-0.04,0.22-0.06,0.34c-0.42,2.64-0.57,5.48-0.88,8.28c8.46-4.3,15.91-10.86,23.77-16.03
						c0.02-0.01,0.04-0.03,0.06-0.04c-8.29,6.37-16.32,13.07-23.88,20.29c0.33,1.81,0.67,3.61,1.06,5.41
						c0.18,0.07,0.36,0.16,0.52,0.27c12.95-9.37,26.08-18.56,40.07-26.24c-12.56,10.28-24.55,21.16-35.84,32.94
						c1.36,1.21,2.73,2.4,4.1,3.59c12.52-9.75,25.37-19.55,39.21-27.44c-12.21,9.67-23.93,19.87-34.96,30.93
						c0.12,0.09,0.24,0.18,0.36,0.26c1.68,0.93,3.34,1.92,5.08,2.76c12.44-10.07,25.11-19.93,39.48-26.76
						c-11.15,8.98-21.98,18.33-31.76,28.77c3.43,0.03,6.85,0.2,10.26,0.4c5.48-4.21,11.07-8.27,16.89-11.95
						c-4.41,3.55-8.66,7.29-12.67,11.3c2.82-0.72,5.6-1.63,8.25-2.82c4-1.81,7.52-4.08,11.08-6.39c-0.21-0.13-0.44-0.22-0.68-0.25
						c1.87-1.48,3.78-2.92,5.7-4.35c0.98-1.53,1.87-3.13,2.67-4.68c0.79-1.55,1.46-3.07,2.02-4.58c0.06-0.93,0.13-1.86,0.19-2.78
						c-7,2.81-13.62,6.37-19.95,10.41C425.38,427.72,432.09,422.39,438.83,417.12z"/>
				</g>
			</g>
			<g>
				<g>
					<path fill="#FFFFFF" d="M370.09,435.16c15.79,26.52,59.66,17.73,69.75-9.29c2.45-6.57,1.32-14.08-2.14-20.05
						c-3.17-5.47-8.76-9.04-13.02-13.56c-2.55-2.72-4.05-5.73-4.78-9.38c-0.75-3.75-0.74-7.54-1.86-11.22
						c-1.53-5.05-7.48-10.44-12.8-7.16c-0.61,0.38-0.42,1.54,0.39,1.45c9.99-1.09,9.73,11.19,10.74,17.9
						c1.04,6.89,5.75,11.62,10.65,16.12c5.78,5.32,10.23,10.86,10.07,19.14c-0.15,8.23-6.28,15.18-12.5,19.88
						c-12.6,9.52-29.85,11.6-43.13,2.37c-12.06-8.38-15.4-26.35-5.21-37.52c4.37-4.79,9.79-7.72,11.59-14.39
						c1.44-5.32-1.86-17.15,8.11-21.5c2.65-1.16,7.61-4.83,4.75-4.9c-9.45-0.25-15.83,10.25-16.45,16.46
						c-0.39,3.91-0.01,7.93-1.85,11.55c-1.64,3.21-4.98,5.46-7.61,7.8C364.58,407.98,363.24,423.65,370.09,435.16z"/>
				</g>
				<g>
					<path fill="#FFFFFF" d="M387.69,365.07c0.48,1.61,1.78,3.27,3.48,3.65c0.28,0.06,0.55,0.01,0.76-0.11
						c1.03,0.02,1.91-0.34,2.96-0.73c1.89-0.71,3.71-1.32,5.69-1.74c3.86-0.82,7.5-0.01,11.34,0.33c0.58,0.05,0.97-0.34,1.1-0.82
						c0.46,0.43,1.26,0.48,1.79-0.22c3.51-4.69,1.56-8.77-2.51-11.01c0.12-2.35,0.93-4.52-0.22-6.91c-0.75-1.55-2.36-2.5-4.03-2.83
						c0.35-2.2,0.21-4.48-1.76-5.96c-2.33-1.76-5.78-2.09-8.4-0.83c-0.93,0.44-0.73,2.05,0.29,2.24c1.3,0.23,2.52,0.04,3.84,0.06
						c3.25,0.05,3.59,2.89,3.03,5.4c-0.18,0.82,0.39,1.83,1.34,1.76c4.17-0.33,3.56,3.25,4.02,6.22c-0.47-0.17-0.95-0.32-1.44-0.44
						c-3.36-0.85-6.86-0.7-10.23-0.05c-1.39,0.27-3.69,0.77-5.39,1.73c0.2-0.6,0.11-1.37,0.15-1.94c0.22-3.22,2.69-4.79,5.76-4.61
						c0.94,0.06,1.02-1.28,0.21-1.57c-1.8-0.63-3.71-0.28-5.28,0.65c0.66-0.74,0.55-1.9,0.76-2.82c0.22-1,0.8-2.02,0.7-3.06
						c-0.02-0.17-0.14-0.37-0.35-0.35c-2.25,0.24-4.05,5.1-1.9,6.4c0.13,0.08,0.29,0.09,0.43,0.06c-2.18,1.49-3.55,4.15-2.7,6.88
						c0.14,0.45,0.58,1.02,1.09,1.14c-0.56,0.5-0.95,1.09-1.05,1.79c-0.09,0.55,0.13,1.01,0.68,1.2c1.84,0.64,3.65-0.85,5.34-1.47
						c2.28-0.83,4.69-1.14,7.1-1.17c2.34-0.02,4.77,0.33,6.91,1.32c3.18,1.47,2.89,4.19,1.62,6.99c-0.03,0.06-0.05,0.12-0.07,0.18
						c-0.06-0.06-0.13-0.12-0.21-0.16c-3.51-1.95-8.1-2.08-11.99-1.51c-2.58,0.38-7.02,1.16-8.97,3.49
						c-1.11-1.36-1.71-2.9-1.56-4.76c0.05-0.67-0.91-1.07-1.35-0.56C387.62,362.11,387.24,363.54,387.69,365.07z"/>
				</g>
				<g>
					<g>
						<path fill="#FFFFFF" d="M389.07,400.15c0.64,0.99,1.58,1.46,2.62,1.43c-0.24,1.7-0.46,3.41-0.59,5.1c-0.07,0.94,0,2,0.91,2.54
							c1.95,1.14,4.03-1.65,5.2-3.78c0.75,1.46,1.51,2.91,2.19,4.41c0.21,0.46,0.81,0.42,1.14,0.15c1.11-0.92,1.94-1.99,2.38-3.32
							c0.35,0.32,0.69,0.65,1.02,1.02c0.21,0.23,0.61,0.16,0.75-0.1c0.47-0.82,0.91-1.67,1.34-2.52c0.77,1.78,1.55,3.56,2.28,5.36
							c0.29,0.7,1.17,0.72,1.45,0c0.93-2.41,1.78-4.87,2.65-7.31c0.76,0.91,0.88,2.86,1.43,3.78c0.53,0.87,1.43,1.24,2.4,1.19
							c1.08-0.05,1.64-1.13,2-1.99c0.79-1.9,1.95-3.93,2.3-6c0.68,0.33,1.37,0.53,2.05,0.52c0.35-0.01,0.53-0.37,0.38-0.67
							c-0.95-1.87-3.37-3.26-4.8-4.83c-1.75-1.92-3.1-4.2-4.19-6.54c-1.12-2.4-1.83-5.07-2.14-7.7c-0.26-2.22,0.28-5.02-0.79-7.03
							c-0.18-0.34-0.64-0.36-0.9-0.12c-1.76,1.66-1.54,4.94-1.33,7.14c0.29,2.98,1.14,5.83,2.38,8.54c1.18,2.57,2.85,4.88,4.78,6.94
							c0.85,0.91,2.03,2.12,3.32,3.01c-0.61,0.8-0.98,1.68-1.4,2.65c-0.24,0.54-1.84,5.47-2.99,3.59c-1.03-1.68-0.42-3.74-2.71-4.44
							c-0.43-0.13-0.83,0.16-0.97,0.55c-0.77,2.17-1.57,4.32-2.32,6.5c-0.77-1.68-1.52-3.37-2.28-5.05c-0.2-0.43-0.95-0.44-1.14,0
							c-0.48,1.1-0.97,2.21-1.41,3.33c-0.38-0.38-0.73-0.77-1.08-1.19c-0.21-0.25-0.7-0.19-0.84,0.11c-0.52,1.09-1.1,2.03-1.91,2.86
							c-0.81-1.69-1.54-3.42-2.33-5.12c-0.25-0.53-1.19-0.55-1.43,0c-0.29,0.67-0.61,1.28-0.99,1.91c0.04-0.07-2.87,3.34-2.97,2.15
							c-0.17-2.02,0.72-4.47,1-6.49c0.08-0.58-0.37-1.31-1.06-1.06c-0.97,0.36-1.66,0.11-2.48-0.47
							C389.44,398.83,388.72,399.6,389.07,400.15z"/>
					</g>
					<g>
						<path fill="#FFFFFF" d="M386.4,400.59c4.18-2.76,6.57-7.31,8.08-11.97c0.79-2.42,1.1-4.99,1.21-7.52
							c0.09-1.9,0-4.51-1.31-6.01c-0.12-0.13-0.37-0.1-0.45,0.06c-0.77,1.55-0.58,3.52-0.74,5.22c-0.22,2.32-0.68,4.53-1.31,6.77
							c-1.29,4.58-4.01,8.46-6.46,12.47C385.07,400.21,385.8,400.99,386.4,400.59z"/>
					</g>
				</g>
			</g>
			<g opacity="0.7">
				<path fill="#FFFFFF" d="M406.06,255.98c9.76-6.48,18.42-13.09,12.23-26.88c-2.5-5.57-7.05-9.35-11.76-12.98
					c0.12-14.39,0.19-28.78,0.21-43.17c5.37-7.71,6.66-16.58,0.06-24.24c-0.03-0.04-0.06-0.07-0.09-0.11
					c-0.09-26.91-0.42-53.83-0.91-80.74c-0.28-15.09-0.62-30.18-1.01-45.26c-0.2-7.87-0.42-15.74-0.67-23.61
					c-0.22-7.32-0.41-14.64-2.2-21.75c-0.13-0.53-0.92-0.51-1.02,0.03c-2.59,13.99-0.67,29.29-0.33,43.48
					c0.36,15.09,0.65,30.18,0.9,45.27c0.23,14.12,0.39,28.25,0.52,42.38c-0.4-0.26-0.98-0.18-1.22,0.45
					c-3.78,10.28-6.85,22.36-2.66,33.08c1.03,2.63,2.54,4.74,4.13,6.79c0.01,2.62,0.03,5.23,0.04,7.85c0.02,5.2,0.02,10.4,0.02,15.6
					c-0.52,0.64-1.03,1.24-1.52,1.79c-6.65,7.45-14.39,14.41-12.96,25.64c1.06,8.31,7.91,13.89,14.34,18.72
					c-0.07,9.6-0.15,19.2-0.26,28.79c-0.03,2.18-0.06,4.35-0.09,6.53c-7.65,4.72-14.84,10.34-17.96,19.47
					c-3.32,9.73,0.97,17.74,8.56,23.21c3.88,2.8,6.72,6.09,8.51,9.78c-0.35,11.19-0.59,22.47,0.99,33.44
					c0.04,0.27,0.42,0.36,0.48,0.05c1.15-5.65,1.76-11.41,2.11-17.21c1.89-4.71,1.8-10.05,0.49-15.05
					c0.06-3.73,0.11-7.45,0.21-11.14C405.59,282.79,405.85,269.38,406.06,255.98z M402.02,111.38c0.09,10,0.14,20.01,0.19,30.01
					C398.27,132.11,400.15,121.91,402.02,111.38z M406.76,158.41c0-1.13-0.01-2.27-0.01-3.4c0.02,0.03,0.03,0.05,0.05,0.08
					c1.79,3.2,1.34,6.71-0.04,9.98C406.75,162.85,406.76,160.63,406.76,158.41z M395.3,206.04c-8.38-10.78,0.01-19.64,7.02-27.64
					c0,11.45-0.05,22.89-0.12,34.34C399.67,210.71,397.26,208.57,395.3,206.04z M407.44,222.33c5.13,4.13,9.99,10.4,8.85,17.62
					c-0.84,5.32-5.87,8.57-10.15,11.1c0-0.04,0-0.09,0-0.13c0.14-9.78,0.25-19.56,0.34-29.34
					C406.81,221.83,407.13,222.08,407.44,222.33z M394.52,292.79c-5.27-3.93-8.02-8.25-7.39-15.2c0.78-8.6,7.46-13.92,14.63-18.76
					c-0.15,11.17-0.31,22.35-0.46,33.52c-0.03,2.17-0.08,4.34-0.14,6.52C399.31,296.5,396.95,294.6,394.52,292.79z"/>
			</g>
		</g>
	</g>
</g>
</svg>
