<svg id="Capa_1" enable-background="new 0 0 512 512" height="512" viewBox="0 0 512 512" width="512" xmlns="http://www.w3.org/2000/svg"><g><g><g><g><path d="m221.473 504.5h-166.272c-5.52 0-9.995-4.475-9.995-9.995v-305.287c0-5.52 4.475-9.995 9.995-9.995h166.272c5.52 0 9.995 4.475 9.995 9.995v305.287c0 5.52-4.475 9.995-9.995 9.995z" fill="#0067c5"/><path d="m231.468 189.218c0-5.52-4.475-9.994-9.995-9.994h-106.012v291.147h116.007z" fill="#0055a3"/><path d="m308.244 63.682h-102.671c-5.52 0-9.995 4.475-9.995 9.995v71.779h122.66v-71.779c.001-5.52-4.474-9.995-9.994-9.995z" fill="#9c9c9c"/><path d="m308.244 63.683h-42.52c5.52 0 9.995 4.475 9.995 9.994v71.779h42.52v-71.779c-.001-5.52-4.475-9.994-9.995-9.994z" fill="#838383"/><g fill="#c0d6f2"><path d="m172.94 242.589h-77.383c-8.739 0-15.824-7.085-15.824-15.824 0-8.739 7.085-15.824 15.824-15.824h77.384c8.739 0 15.824 7.085 15.824 15.824-.001 8.74-7.085 15.824-15.825 15.824z"/><path d="m172.94 309.871h-77.383c-8.739 0-15.824-7.085-15.824-15.824 0-8.739 7.085-15.824 15.824-15.824h77.384c8.739 0 15.824 7.085 15.824 15.824-.001 8.74-7.085 15.824-15.825 15.824z"/><path d="m172.94 377.154h-77.383c-8.739 0-15.824-7.085-15.824-15.824 0-8.739 7.085-15.824 15.824-15.824h77.384c8.739 0 15.824 7.085 15.824 15.824-.001 8.739-7.085 15.824-15.825 15.824z"/><path d="m172.94 444.436h-77.383c-8.739 0-15.824-7.085-15.824-15.824 0-8.739 7.085-15.824 15.824-15.824h77.384c8.739 0 15.824 7.085 15.824 15.824-.001 8.739-7.085 15.824-15.825 15.824z"/></g><path d="m115.461 242.589h57.479c8.739 0 15.824-7.084 15.824-15.824 0-8.739-7.084-15.824-15.824-15.824h-57.479z" fill="#b2caec"/><path d="m115.461 309.872h57.479c8.739 0 15.824-7.084 15.824-15.824s-7.084-15.824-15.824-15.824h-57.479z" fill="#b2caec"/><path d="m115.461 377.153h57.479c8.739 0 15.824-7.084 15.824-15.823 0-8.739-7.084-15.824-15.824-15.824h-57.479z" fill="#b2caec"/><path d="m115.461 444.436h57.479c8.739 0 15.824-7.084 15.824-15.824s-7.084-15.824-15.824-15.824h-57.479z" fill="#b2caec"/><path d="m231.468 494.505v-24.134h-129.447c-6.627 0-12 5.373-12 12v22.129h131.453c5.519 0 9.994-4.475 9.994-9.995z" fill="#0055a3"/><path d="m456.799 504.5h-166.273c-5.52 0-9.995-4.475-9.995-9.995v-240.776c0-5.52 4.475-9.995 9.995-9.995h166.272c5.52 0 9.995 4.475 9.995 9.995v240.777c0 5.519-4.474 9.994-9.994 9.994z" fill="#0473ce"/><path d="m428.146 317.87h-27.04c-2.509 0-4.543-2.034-4.543-4.543v-26.359c0-2.509 2.034-4.543 4.543-4.543h27.04c2.509 0 4.543 2.034 4.543 4.543v26.359c0 2.509-2.034 4.543-4.543 4.543z" fill="#c0d6f2"/><path d="m428.146 393.226h-27.04c-2.509 0-4.543-2.034-4.543-4.543v-26.359c0-2.509 2.034-4.543 4.543-4.543h27.04c2.509 0 4.543 2.034 4.543 4.543v26.359c0 2.509-2.034 4.543-4.543 4.543z" fill="#c0d6f2"/><path d="m428.146 468.582h-27.04c-2.509 0-4.543-2.034-4.543-4.543v-26.359c0-2.509 2.034-4.543 4.543-4.543h27.04c2.509 0 4.543 2.034 4.543 4.543v26.359c0 2.509-2.034 4.543-4.543 4.543z" fill="#c0d6f2"/><path d="m358.671 470.372h-203.525v-350.039c0-5.52 4.475-9.995 9.995-9.995h183.536c5.52 0 9.995 4.475 9.995 9.995v350.039z" fill="#5a5a5a"/><path d="m209.25 424.329h-18.778c-2.509 0-4.543-2.034-4.543-4.543v-258.862c0-2.509 2.034-4.543 4.543-4.543h18.778c2.509 0 4.543 2.034 4.543 4.543v258.862c0 2.509-2.034 4.543-4.543 4.543z" fill="#d3e1f5"/><path d="m266.297 424.329h-18.777c-2.509 0-4.543-2.034-4.543-4.543v-258.862c0-2.509 2.034-4.543 4.543-4.543h18.778c2.509 0 4.543 2.034 4.543 4.543v258.862c-.001 2.509-2.035 4.543-4.544 4.543z" fill="#d3e1f5"/><path d="m456.799 243.734h-34.104c5.52 0 9.995 4.475 9.995 9.995v240.777c0 5.52-4.475 9.995-9.995 9.995h34.104c5.52 0 9.995-4.475 9.995-9.995v-240.777c-.001-5.521-4.475-9.995-9.995-9.995z" fill="#0067c5"/><path d="m348.676 110.338h-42.52c5.52 0 9.995 4.475 9.995 9.994v350.039h42.52v-350.038c0-5.52-4.475-9.995-9.995-9.995z" fill="#444"/><path d="m323.345 424.329h-18.778c-2.509 0-4.543-2.034-4.543-4.543v-258.862c0-2.509 2.034-4.543 4.543-4.543h18.778c2.509 0 4.543 2.034 4.543 4.543v258.862c0 2.509-2.034 4.543-4.543 4.543z" fill="#d3e1f5"/><path d="m323.345 424.329c2.509 0 4.543-2.034 4.543-4.543v-258.862c0-2.509-2.034-4.543-4.543-4.543h-7.193v267.948z" fill="#82aee3"/><path d="m372.112 470.372h-230.406c-6.627 0-12 5.373-12 12v22.128h254.406v-22.128c0-6.628-5.373-12-12-12z" fill="#838383"/><path d="m384.112 504.5v-22.128c0-6.627-5.373-12-12-12h-42.52c6.627 0 12 5.373 12 12v22.128z" fill="#5a5a5a"/></g></g><path d="m304.567 148.881c-6.641 0-12.043 5.402-12.043 12.043v258.862c0 6.641 5.402 12.043 12.043 12.043h18.777c6.641 0 12.043-5.402 12.043-12.043v-258.862c0-6.641-5.402-12.043-12.043-12.043zm15.821 267.948h-12.863v-252.948h12.863z"/><path d="m456.799 236.234h-90.628v-42.338c0-4.142-3.357-7.5-7.5-7.5s-7.5 3.358-7.5 7.5v268.976h-188.525c0-10.735 0-328.187 0-342.539 0-1.375 1.119-2.494 2.494-2.494h183.536c1.375 0 2.494 1.119 2.494 2.494v38.563c0 4.142 3.357 7.5 7.5 7.5s7.5-3.358 7.5-7.5v-38.563c0-9.646-7.848-17.494-17.494-17.494h-22.938v-29.162c0-9.646-7.848-17.494-17.494-17.494h-43.836v-48.683c0-4.142-3.357-7.5-7.5-7.5s-7.5 3.358-7.5 7.5v48.683h-43.835c-9.646 0-17.495 7.848-17.495 17.494v29.162h-22.938c-9.646 0-17.494 7.848-17.494 17.494v51.392h-92.445c-9.646 0-17.494 7.848-17.494 17.495v49.294c0 4.142 3.357 7.5 7.5 7.5s7.5-3.358 7.5-7.5v-49.294c0-1.375 1.119-2.495 2.494-2.495h92.445v16.718h-52.09c-12.86 0-23.323 10.463-23.323 23.324s10.463 23.324 23.323 23.324h52.09v20.634h-52.09c-12.86 0-23.323 10.463-23.323 23.324s10.463 23.324 23.323 23.324h52.09v20.634h-52.09c-12.86 0-23.323 10.463-23.323 23.324s10.463 23.324 23.323 23.324h52.09v20.635h-52.09c-12.86 0-23.323 10.463-23.323 23.324s10.463 23.324 23.323 23.324h52.09v10.936h-5.94c-10.752 0-19.5 8.748-19.5 19.5v14.626h-67.005c-1.375 0-2.494-1.119-2.494-2.495v-220.992c0-4.142-3.357-7.5-7.5-7.5s-7.5 3.358-7.5 7.5v220.992c0 9.646 7.848 17.495 17.494 17.495h401.598c9.646 0 17.494-7.848 17.494-17.495v-240.776c0-9.647-7.848-17.495-17.494-17.495zm-253.721-162.557c0-1.375 1.119-2.494 2.495-2.494h102.671c1.375 0 2.494 1.119 2.494 2.494v29.162h-107.66zm-107.521 161.412c-4.59 0-8.323-3.734-8.323-8.324s3.733-8.324 8.323-8.324h52.09v16.647h-52.09zm0 67.283c-4.59 0-8.323-3.734-8.323-8.324s3.733-8.324 8.323-8.324h52.09v16.648zm0 67.281c-4.59 0-8.323-3.734-8.323-8.324s3.733-8.324 8.323-8.324h52.09v16.647h-52.09zm0 67.283c-4.59 0-8.323-3.734-8.323-8.324s3.733-8.324 8.323-8.324h52.09v16.647h-52.09zm41.649 45.436c0-2.481 2.019-4.5 4.5-4.5h230.405c2.481 0 4.5 2.019 4.5 4.5v14.628h-239.405zm322.087 12.133c0 1.375-1.119 2.495-2.494 2.495h-65.188v-14.628c0-10.752-8.748-19.5-19.5-19.5h-5.94v-211.638h90.628c1.375 0 2.494 1.119 2.494 2.495z"/></g><path d="m428.146 274.924h-27.04c-6.641 0-12.043 5.402-12.043 12.043v26.359c0 6.641 5.402 12.043 12.043 12.043h27.04c6.641 0 12.043-5.402 12.043-12.043v-26.359c0-6.64-5.402-12.043-12.043-12.043zm-2.957 35.446h-21.126v-20.445h21.126z"/><path d="m428.146 350.28h-27.04c-6.641 0-12.043 5.402-12.043 12.043v26.359c0 6.641 5.402 12.043 12.043 12.043h27.04c6.641 0 12.043-5.402 12.043-12.043v-26.359c0-6.64-5.402-12.043-12.043-12.043zm-2.957 35.446h-21.126v-20.446h21.126z"/><path d="m428.146 425.636h-27.04c-6.641 0-12.043 5.402-12.043 12.043v26.359c0 6.641 5.402 12.043 12.043 12.043h27.04c6.641 0 12.043-5.402 12.043-12.043v-26.359c0-6.64-5.402-12.043-12.043-12.043zm-2.957 35.446h-21.126v-20.445h21.126z"/><path d="m190.473 148.881c-6.641 0-12.043 5.402-12.043 12.043v258.862c0 6.641 5.402 12.043 12.043 12.043h18.777c6.641 0 12.043-5.402 12.043-12.043v-258.862c0-6.641-5.402-12.043-12.043-12.043zm15.82 267.948h-12.863v-252.948h12.863z"/><path d="m247.52 148.881c-6.641 0-12.043 5.402-12.043 12.043v258.862c0 6.641 5.402 12.043 12.043 12.043h18.778c6.641 0 12.043-5.402 12.043-12.043v-258.862c0-6.641-5.402-12.043-12.043-12.043zm15.821 267.948h-12.864v-252.948h12.864z"/></g></svg>